<svg width="418" height="153" viewBox="0 0 418 153" fill="none" xmlns="http://www.w3.org/2000/svg">
<path d="M264 62.4998C292 6 334 6.00001 360 62.5001" stroke="#D55B5B" stroke-width="3"/>
<path d="M140 20.1252C112 76.625 70 76.625 44 20.1249" stroke="#61D55B" stroke-width="3"/>
<path d="M10.102 107V91.178H4.756V89.288H17.716V91.178H12.37V107H10.102ZM24.2156 107.324C23.0456 107.324 21.9836 107.054 21.0296 106.514C20.0756 105.956 19.3196 105.164 18.7616 104.138C18.2036 103.112 17.9246 101.888 17.9246 100.466C17.9246 99.026 18.2036 97.793 18.7616 96.767C19.3376 95.741 20.0756 94.949 20.9756 94.391C21.8756 93.833 22.8206 93.554 23.8106 93.554C25.4846 93.554 26.7716 94.112 27.6716 95.228C28.5896 96.344 29.0486 97.838 29.0486 99.71C29.0486 99.944 29.0396 100.178 29.0216 100.412C29.0216 100.628 29.0036 100.817 28.9676 100.979H20.1116C20.2016 102.365 20.6336 103.472 21.4076 104.3C22.1996 105.128 23.2256 105.542 24.4856 105.542C25.1156 105.542 25.6916 105.452 26.2136 105.272C26.7536 105.074 27.2666 104.822 27.7526 104.516L28.5356 105.974C27.9776 106.334 27.3386 106.649 26.6186 106.919C25.9166 107.189 25.1156 107.324 24.2156 107.324ZM20.0846 99.386H27.1046C27.1046 98.054 26.8166 97.046 26.2406 96.362C25.6826 95.66 24.8906 95.309 23.8646 95.309C22.9466 95.309 22.1186 95.669 21.3806 96.389C20.6606 97.091 20.2286 98.09 20.0846 99.386ZM32.2911 107V93.878H34.1271L34.3161 96.254H34.3971C34.8471 95.426 35.3961 94.769 36.0441 94.283C36.6921 93.797 37.3851 93.554 38.1231 93.554C38.6451 93.554 39.1131 93.644 39.5271 93.824L39.0951 95.768C38.8791 95.696 38.6811 95.642 38.5011 95.606C38.3211 95.57 38.0961 95.552 37.8261 95.552C37.2681 95.552 36.6831 95.777 36.0711 96.227C35.4771 96.677 34.9551 97.46 34.5051 98.576V107H32.2911ZM47.4565 107.324C46.8445 107.324 46.2055 107.18 45.5395 106.892C44.8915 106.586 44.2795 106.172 43.7035 105.65H43.6225L43.4335 107H41.6515V87.776H43.8655V93.014L43.8115 95.39C44.4055 94.868 45.0535 94.436 45.7555 94.094C46.4755 93.734 47.1955 93.554 47.9155 93.554C49.6255 93.554 50.9215 94.157 51.8035 95.363C52.6855 96.569 53.1265 98.189 53.1265 100.223C53.1265 101.717 52.8565 102.995 52.3165 104.057C51.7945 105.119 51.1015 105.929 50.2375 106.487C49.3915 107.045 48.4645 107.324 47.4565 107.324ZM47.0785 105.461C48.1585 105.461 49.0495 105.002 49.7515 104.084C50.4715 103.148 50.8315 101.87 50.8315 100.25C50.8315 98.81 50.5615 97.649 50.0215 96.767C49.4995 95.867 48.6175 95.417 47.3755 95.417C46.8175 95.417 46.2505 95.57 45.6745 95.876C45.0985 96.182 44.4955 96.623 43.8655 97.199V104.084C44.4415 104.588 45.0085 104.948 45.5665 105.164C46.1425 105.362 46.6465 105.461 47.0785 105.461ZM60.4093 107.324C59.0233 107.324 58.0063 106.892 57.3583 106.028C56.7103 105.146 56.3863 103.868 56.3863 102.194V93.878H58.6273V101.897C58.6273 103.121 58.8163 104.012 59.1943 104.57C59.5903 105.128 60.2203 105.407 61.0843 105.407C61.7683 105.407 62.3713 105.236 62.8933 104.894C63.4333 104.534 64.0093 103.967 64.6213 103.193V93.878H66.8353V107H64.9993L64.8103 104.948H64.7293C64.1173 105.668 63.4693 106.244 62.7853 106.676C62.1013 107.108 61.3093 107.324 60.4093 107.324ZM71.2619 107V87.776H73.4489V100.79H73.5299L79.1189 93.878H81.5759L77.1749 99.143L82.1699 107H79.7399L75.9059 100.682L73.4489 103.544V107H71.2619ZM87.3903 107.324C86.2923 107.324 85.3743 107 84.6363 106.352C83.9163 105.686 83.5563 104.768 83.5563 103.598C83.5563 102.158 84.1953 101.06 85.4733 100.304C86.7693 99.53 88.8123 98.99 91.6023 98.684C91.6023 98.126 91.5213 97.595 91.3593 97.091C91.2153 96.587 90.9453 96.182 90.5493 95.876C90.1713 95.552 89.6223 95.39 88.9023 95.39C88.1463 95.39 87.4353 95.534 86.7693 95.822C86.1033 96.11 85.5093 96.434 84.9873 96.794L84.1233 95.255C84.7353 94.859 85.4823 94.481 86.3643 94.121C87.2643 93.743 88.2363 93.554 89.2803 93.554C90.8823 93.554 92.0433 94.049 92.7633 95.039C93.4833 96.011 93.8433 97.316 93.8433 98.954V107H92.0073L91.8183 105.434H91.7373C91.1253 105.938 90.4503 106.379 89.7123 106.757C88.9923 107.135 88.2183 107.324 87.3903 107.324ZM88.0383 105.542C88.6683 105.542 89.2623 105.389 89.8203 105.083C90.3783 104.777 90.9723 104.345 91.6023 103.787V100.142C89.4243 100.412 87.8943 100.817 87.0123 101.357C86.1483 101.897 85.7163 102.59 85.7163 103.436C85.7163 104.174 85.9413 104.714 86.3913 105.056C86.8413 105.38 87.3903 105.542 88.0383 105.542ZM103.377 107V87.776H105.564V100.79H105.645L111.234 93.878H113.691L109.29 99.143L114.285 107H111.855L108.021 100.682L105.564 103.544V107H103.377ZM121.59 107.324C120.42 107.324 119.358 107.054 118.404 106.514C117.45 105.956 116.694 105.164 116.136 104.138C115.578 103.112 115.299 101.888 115.299 100.466C115.299 99.026 115.578 97.793 116.136 96.767C116.712 95.741 117.45 94.949 118.35 94.391C119.25 93.833 120.195 93.554 121.185 93.554C122.859 93.554 124.146 94.112 125.046 95.228C125.964 96.344 126.423 97.838 126.423 99.71C126.423 99.944 126.414 100.178 126.396 100.412C126.396 100.628 126.378 100.817 126.342 100.979H117.486C117.576 102.365 118.008 103.472 118.782 104.3C119.574 105.128 120.6 105.542 121.86 105.542C122.49 105.542 123.066 105.452 123.588 105.272C124.128 105.074 124.641 104.822 125.127 104.516L125.91 105.974C125.352 106.334 124.713 106.649 123.993 106.919C123.291 107.189 122.49 107.324 121.59 107.324ZM117.459 99.386H124.479C124.479 98.054 124.191 97.046 123.615 96.362C123.057 95.66 122.265 95.309 121.239 95.309C120.321 95.309 119.493 95.669 118.755 96.389C118.035 97.091 117.603 98.09 117.459 99.386ZM138.094 107.324C136.996 107.324 136.078 107 135.34 106.352C134.62 105.686 134.26 104.768 134.26 103.598C134.26 102.158 134.899 101.06 136.177 100.304C137.473 99.53 139.516 98.99 142.306 98.684C142.306 98.126 142.225 97.595 142.063 97.091C141.919 96.587 141.649 96.182 141.253 95.876C140.875 95.552 140.326 95.39 139.606 95.39C138.85 95.39 138.139 95.534 137.473 95.822C136.807 96.11 136.213 96.434 135.691 96.794L134.827 95.255C135.439 94.859 136.186 94.481 137.068 94.121C137.968 93.743 138.94 93.554 139.984 93.554C141.586 93.554 142.747 94.049 143.467 95.039C144.187 96.011 144.547 97.316 144.547 98.954V107H142.711L142.522 105.434H142.441C141.829 105.938 141.154 106.379 140.416 106.757C139.696 107.135 138.922 107.324 138.094 107.324ZM138.742 105.542C139.372 105.542 139.966 105.389 140.524 105.083C141.082 104.777 141.676 104.345 142.306 103.787V100.142C140.128 100.412 138.598 100.817 137.716 101.357C136.852 101.897 136.42 102.59 136.42 103.436C136.42 104.174 136.645 104.714 137.095 105.056C137.545 105.38 138.094 105.542 138.742 105.542ZM152.438 107.324C151.034 107.324 150.053 106.919 149.495 106.109C148.955 105.299 148.685 104.246 148.685 102.95V95.687H146.741V94.013L148.793 93.878L149.063 90.206H150.926V93.878H154.463V95.687H150.926V102.977C150.926 103.787 151.07 104.417 151.358 104.867C151.664 105.299 152.195 105.515 152.951 105.515C153.185 105.515 153.437 105.479 153.707 105.407C153.977 105.317 154.22 105.236 154.436 105.164L154.868 106.838C154.508 106.964 154.112 107.072 153.68 107.162C153.266 107.27 152.852 107.324 152.438 107.324ZM159.874 107.324C158.776 107.324 157.858 107 157.12 106.352C156.4 105.686 156.04 104.768 156.04 103.598C156.04 102.158 156.679 101.06 157.957 100.304C159.253 99.53 161.296 98.99 164.086 98.684C164.086 98.126 164.005 97.595 163.843 97.091C163.699 96.587 163.429 96.182 163.033 95.876C162.655 95.552 162.106 95.39 161.386 95.39C160.63 95.39 159.919 95.534 159.253 95.822C158.587 96.11 157.993 96.434 157.471 96.794L156.607 95.255C157.219 94.859 157.966 94.481 158.848 94.121C159.748 93.743 160.72 93.554 161.764 93.554C163.366 93.554 164.527 94.049 165.247 95.039C165.967 96.011 166.327 97.316 166.327 98.954V107H164.491L164.302 105.434H164.221C163.609 105.938 162.934 106.379 162.196 106.757C161.476 107.135 160.702 107.324 159.874 107.324ZM160.522 105.542C161.152 105.542 161.746 105.389 162.304 105.083C162.862 104.777 163.456 104.345 164.086 103.787V100.142C161.908 100.412 160.378 100.817 159.496 101.357C158.632 101.897 158.2 102.59 158.2 103.436C158.2 104.174 158.425 104.714 158.875 105.056C159.325 105.38 159.874 105.542 160.522 105.542ZM173.884 107.324C172.948 107.324 172.057 107.153 171.211 106.811C170.365 106.451 169.627 106.019 168.997 105.515L170.104 104.03C170.68 104.48 171.274 104.858 171.886 105.164C172.498 105.452 173.191 105.596 173.965 105.596C174.829 105.596 175.477 105.398 175.909 105.002C176.341 104.588 176.557 104.102 176.557 103.544C176.557 103.094 176.404 102.716 176.098 102.41C175.81 102.104 175.432 101.852 174.964 101.654C174.514 101.438 174.046 101.24 173.56 101.06C172.948 100.826 172.345 100.565 171.751 100.277C171.157 99.971 170.671 99.584 170.293 99.116C169.915 98.63 169.726 98.018 169.726 97.28C169.726 96.218 170.122 95.336 170.914 94.634C171.724 93.914 172.84 93.554 174.262 93.554C175.072 93.554 175.828 93.698 176.53 93.986C177.232 94.274 177.835 94.625 178.339 95.039L177.259 96.443C176.809 96.101 176.341 95.822 175.855 95.606C175.369 95.39 174.838 95.282 174.262 95.282C173.434 95.282 172.822 95.471 172.426 95.849C172.048 96.227 171.859 96.668 171.859 97.172C171.859 97.586 171.994 97.928 172.264 98.198C172.534 98.45 172.885 98.675 173.317 98.873C173.749 99.053 174.208 99.242 174.694 99.44C175.324 99.674 175.945 99.944 176.557 100.25C177.169 100.538 177.673 100.934 178.069 101.438C178.483 101.924 178.69 102.581 178.69 103.409C178.69 104.111 178.501 104.759 178.123 105.353C177.763 105.947 177.223 106.424 176.503 106.784C175.801 107.144 174.928 107.324 173.884 107.324Z" fill="white"/>
<path d="M74.182 123.093C74.2 123.075 74.362 123.066 74.668 123.066C74.992 123.102 75.217 123.129 75.343 123.147C75.937 123.327 76.423 123.633 76.801 124.065L76.936 124.254L77.125 124.065C77.611 123.615 78.115 123.489 78.637 123.687C78.907 123.777 79.087 123.948 79.177 124.2C79.249 124.416 79.204 124.866 79.042 125.55C78.934 126.018 78.682 127.035 78.286 128.601C77.656 131.067 77.323 132.426 77.287 132.678C77.215 133.074 77.224 133.398 77.314 133.65C77.422 133.938 77.629 134.064 77.935 134.028C78.151 134.01 78.376 133.839 78.61 133.515C78.862 133.137 79.123 132.435 79.393 131.409C79.465 131.103 79.546 130.932 79.636 130.896C79.69 130.878 79.861 130.869 80.149 130.869C80.491 130.869 80.68 130.887 80.716 130.923C80.824 130.995 80.824 131.202 80.716 131.544C80.248 133.218 79.645 134.325 78.907 134.865C78.619 135.081 78.331 135.216 78.043 135.27C77.665 135.324 77.26 135.297 76.828 135.189C76.018 135.009 75.442 134.586 75.1 133.92L75.019 133.731L74.857 133.866C73.435 135.09 72.031 135.522 70.645 135.162C70.249 135.054 69.88 134.892 69.538 134.676C68.512 133.956 67.927 132.885 67.783 131.463C67.711 130.977 67.72 130.455 67.81 129.897C68.044 128.385 68.665 126.999 69.673 125.739C70.015 125.325 70.393 124.947 70.807 124.605C71.833 123.759 72.868 123.264 73.912 123.12C73.984 123.102 74.074 123.093 74.182 123.093ZM74.965 124.416C74.605 124.326 74.308 124.308 74.074 124.362C73.516 124.47 72.976 124.785 72.454 125.307C71.932 125.865 71.473 126.855 71.077 128.277C70.987 128.601 70.888 128.979 70.78 129.411C70.474 130.635 70.321 131.544 70.321 132.138C70.321 132.696 70.438 133.137 70.672 133.461C71.014 133.911 71.491 134.091 72.103 134.001C72.787 133.929 73.489 133.533 74.209 132.813C74.533 132.489 74.776 132.192 74.938 131.922C74.938 131.976 75.181 131.031 75.667 129.087L76.342 126.306L76.315 126.117C76.081 125.217 75.631 124.65 74.965 124.416ZM83.829 120.474C83.937 120.42 84.081 120.429 84.261 120.501C84.549 120.609 87.114 121.806 91.956 124.092C97.176 126.558 99.804 127.809 99.84 127.845C99.966 127.935 100.029 128.07 100.029 128.25C100.029 128.43 99.966 128.565 99.84 128.655C99.804 128.691 97.176 129.942 91.956 132.408L84.18 136.08H84.018C83.748 136.062 83.586 135.909 83.532 135.621C83.514 135.495 83.541 135.369 83.613 135.243C83.685 135.153 84.405 134.784 85.773 134.136C86.673 133.722 88.581 132.822 91.497 131.436L98.193 128.25L91.497 125.064C86.277 122.598 83.649 121.329 83.613 121.257C83.577 121.185 83.559 121.086 83.559 120.96C83.559 120.834 83.586 120.735 83.64 120.663C83.676 120.609 83.739 120.546 83.829 120.474ZM108.489 117.045C110.019 116.883 111.351 117.324 112.485 118.368C112.971 118.836 113.385 119.448 113.727 120.204C114.393 121.698 114.726 123.75 114.726 126.36C114.726 129.132 114.339 131.265 113.565 132.759C113.061 133.803 112.323 134.559 111.351 135.027C110.253 135.567 109.137 135.72 108.003 135.486C107.121 135.324 106.329 134.919 105.627 134.271C105.213 133.893 104.844 133.389 104.52 132.759C103.746 131.229 103.359 129.096 103.359 126.36C103.359 124.29 103.557 122.598 103.953 121.284C104.205 120.51 104.52 119.817 104.898 119.205C105.726 117.999 106.86 117.288 108.3 117.072C108.354 117.054 108.417 117.045 108.489 117.045ZM109.407 118.314C109.011 118.26 108.642 118.287 108.3 118.395C107.508 118.665 106.959 119.196 106.653 119.988C106.617 120.114 106.581 120.249 106.545 120.393C106.365 121.185 106.275 123.066 106.275 126.036C106.275 129.528 106.383 131.634 106.599 132.354C106.707 132.732 106.887 133.065 107.139 133.353C107.643 134.001 108.282 134.325 109.056 134.325C109.812 134.325 110.442 134.001 110.946 133.353C111.198 133.065 111.378 132.732 111.486 132.354C111.702 131.634 111.81 129.528 111.81 126.036C111.81 123.066 111.72 121.185 111.54 120.393C111.36 119.529 110.874 118.908 110.082 118.53C109.866 118.422 109.641 118.35 109.407 118.314Z" fill="white"/>
<path d="M294.182 123.093C294.2 123.075 294.362 123.066 294.668 123.066C294.992 123.102 295.217 123.129 295.343 123.147C295.937 123.327 296.423 123.633 296.801 124.065L296.936 124.254L297.125 124.065C297.611 123.615 298.115 123.489 298.637 123.687C298.907 123.777 299.087 123.948 299.177 124.2C299.249 124.416 299.204 124.866 299.042 125.55C298.934 126.018 298.682 127.035 298.286 128.601C297.656 131.067 297.323 132.426 297.287 132.678C297.215 133.074 297.224 133.398 297.314 133.65C297.422 133.938 297.629 134.064 297.935 134.028C298.151 134.01 298.376 133.839 298.61 133.515C298.862 133.137 299.123 132.435 299.393 131.409C299.465 131.103 299.546 130.932 299.636 130.896C299.69 130.878 299.861 130.869 300.149 130.869C300.491 130.869 300.68 130.887 300.716 130.923C300.824 130.995 300.824 131.202 300.716 131.544C300.248 133.218 299.645 134.325 298.907 134.865C298.619 135.081 298.331 135.216 298.043 135.27C297.665 135.324 297.26 135.297 296.828 135.189C296.018 135.009 295.442 134.586 295.1 133.92L295.019 133.731L294.857 133.866C293.435 135.09 292.031 135.522 290.645 135.162C290.249 135.054 289.88 134.892 289.538 134.676C288.512 133.956 287.927 132.885 287.783 131.463C287.711 130.977 287.72 130.455 287.81 129.897C288.044 128.385 288.665 126.999 289.673 125.739C290.015 125.325 290.393 124.947 290.807 124.605C291.833 123.759 292.868 123.264 293.912 123.12C293.984 123.102 294.074 123.093 294.182 123.093ZM294.965 124.416C294.605 124.326 294.308 124.308 294.074 124.362C293.516 124.47 292.976 124.785 292.454 125.307C291.932 125.865 291.473 126.855 291.077 128.277C290.987 128.601 290.888 128.979 290.78 129.411C290.474 130.635 290.321 131.544 290.321 132.138C290.321 132.696 290.438 133.137 290.672 133.461C291.014 133.911 291.491 134.091 292.103 134.001C292.787 133.929 293.489 133.533 294.209 132.813C294.533 132.489 294.776 132.192 294.938 131.922C294.938 131.976 295.181 131.031 295.667 129.087L296.342 126.306L296.315 126.117C296.081 125.217 295.631 124.65 294.965 124.416ZM311.605 124.092C316.771 121.662 319.426 120.438 319.57 120.42C319.606 120.42 319.66 120.438 319.732 120.474C320.02 120.618 320.11 120.843 320.002 121.149C319.966 121.239 319.912 121.311 319.84 121.365C319.822 121.383 317.392 122.544 312.55 124.848L305.368 128.25L312.55 131.652C317.392 133.956 319.822 135.117 319.84 135.135C320.074 135.315 320.11 135.54 319.948 135.81C319.894 135.9 319.822 135.972 319.732 136.026C319.624 136.08 319.48 136.071 319.3 135.999C319.012 135.891 316.447 134.694 311.605 132.408C306.385 129.942 303.757 128.691 303.721 128.655C303.595 128.565 303.532 128.43 303.532 128.25C303.532 128.052 303.604 127.908 303.748 127.818C303.658 127.872 306.277 126.63 311.605 124.092ZM328.489 117.045C330.019 116.883 331.351 117.324 332.485 118.368C332.971 118.836 333.385 119.448 333.727 120.204C334.393 121.698 334.726 123.75 334.726 126.36C334.726 129.132 334.339 131.265 333.565 132.759C333.061 133.803 332.323 134.559 331.351 135.027C330.253 135.567 329.137 135.72 328.003 135.486C327.121 135.324 326.329 134.919 325.627 134.271C325.213 133.893 324.844 133.389 324.52 132.759C323.746 131.229 323.359 129.096 323.359 126.36C323.359 124.29 323.557 122.598 323.953 121.284C324.205 120.51 324.52 119.817 324.898 119.205C325.726 117.999 326.86 117.288 328.3 117.072C328.354 117.054 328.417 117.045 328.489 117.045ZM329.407 118.314C329.011 118.26 328.642 118.287 328.3 118.395C327.508 118.665 326.959 119.196 326.653 119.988C326.617 120.114 326.581 120.249 326.545 120.393C326.365 121.185 326.275 123.066 326.275 126.036C326.275 129.528 326.383 131.634 326.599 132.354C326.707 132.732 326.887 133.065 327.139 133.353C327.643 134.001 328.282 134.325 329.056 134.325C329.812 134.325 330.442 134.001 330.946 133.353C331.198 133.065 331.378 132.732 331.486 132.354C331.702 131.634 331.81 129.528 331.81 126.036C331.81 123.066 331.72 121.185 331.54 120.393C331.36 119.529 330.874 118.908 330.082 118.53C329.866 118.422 329.641 118.35 329.407 118.314Z" fill="white"/>
<path d="M215.102 107V91.178H209.756V89.288H222.716V91.178H217.37V107H215.102ZM229.216 107.324C228.046 107.324 226.984 107.054 226.03 106.514C225.076 105.956 224.32 105.164 223.762 104.138C223.204 103.112 222.925 101.888 222.925 100.466C222.925 99.026 223.204 97.793 223.762 96.767C224.338 95.741 225.076 94.949 225.976 94.391C226.876 93.833 227.821 93.554 228.811 93.554C230.485 93.554 231.772 94.112 232.672 95.228C233.59 96.344 234.049 97.838 234.049 99.71C234.049 99.944 234.04 100.178 234.022 100.412C234.022 100.628 234.004 100.817 233.968 100.979H225.112C225.202 102.365 225.634 103.472 226.408 104.3C227.2 105.128 228.226 105.542 229.486 105.542C230.116 105.542 230.692 105.452 231.214 105.272C231.754 105.074 232.267 104.822 232.753 104.516L233.536 105.974C232.978 106.334 232.339 106.649 231.619 106.919C230.917 107.189 230.116 107.324 229.216 107.324ZM225.085 99.386H232.105C232.105 98.054 231.817 97.046 231.241 96.362C230.683 95.66 229.891 95.309 228.865 95.309C227.947 95.309 227.119 95.669 226.381 96.389C225.661 97.091 225.229 98.09 225.085 99.386ZM237.291 107V93.878H239.127L239.316 96.254H239.397C239.847 95.426 240.396 94.769 241.044 94.283C241.692 93.797 242.385 93.554 243.123 93.554C243.645 93.554 244.113 93.644 244.527 93.824L244.095 95.768C243.879 95.696 243.681 95.642 243.501 95.606C243.321 95.57 243.096 95.552 242.826 95.552C242.268 95.552 241.683 95.777 241.071 96.227C240.477 96.677 239.955 97.46 239.505 98.576V107H237.291ZM252.457 107.324C251.845 107.324 251.206 107.18 250.54 106.892C249.892 106.586 249.28 106.172 248.704 105.65H248.623L248.434 107H246.652V87.776H248.866V93.014L248.812 95.39C249.406 94.868 250.054 94.436 250.756 94.094C251.476 93.734 252.196 93.554 252.916 93.554C254.626 93.554 255.922 94.157 256.804 95.363C257.686 96.569 258.127 98.189 258.127 100.223C258.127 101.717 257.857 102.995 257.317 104.057C256.795 105.119 256.102 105.929 255.238 106.487C254.392 107.045 253.465 107.324 252.457 107.324ZM252.079 105.461C253.159 105.461 254.05 105.002 254.752 104.084C255.472 103.148 255.832 101.87 255.832 100.25C255.832 98.81 255.562 97.649 255.022 96.767C254.5 95.867 253.618 95.417 252.375 95.417C251.818 95.417 251.251 95.57 250.675 95.876C250.099 96.182 249.496 96.623 248.866 97.199V104.084C249.442 104.588 250.009 104.948 250.567 105.164C251.143 105.362 251.647 105.461 252.079 105.461ZM265.409 107.324C264.023 107.324 263.006 106.892 262.358 106.028C261.71 105.146 261.386 103.868 261.386 102.194V93.878H263.627V101.897C263.627 103.121 263.816 104.012 264.194 104.57C264.59 105.128 265.22 105.407 266.084 105.407C266.768 105.407 267.371 105.236 267.893 104.894C268.433 104.534 269.009 103.967 269.621 103.193V93.878H271.835V107H269.999L269.81 104.948H269.729C269.117 105.668 268.469 106.244 267.785 106.676C267.101 107.108 266.309 107.324 265.409 107.324ZM276.262 107V87.776H278.449V100.79H278.53L284.119 93.878H286.576L282.175 99.143L287.17 107H284.74L280.906 100.682L278.449 103.544V107H276.262ZM292.39 107.324C291.292 107.324 290.374 107 289.636 106.352C288.916 105.686 288.556 104.768 288.556 103.598C288.556 102.158 289.195 101.06 290.473 100.304C291.769 99.53 293.812 98.99 296.602 98.684C296.602 98.126 296.521 97.595 296.359 97.091C296.215 96.587 295.945 96.182 295.549 95.876C295.171 95.552 294.622 95.39 293.902 95.39C293.146 95.39 292.435 95.534 291.769 95.822C291.103 96.11 290.509 96.434 289.987 96.794L289.123 95.255C289.735 94.859 290.482 94.481 291.364 94.121C292.264 93.743 293.236 93.554 294.28 93.554C295.882 93.554 297.043 94.049 297.763 95.039C298.483 96.011 298.843 97.316 298.843 98.954V107H297.007L296.818 105.434H296.737C296.125 105.938 295.45 106.379 294.712 106.757C293.992 107.135 293.218 107.324 292.39 107.324ZM293.038 105.542C293.668 105.542 294.262 105.389 294.82 105.083C295.378 104.777 295.972 104.345 296.602 103.787V100.142C294.424 100.412 292.894 100.817 292.012 101.357C291.148 101.897 290.716 102.59 290.716 103.436C290.716 104.174 290.941 104.714 291.391 105.056C291.841 105.38 292.39 105.542 293.038 105.542ZM308.377 107V87.776H310.564V100.79H310.645L316.234 93.878H318.691L314.29 99.143L319.285 107H316.855L313.021 100.682L310.564 103.544V107H308.377ZM326.59 107.324C325.42 107.324 324.358 107.054 323.404 106.514C322.45 105.956 321.694 105.164 321.136 104.138C320.578 103.112 320.299 101.888 320.299 100.466C320.299 99.026 320.578 97.793 321.136 96.767C321.712 95.741 322.45 94.949 323.35 94.391C324.25 93.833 325.195 93.554 326.185 93.554C327.859 93.554 329.146 94.112 330.046 95.228C330.964 96.344 331.423 97.838 331.423 99.71C331.423 99.944 331.414 100.178 331.396 100.412C331.396 100.628 331.378 100.817 331.342 100.979H322.486C322.576 102.365 323.008 103.472 323.782 104.3C324.574 105.128 325.6 105.542 326.86 105.542C327.49 105.542 328.066 105.452 328.588 105.272C329.128 105.074 329.641 104.822 330.127 104.516L330.91 105.974C330.352 106.334 329.713 106.649 328.993 106.919C328.291 107.189 327.49 107.324 326.59 107.324ZM322.459 99.386H329.479C329.479 98.054 329.191 97.046 328.615 96.362C328.057 95.66 327.265 95.309 326.239 95.309C325.321 95.309 324.493 95.669 323.755 96.389C323.035 97.091 322.603 98.09 322.459 99.386ZM345.875 107.324C345.263 107.324 344.624 107.18 343.958 106.892C343.31 106.586 342.698 106.172 342.122 105.65H342.041L341.852 107H340.07V87.776H342.284V93.014L342.23 95.39C342.824 94.868 343.472 94.436 344.174 94.094C344.894 93.734 345.614 93.554 346.334 93.554C348.044 93.554 349.34 94.157 350.222 95.363C351.104 96.569 351.545 98.189 351.545 100.223C351.545 101.717 351.275 102.995 350.735 104.057C350.213 105.119 349.52 105.929 348.656 106.487C347.81 107.045 346.883 107.324 345.875 107.324ZM345.497 105.461C346.577 105.461 347.468 105.002 348.17 104.084C348.89 103.148 349.25 101.87 349.25 100.25C349.25 98.81 348.98 97.649 348.44 96.767C347.918 95.867 347.036 95.417 345.794 95.417C345.236 95.417 344.669 95.57 344.093 95.876C343.517 96.182 342.914 96.623 342.284 97.199V104.084C342.86 104.588 343.427 104.948 343.985 105.164C344.561 105.362 345.065 105.461 345.497 105.461ZM357.649 107.324C356.551 107.324 355.633 107 354.895 106.352C354.175 105.686 353.815 104.768 353.815 103.598C353.815 102.158 354.454 101.06 355.732 100.304C357.028 99.53 359.071 98.99 361.861 98.684C361.861 98.126 361.78 97.595 361.618 97.091C361.474 96.587 361.204 96.182 360.808 95.876C360.43 95.552 359.881 95.39 359.161 95.39C358.405 95.39 357.694 95.534 357.028 95.822C356.362 96.11 355.768 96.434 355.246 96.794L354.382 95.255C354.994 94.859 355.741 94.481 356.623 94.121C357.523 93.743 358.495 93.554 359.539 93.554C361.141 93.554 362.302 94.049 363.022 95.039C363.742 96.011 364.102 97.316 364.102 98.954V107H362.266L362.077 105.434H361.996C361.384 105.938 360.709 106.379 359.971 106.757C359.251 107.135 358.477 107.324 357.649 107.324ZM358.297 105.542C358.927 105.542 359.521 105.389 360.079 105.083C360.637 104.777 361.231 104.345 361.861 103.787V100.142C359.683 100.412 358.153 100.817 357.271 101.357C356.407 101.897 355.975 102.59 355.975 103.436C355.975 104.174 356.2 104.714 356.65 105.056C357.1 105.38 357.649 105.542 358.297 105.542ZM370.31 107L366.665 93.878H368.933L370.877 101.465C371.021 102.077 371.156 102.689 371.282 103.301C371.408 103.895 371.534 104.498 371.66 105.11H371.768C371.912 104.498 372.056 103.895 372.2 103.301C372.344 102.689 372.497 102.077 372.659 101.465L374.684 93.878H376.844L378.896 101.465C379.058 102.077 379.211 102.689 379.355 103.301C379.517 103.895 379.67 104.498 379.814 105.11H379.922C380.066 104.498 380.201 103.895 380.327 103.301C380.471 102.689 380.606 102.077 380.732 101.465L382.649 93.878H384.755L381.245 107H378.545L376.655 99.953C376.493 99.323 376.34 98.702 376.196 98.09C376.07 97.478 375.926 96.839 375.764 96.173H375.656C375.512 96.839 375.368 97.487 375.224 98.117C375.08 98.729 374.918 99.35 374.738 99.98L372.902 107H370.31ZM390.371 107.324C389.273 107.324 388.355 107 387.617 106.352C386.897 105.686 386.537 104.768 386.537 103.598C386.537 102.158 387.176 101.06 388.454 100.304C389.75 99.53 391.793 98.99 394.583 98.684C394.583 98.126 394.502 97.595 394.34 97.091C394.196 96.587 393.926 96.182 393.53 95.876C393.152 95.552 392.603 95.39 391.883 95.39C391.127 95.39 390.416 95.534 389.75 95.822C389.084 96.11 388.49 96.434 387.968 96.794L387.104 95.255C387.716 94.859 388.463 94.481 389.345 94.121C390.245 93.743 391.217 93.554 392.261 93.554C393.863 93.554 395.024 94.049 395.744 95.039C396.464 96.011 396.824 97.316 396.824 98.954V107H394.988L394.799 105.434H394.718C394.106 105.938 393.431 106.379 392.693 106.757C391.973 107.135 391.199 107.324 390.371 107.324ZM391.019 105.542C391.649 105.542 392.243 105.389 392.801 105.083C393.359 104.777 393.953 104.345 394.583 103.787V100.142C392.405 100.412 390.875 100.817 389.993 101.357C389.129 101.897 388.697 102.59 388.697 103.436C388.697 104.174 388.922 104.714 389.372 105.056C389.822 105.38 390.371 105.542 391.019 105.542ZM400.952 107V87.776H403.166V93.014L403.085 95.714C403.715 95.12 404.372 94.616 405.056 94.202C405.758 93.77 406.559 93.554 407.459 93.554C408.845 93.554 409.853 93.995 410.483 94.877C411.131 95.741 411.455 97.01 411.455 98.684V107H409.241V98.981C409.241 97.757 409.043 96.866 408.647 96.308C408.251 95.75 407.621 95.471 406.757 95.471C406.091 95.471 405.488 95.642 404.948 95.984C404.426 96.326 403.832 96.83 403.166 97.496V107H400.952Z" fill="white"/>
</svg>
