<svg width="239" height="239" viewBox="0 0 239 239" fill="none" xmlns="http://www.w3.org/2000/svg">
<rect x="28.5" y="198.5" width="11" height="11" stroke="#D55B5B"/>
<line x1="28.5" y1="30.9999" x2="28.5062" y2="211" stroke="#5B9AD5" stroke-width="3"/>
<line x1="29.0607" y1="29.9393" x2="209.373" y2="210.252" stroke="#5B9AD5" stroke-width="3"/>
<line x1="28.0029" y1="209.5" x2="208.003" y2="209.5" stroke="#5B9AD5" stroke-width="3"/>
<path d="M154.326 209.5C154.326 198 154.326 183 171.804 172.844" stroke="#5B9AD5" stroke-width="3"/>
<path d="M13.65 121.975C13.6667 121.958 13.8167 121.95 14.1 121.95C14.4 121.983 14.6083 122.008 14.725 122.025C15.275 122.192 15.725 122.475 16.075 122.875L16.2 123.05L16.375 122.875C16.825 122.458 17.2917 122.342 17.775 122.525C18.025 122.608 18.1917 122.767 18.275 123C18.3417 123.2 18.3 123.617 18.15 124.25C18.05 124.683 17.8167 125.625 17.45 127.075C16.8667 129.358 16.5583 130.617 16.525 130.85C16.4583 131.217 16.4667 131.517 16.55 131.75C16.65 132.017 16.8417 132.133 17.125 132.1C17.325 132.083 17.5333 131.925 17.75 131.625C17.9833 131.275 18.225 130.625 18.475 129.675C18.5417 129.392 18.6167 129.233 18.7 129.2C18.75 129.183 18.9083 129.175 19.175 129.175C19.4917 129.175 19.6667 129.192 19.7 129.225C19.8 129.292 19.8 129.483 19.7 129.8C19.2667 131.35 18.7083 132.375 18.025 132.875C17.7583 133.075 17.4917 133.2 17.225 133.25C16.875 133.3 16.5 133.275 16.1 133.175C15.35 133.008 14.8167 132.617 14.5 132L14.425 131.825L14.275 131.95C12.9583 133.083 11.6583 133.483 10.375 133.15C10.0083 133.05 9.66667 132.9 9.35 132.7C8.4 132.033 7.85833 131.042 7.725 129.725C7.65833 129.275 7.66667 128.792 7.75 128.275C7.96667 126.875 8.54167 125.592 9.475 124.425C9.79167 124.042 10.1417 123.692 10.525 123.375C11.475 122.592 12.4333 122.133 13.4 122C13.4667 121.983 13.55 121.975 13.65 121.975ZM14.375 123.2C14.0417 123.117 13.7667 123.1 13.55 123.15C13.0333 123.25 12.5333 123.542 12.05 124.025C11.5667 124.542 11.1417 125.458 10.775 126.775C10.6917 127.075 10.6 127.425 10.5 127.825C10.2167 128.958 10.075 129.8 10.075 130.35C10.075 130.867 10.1833 131.275 10.4 131.575C10.7167 131.992 11.1583 132.158 11.725 132.075C12.3583 132.008 13.0083 131.642 13.675 130.975C13.975 130.675 14.2 130.4 14.35 130.15C14.35 130.2 14.575 129.325 15.025 127.525L15.65 124.95L15.625 124.775C15.4083 123.942 14.9917 123.417 14.375 123.2Z" fill="white"/>
<path d="M171.825 203.25C171.108 203.25 170.475 203.083 169.925 202.75C169.392 202.4 168.967 201.883 168.65 201.2C168.35 200.517 168.2 199.675 168.2 198.675C168.2 197.675 168.3 196.717 168.5 195.8C168.717 194.867 169.017 194.008 169.4 193.225C169.783 192.442 170.242 191.767 170.775 191.2C171.325 190.617 171.933 190.167 172.6 189.85C173.283 189.517 174.008 189.35 174.775 189.35C175.358 189.35 175.867 189.458 176.3 189.675C176.75 189.892 177.125 190.175 177.425 190.525C177.725 190.875 177.967 191.258 178.15 191.675H178.275L179.075 189.6H180.75L178.7 199.275C178.65 199.542 178.608 199.792 178.575 200.025C178.542 200.242 178.525 200.425 178.525 200.575C178.525 200.858 178.592 201.083 178.725 201.25C178.875 201.4 179.067 201.475 179.3 201.475C179.417 201.475 179.542 201.467 179.675 201.45C179.825 201.417 179.967 201.375 180.1 201.325V202.925C179.967 202.992 179.75 203.058 179.45 203.125C179.15 203.208 178.858 203.25 178.575 203.25C178.092 203.25 177.683 203.158 177.35 202.975C177.017 202.792 176.758 202.517 176.575 202.15C176.408 201.783 176.325 201.325 176.325 200.775H176.25C175.883 201.225 175.467 201.642 175 202.025C174.55 202.392 174.058 202.692 173.525 202.925C173.008 203.142 172.442 203.25 171.825 203.25ZM172.55 201.425C173.167 201.425 173.767 201.2 174.35 200.75C174.95 200.3 175.492 199.692 175.975 198.925C176.458 198.158 176.825 197.3 177.075 196.35C177.208 195.867 177.292 195.425 177.325 195.025C177.375 194.608 177.4 194.225 177.4 193.875C177.4 193.092 177.183 192.45 176.75 191.95C176.317 191.45 175.733 191.2 175 191.2C174.483 191.2 173.992 191.333 173.525 191.6C173.075 191.867 172.658 192.242 172.275 192.725C171.892 193.192 171.567 193.742 171.3 194.375C171.033 195.008 170.825 195.7 170.675 196.45C170.525 197.183 170.45 197.942 170.45 198.725C170.45 199.625 170.633 200.3 171 200.75C171.367 201.2 171.883 201.425 172.55 201.425Z" fill="white"/>
<path d="M102.025 214.8C103.358 214.7 104.008 214.65 103.975 214.65C104.125 214.65 104.225 214.708 104.275 214.825C104.292 214.892 104.017 216.067 103.45 218.35C102.867 220.683 102.575 221.842 102.575 221.825C102.575 221.858 102.658 221.817 102.825 221.7C103.358 221.367 103.892 221.133 104.425 221C104.908 220.933 105.358 220.942 105.775 221.025C106.475 221.175 107.058 221.483 107.525 221.95C107.942 222.367 108.242 222.875 108.425 223.475C108.708 224.308 108.75 225.217 108.55 226.2C108.217 228.017 107.358 229.525 105.975 230.725C105.725 230.942 105.475 231.133 105.225 231.3C104.708 231.633 104.225 231.875 103.775 232.025C102.692 232.375 101.733 232.35 100.9 231.95C99.75 231.4 99.0833 230.375 98.9 228.875C98.85 228.592 98.85 228.117 98.9 227.45C98.95 227.117 99.4083 225.225 100.275 221.775C101.108 218.408 101.492 216.658 101.425 216.525C101.308 216.408 100.95 216.342 100.35 216.325C99.95 216.325 99.725 216.267 99.675 216.15C99.6417 216.1 99.6667 215.908 99.75 215.575C99.8333 215.225 99.9 215.033 99.95 215C100 214.95 100.05 214.925 100.1 214.925L102.025 214.8ZM105.325 222.2C104.975 222.1 104.575 222.117 104.125 222.25C103.442 222.533 102.783 223.075 102.15 223.875L102.025 224.05L101.6 225.8C101.167 227.517 100.95 228.625 100.95 229.125C100.95 229.825 101.125 230.35 101.475 230.7C101.892 231.117 102.433 231.217 103.1 231C103.75 230.783 104.292 230.342 104.725 229.675C104.975 229.292 105.242 228.65 105.525 227.75C105.808 226.683 106.008 225.842 106.125 225.225C106.342 224.225 106.358 223.492 106.175 223.025C106.008 222.608 105.725 222.333 105.325 222.2Z" fill="white"/>
<path d="M135.275 111.975H136.3C137.517 112.158 138.275 112.667 138.575 113.5C138.742 114 138.7 114.508 138.45 115.025C138.333 115.242 138.225 115.4 138.125 115.5C137.675 115.917 137.192 116.083 136.675 116C136.425 115.967 136.208 115.875 136.025 115.725C135.858 115.558 135.758 115.358 135.725 115.125C135.642 114.625 135.808 114.15 136.225 113.7C136.342 113.583 136.467 113.492 136.6 113.425C136.65 113.392 136.683 113.367 136.7 113.35C136.7 113.3 136.475 113.233 136.025 113.15C134.925 113 133.933 113.375 133.05 114.275C132.467 114.908 132 115.892 131.65 117.225C131.633 117.342 131.608 117.458 131.575 117.575C131.242 118.908 131.108 119.842 131.175 120.375C131.292 121.258 131.767 121.808 132.6 122.025C132.95 122.125 133.467 122.125 134.15 122.025C135.2 121.875 136.092 121.517 136.825 120.95C137.142 120.75 137.408 120.508 137.625 120.225C137.808 120.008 137.958 119.942 138.075 120.025C138.125 120.058 138.217 120.142 138.35 120.275C138.583 120.525 138.692 120.683 138.675 120.75C138.608 120.933 138.317 121.242 137.8 121.675C137.717 121.742 137.642 121.8 137.575 121.85C136.392 122.75 134.967 123.225 133.3 123.275C132.2 123.292 131.267 123.042 130.5 122.525C130.117 122.292 129.775 121.958 129.475 121.525C129.158 121.058 128.942 120.542 128.825 119.975C128.508 118.425 128.883 116.858 129.95 115.275C130.067 115.092 130.192 114.917 130.325 114.75C130.608 114.383 131.008 113.983 131.525 113.55C132.708 112.6 133.958 112.075 135.275 111.975Z" fill="white"/>
<path d="M223.225 203.125L223.8 203.1H223.825C224.275 203.1 224.517 203.15 224.55 203.25C224.567 203.317 224.792 206.017 225.225 211.35C225.642 216.717 225.867 219.417 225.9 219.45C225.917 219.467 225.975 219.492 226.075 219.525C226.275 219.575 226.758 219.6 227.525 219.6H228.025L228.125 219.675C228.175 219.758 228.2 219.817 228.2 219.85L227.975 220.85C227.925 220.95 227.742 220.992 227.425 220.975C227.358 220.975 227.233 220.975 227.05 220.975C224.633 220.908 222.658 220.917 221.125 221H220.825L220.75 220.925C220.683 220.858 220.65 220.792 220.65 220.725C220.65 220.458 220.733 220.133 220.9 219.75C220.933 219.65 221.175 219.6 221.625 219.6C222.025 219.567 222.292 219.55 222.425 219.55C222.808 219.483 223.017 219.417 223.05 219.35C223.067 219.333 223.033 218.783 222.95 217.7C222.867 216.733 222.825 216.183 222.825 216.05C222.825 216.017 221.875 216 219.975 216H217.1L216.35 217.325C215.817 218.225 215.542 218.717 215.525 218.8C215.458 218.967 215.483 219.108 215.6 219.225C215.767 219.425 216.125 219.55 216.675 219.6C216.908 219.6 217.058 219.658 217.125 219.775L217.15 219.85L217.025 220.35C216.958 220.667 216.892 220.858 216.825 220.925L216.75 221H216.45C215.067 220.933 213.758 220.917 212.525 220.95C211.675 220.983 211.242 221 211.225 221H211.05L210.975 220.925C210.908 220.858 210.875 220.8 210.875 220.75L211.1 219.75C211.167 219.65 211.358 219.6 211.675 219.6C212.842 219.55 213.65 219.217 214.1 218.6L218.625 210.85C221.525 205.833 223.008 203.292 223.075 203.225C223.092 203.208 223.142 203.175 223.225 203.125ZM222.425 211C222.242 208.617 222.15 207.408 222.15 207.375C222.15 207.308 221.783 207.917 221.05 209.2L218.95 212.825L217.925 214.575L220.3 214.6H222.7C222.7 214.617 222.608 213.417 222.425 211Z" fill="white"/>
<path d="M23 5.95C23.0333 5.93333 24.7083 5.925 28.025 5.925C31.3417 5.94167 33.1083 5.96667 33.325 6C33.875 6.08333 34.4083 6.25 34.925 6.5C35.5417 6.81667 36.0167 7.225 36.35 7.725C37.0333 8.725 37.0917 9.8 36.525 10.95C36.425 11.15 36.3083 11.3417 36.175 11.525C35.925 11.9083 35.5417 12.3 35.025 12.7C34.2083 13.3 33.2417 13.7417 32.125 14.025C32.075 14.0417 32.05 14.0583 32.05 14.075C32.1667 14.075 32.4667 14.15 32.95 14.3C34.0667 14.65 34.8333 15.2583 35.25 16.125C35.7167 17.075 35.675 18.1167 35.125 19.25C34.4583 20.6 33.325 21.6333 31.725 22.35C31.625 22.4 31.5333 22.4417 31.45 22.475C30.9 22.6917 30.3333 22.8417 29.75 22.925C29.5333 22.9583 27.675 22.9833 24.175 23C20.6583 23 18.8667 22.975 18.8 22.925L18.75 22.825C18.7333 22.775 18.7583 22.5833 18.825 22.25C18.925 21.9167 18.9917 21.725 19.025 21.675L19.125 21.6H19.975C20.9083 21.5833 21.4333 21.5167 21.55 21.4C21.6 21.3667 22.2 19.05 23.35 14.45C24.5 9.85 25.075 7.53333 25.075 7.5C25.075 7.48333 25.0583 7.45833 25.025 7.425C24.9583 7.39167 24.5083 7.35833 23.675 7.325H22.825L22.75 7.25C22.65 7.18333 22.65 6.95 22.75 6.55C22.8333 6.2 22.9167 6 23 5.95ZM32.35 7.35C32.25 7.33333 31.525 7.325 30.175 7.325L28 7.35C27.8333 7.36667 27.725 7.41667 27.675 7.5C27.675 7.53333 27.4167 8.54167 26.9 10.525L26.15 13.525H28.2L30.275 13.5L30.525 13.45C31.5417 13.2 32.3667 12.6833 33 11.9C33.3333 11.5333 33.6 11.0833 33.8 10.55C33.9 10.1833 33.95 9.81667 33.95 9.45C33.95 9.16667 33.9333 8.95833 33.9 8.825C33.8 8.45833 33.625 8.15 33.375 7.9C33.1083 7.63333 32.7667 7.45 32.35 7.35ZM31 14.775L30.8 14.725L28.325 14.7H25.875L25.025 18.075C24.4583 20.3083 24.175 21.45 24.175 21.5C24.175 21.5333 24.2083 21.5583 24.275 21.575H26.6C28.1 21.575 28.9333 21.5583 29.1 21.525C30.2833 21.2583 31.2167 20.6167 31.9 19.6C32.3333 18.95 32.575 18.225 32.625 17.425C32.6417 16.575 32.425 15.8833 31.975 15.35C31.675 15.05 31.35 14.8583 31 14.775Z" fill="white"/>
<path d="M18.9 204.4H20C21.3667 204.533 22.4417 205.125 23.225 206.175C23.3083 206.275 23.3583 206.333 23.375 206.35C23.3583 206.35 23.6333 206.083 24.2 205.55C24.9167 204.867 25.2583 204.542 25.225 204.575L25.425 204.375H25.625C25.8417 204.375 25.9667 204.425 26 204.525C26.0167 204.558 25.7417 205.742 25.175 208.075C24.575 210.475 24.275 211.65 24.275 211.6C24.2417 211.7 24.0083 211.75 23.575 211.75H23.05L22.975 211.675C22.9083 211.608 22.8917 211.458 22.925 211.225C22.925 211.208 22.9333 211.125 22.95 210.975C23.1167 209.775 23.0167 208.708 22.65 207.775C22.25 206.675 21.5333 206.025 20.5 205.825C20.2 205.758 19.7417 205.75 19.125 205.8C19.075 205.817 19.0333 205.825 19 205.825C17.5167 206.042 16.1583 206.625 14.925 207.575C13.2583 208.942 12.1083 211.083 11.475 214C11.2583 214.883 11.15 215.733 11.15 216.55C11.15 217.317 11.25 217.958 11.45 218.475C11.5167 218.692 11.65 218.95 11.85 219.25C12.5833 220.35 13.7583 220.975 15.375 221.125C16.325 221.225 17.2417 221.05 18.125 220.6C19.5417 219.917 20.6417 218.792 21.425 217.225C21.625 216.808 21.7917 216.383 21.925 215.95C22.0083 215.683 22.0917 215.542 22.175 215.525C22.225 215.508 22.3667 215.5 22.6 215.5C22.9833 215.5 23.1917 215.55 23.225 215.65C23.2417 215.717 23.225 215.833 23.175 216C22.8917 216.983 22.45 217.892 21.85 218.725C21.3833 219.392 20.8667 219.958 20.3 220.425C18.8833 221.675 17.3083 222.375 15.575 222.525C15.075 222.592 14.5583 222.575 14.025 222.475C12.3917 222.275 11.075 221.633 10.075 220.55C9.10833 219.533 8.525 218.267 8.325 216.75C8.225 216.067 8.23333 215.292 8.35 214.425C8.65 212.275 9.58333 210.292 11.15 208.475C11.7333 207.842 12.2167 207.375 12.6 207.075C14.2667 205.692 16.0583 204.833 17.975 204.5C18.0583 204.483 18.3667 204.45 18.9 204.4Z" fill="white"/>
</svg>
