<svg width="382" height="175" viewBox="0 0 382 175" fill="none" xmlns="http://www.w3.org/2000/svg">
<path d="M14 152.5C42 96 84 96 110 152.5" stroke="#D55B5B" stroke-width="3"/>
<path d="M131 152.375C159 95.875 201 95.875 227 152.375" stroke="#D55B5B" stroke-width="3"/>
<path d="M248 152.25C276 95.75 318 95.75 344 152.25" stroke="#D55B5B" stroke-width="3"/>
<path d="M110 28.1252C82 84.625 40 84.625 14 28.1249" stroke="#61D55B" stroke-width="3"/>
<path d="M227 28.1252C199 84.625 157 84.625 131 28.1249" stroke="#61D55B" stroke-width="3"/>
<path d="M344 28.1252C316 84.625 274 84.625 248 28.1249" stroke="#61D55B" stroke-width="3"/>
<path d="M41.347 23.424C42.787 23.316 43.489 23.262 43.453 23.262C43.615 23.262 43.723 23.325 43.777 23.451C43.795 23.523 43.498 24.792 42.886 27.258C42.256 29.778 41.941 31.029 41.941 31.011C41.941 31.047 42.031 31.002 42.211 30.876C42.787 30.516 43.363 30.264 43.939 30.12C44.461 30.048 44.947 30.057 45.397 30.147C46.153 30.309 46.783 30.642 47.287 31.146C47.737 31.596 48.061 32.145 48.259 32.793C48.565 33.693 48.61 34.674 48.394 35.736C48.034 37.698 47.107 39.327 45.613 40.623C45.343 40.857 45.073 41.064 44.803 41.244C44.245 41.604 43.723 41.865 43.237 42.027C42.067 42.405 41.032 42.378 40.132 41.946C38.89 41.352 38.17 40.245 37.972 38.625C37.918 38.319 37.918 37.806 37.972 37.086C38.026 36.726 38.521 34.683 39.457 30.957C40.357 27.321 40.771 25.431 40.699 25.287C40.573 25.161 40.186 25.089 39.538 25.071C39.106 25.071 38.863 25.008 38.809 24.882C38.773 24.828 38.8 24.621 38.89 24.261C38.98 23.883 39.052 23.676 39.106 23.64C39.16 23.586 39.214 23.559 39.268 23.559L41.347 23.424ZM44.911 31.416C44.533 31.308 44.101 31.326 43.615 31.47C42.877 31.776 42.166 32.361 41.482 33.225L41.347 33.414L40.888 35.304C40.42 37.158 40.186 38.355 40.186 38.895C40.186 39.651 40.375 40.218 40.753 40.596C41.203 41.046 41.788 41.154 42.508 40.92C43.21 40.686 43.795 40.209 44.263 39.489C44.533 39.075 44.821 38.382 45.127 37.41C45.433 36.258 45.649 35.349 45.775 34.683C46.009 33.603 46.027 32.811 45.829 32.307C45.649 31.857 45.343 31.56 44.911 31.416ZM51.1132 27.474C51.2212 27.42 51.3652 27.429 51.5452 27.501C51.8332 27.609 54.3982 28.806 59.2402 31.092C64.4602 33.558 67.0882 34.809 67.1242 34.845C67.2502 34.935 67.3132 35.07 67.3132 35.25C67.3132 35.43 67.2502 35.565 67.1242 35.655C67.0882 35.691 64.4602 36.942 59.2402 39.408L51.4642 43.08H51.3022C51.0322 43.062 50.8702 42.909 50.8162 42.621C50.7982 42.495 50.8252 42.369 50.8972 42.243C50.9692 42.153 51.6892 41.784 53.0572 41.136C53.9572 40.722 55.8652 39.822 58.7812 38.436L65.4772 35.25L58.7812 32.064C53.5612 29.598 50.9332 28.329 50.8972 28.257C50.8612 28.185 50.8432 28.086 50.8432 27.96C50.8432 27.834 50.8702 27.735 50.9242 27.663C50.9602 27.609 51.0232 27.546 51.1132 27.474ZM75.7728 24.045C77.3028 23.883 78.6348 24.324 79.7688 25.368C80.2548 25.836 80.6688 26.448 81.0108 27.204C81.6768 28.698 82.0098 30.75 82.0098 33.36C82.0098 36.132 81.6228 38.265 80.8488 39.759C80.3448 40.803 79.6068 41.559 78.6348 42.027C77.5368 42.567 76.4208 42.72 75.2868 42.486C74.4048 42.324 73.6128 41.919 72.9108 41.271C72.4968 40.893 72.1278 40.389 71.8038 39.759C71.0298 38.229 70.6428 36.096 70.6428 33.36C70.6428 31.29 70.8408 29.598 71.2368 28.284C71.4888 27.51 71.8038 26.817 72.1818 26.205C73.0098 24.999 74.1438 24.288 75.5838 24.072C75.6378 24.054 75.7008 24.045 75.7728 24.045ZM76.6908 25.314C76.2948 25.26 75.9258 25.287 75.5838 25.395C74.7918 25.665 74.2428 26.196 73.9368 26.988C73.9008 27.114 73.8648 27.249 73.8288 27.393C73.6488 28.185 73.5588 30.066 73.5588 33.036C73.5588 36.528 73.6668 38.634 73.8828 39.354C73.9908 39.732 74.1708 40.065 74.4228 40.353C74.9268 41.001 75.5658 41.325 76.3398 41.325C77.0958 41.325 77.7258 41.001 78.2298 40.353C78.4818 40.065 78.6618 39.732 78.7698 39.354C78.9858 38.634 79.0938 36.528 79.0938 33.036C79.0938 30.066 79.0038 28.185 78.8238 27.393C78.6438 26.529 78.1578 25.908 77.3658 25.53C77.1498 25.422 76.9248 25.35 76.6908 25.314Z" fill="white"/>
<path d="M161.347 23.424C162.787 23.316 163.489 23.262 163.453 23.262C163.615 23.262 163.723 23.325 163.777 23.451C163.795 23.523 163.498 24.792 162.886 27.258C162.256 29.778 161.941 31.029 161.941 31.011C161.941 31.047 162.031 31.002 162.211 30.876C162.787 30.516 163.363 30.264 163.939 30.12C164.461 30.048 164.947 30.057 165.397 30.147C166.153 30.309 166.783 30.642 167.287 31.146C167.737 31.596 168.061 32.145 168.259 32.793C168.565 33.693 168.61 34.674 168.394 35.736C168.034 37.698 167.107 39.327 165.613 40.623C165.343 40.857 165.073 41.064 164.803 41.244C164.245 41.604 163.723 41.865 163.237 42.027C162.067 42.405 161.032 42.378 160.132 41.946C158.89 41.352 158.17 40.245 157.972 38.625C157.918 38.319 157.918 37.806 157.972 37.086C158.026 36.726 158.521 34.683 159.457 30.957C160.357 27.321 160.771 25.431 160.699 25.287C160.573 25.161 160.186 25.089 159.538 25.071C159.106 25.071 158.863 25.008 158.809 24.882C158.773 24.828 158.8 24.621 158.89 24.261C158.98 23.883 159.052 23.676 159.106 23.64C159.16 23.586 159.214 23.559 159.268 23.559L161.347 23.424ZM164.911 31.416C164.533 31.308 164.101 31.326 163.615 31.47C162.877 31.776 162.166 32.361 161.482 33.225L161.347 33.414L160.888 35.304C160.42 37.158 160.186 38.355 160.186 38.895C160.186 39.651 160.375 40.218 160.753 40.596C161.203 41.046 161.788 41.154 162.508 40.92C163.21 40.686 163.795 40.209 164.263 39.489C164.533 39.075 164.821 38.382 165.127 37.41C165.433 36.258 165.649 35.349 165.775 34.683C166.009 33.603 166.027 32.811 165.829 32.307C165.649 31.857 165.343 31.56 164.911 31.416ZM170.357 32.145L170.465 32.091H179.051H187.664L187.772 32.145C187.826 32.181 187.898 32.244 187.988 32.334C188.042 32.442 188.069 32.541 188.069 32.631C188.069 32.721 188.042 32.82 187.988 32.928C187.898 33.018 187.835 33.072 187.799 33.09L187.691 33.144L179.105 33.171H170.519L170.357 33.117C170.177 33.009 170.087 32.847 170.087 32.631C170.087 32.505 170.114 32.406 170.168 32.334C170.204 32.262 170.267 32.199 170.357 32.145ZM170.357 37.383L170.519 37.329H179.105H187.691L187.799 37.41C187.835 37.428 187.898 37.482 187.988 37.572C188.042 37.68 188.069 37.779 188.069 37.869C188.069 37.959 188.042 38.058 187.988 38.166C187.898 38.256 187.826 38.319 187.772 38.355L187.664 38.409H179.051H170.465L170.357 38.355C170.267 38.301 170.204 38.238 170.168 38.166C170.114 38.094 170.087 37.995 170.087 37.869C170.087 37.653 170.177 37.491 170.357 37.383ZM195.773 24.045C197.303 23.883 198.635 24.324 199.769 25.368C200.255 25.836 200.669 26.448 201.011 27.204C201.677 28.698 202.01 30.75 202.01 33.36C202.01 36.132 201.623 38.265 200.849 39.759C200.345 40.803 199.607 41.559 198.635 42.027C197.537 42.567 196.421 42.72 195.287 42.486C194.405 42.324 193.613 41.919 192.911 41.271C192.497 40.893 192.128 40.389 191.804 39.759C191.03 38.229 190.643 36.096 190.643 33.36C190.643 31.29 190.841 29.598 191.237 28.284C191.489 27.51 191.804 26.817 192.182 26.205C193.01 24.999 194.144 24.288 195.584 24.072C195.638 24.054 195.701 24.045 195.773 24.045ZM196.691 25.314C196.295 25.26 195.926 25.287 195.584 25.395C194.792 25.665 194.243 26.196 193.937 26.988C193.901 27.114 193.865 27.249 193.829 27.393C193.649 28.185 193.559 30.066 193.559 33.036C193.559 36.528 193.667 38.634 193.883 39.354C193.991 39.732 194.171 40.065 194.423 40.353C194.927 41.001 195.566 41.325 196.34 41.325C197.096 41.325 197.726 41.001 198.23 40.353C198.482 40.065 198.662 39.732 198.77 39.354C198.986 38.634 199.094 36.528 199.094 33.036C199.094 30.066 199.004 28.185 198.824 27.393C198.644 26.529 198.158 25.908 197.366 25.53C197.15 25.422 196.925 25.35 196.691 25.314Z" fill="white"/>
<path d="M278.347 23.424C279.787 23.316 280.489 23.262 280.453 23.262C280.615 23.262 280.723 23.325 280.777 23.451C280.795 23.523 280.498 24.792 279.886 27.258C279.256 29.778 278.941 31.029 278.941 31.011C278.941 31.047 279.031 31.002 279.211 30.876C279.787 30.516 280.363 30.264 280.939 30.12C281.461 30.048 281.947 30.057 282.397 30.147C283.153 30.309 283.783 30.642 284.287 31.146C284.737 31.596 285.061 32.145 285.259 32.793C285.565 33.693 285.61 34.674 285.394 35.736C285.034 37.698 284.107 39.327 282.613 40.623C282.343 40.857 282.073 41.064 281.803 41.244C281.245 41.604 280.723 41.865 280.237 42.027C279.067 42.405 278.032 42.378 277.132 41.946C275.89 41.352 275.17 40.245 274.972 38.625C274.918 38.319 274.918 37.806 274.972 37.086C275.026 36.726 275.521 34.683 276.457 30.957C277.357 27.321 277.771 25.431 277.699 25.287C277.573 25.161 277.186 25.089 276.538 25.071C276.106 25.071 275.863 25.008 275.809 24.882C275.773 24.828 275.8 24.621 275.89 24.261C275.98 23.883 276.052 23.676 276.106 23.64C276.16 23.586 276.214 23.559 276.268 23.559L278.347 23.424ZM281.911 31.416C281.533 31.308 281.101 31.326 280.615 31.47C279.877 31.776 279.166 32.361 278.482 33.225L278.347 33.414L277.888 35.304C277.42 37.158 277.186 38.355 277.186 38.895C277.186 39.651 277.375 40.218 277.753 40.596C278.203 41.046 278.788 41.154 279.508 40.92C280.21 40.686 280.795 40.209 281.263 39.489C281.533 39.075 281.821 38.382 282.127 37.41C282.433 36.258 282.649 35.349 282.775 34.683C283.009 33.603 283.027 32.811 282.829 32.307C282.649 31.857 282.343 31.56 281.911 31.416ZM288.113 27.474C288.221 27.42 288.365 27.429 288.545 27.501C288.833 27.609 291.398 28.806 296.24 31.092C301.46 33.558 304.088 34.809 304.124 34.845C304.25 34.935 304.313 35.07 304.313 35.25C304.313 35.43 304.25 35.565 304.124 35.655C304.088 35.691 301.46 36.942 296.24 39.408L288.464 43.08H288.302C288.032 43.062 287.87 42.909 287.816 42.621C287.798 42.495 287.825 42.369 287.897 42.243C287.969 42.153 288.689 41.784 290.057 41.136C290.957 40.722 292.865 39.822 295.781 38.436L302.477 35.25L295.781 32.064C290.561 29.598 287.933 28.329 287.897 28.257C287.861 28.185 287.843 28.086 287.843 27.96C287.843 27.834 287.87 27.735 287.924 27.663C287.96 27.609 288.023 27.546 288.113 27.474ZM312.773 24.045C314.303 23.883 315.635 24.324 316.769 25.368C317.255 25.836 317.669 26.448 318.011 27.204C318.677 28.698 319.01 30.75 319.01 33.36C319.01 36.132 318.623 38.265 317.849 39.759C317.345 40.803 316.607 41.559 315.635 42.027C314.537 42.567 313.421 42.72 312.287 42.486C311.405 42.324 310.613 41.919 309.911 41.271C309.497 40.893 309.128 40.389 308.804 39.759C308.03 38.229 307.643 36.096 307.643 33.36C307.643 31.29 307.841 29.598 308.237 28.284C308.489 27.51 308.804 26.817 309.182 26.205C310.01 24.999 311.144 24.288 312.584 24.072C312.638 24.054 312.701 24.045 312.773 24.045ZM313.691 25.314C313.295 25.26 312.926 25.287 312.584 25.395C311.792 25.665 311.243 26.196 310.937 26.988C310.901 27.114 310.865 27.249 310.829 27.393C310.649 28.185 310.559 30.066 310.559 33.036C310.559 36.528 310.667 38.634 310.883 39.354C310.991 39.732 311.171 40.065 311.423 40.353C311.927 41.001 312.566 41.325 313.34 41.325C314.096 41.325 314.726 41.001 315.23 40.353C315.482 40.065 315.662 39.732 315.77 39.354C315.986 38.634 316.094 36.528 316.094 33.036C316.094 30.066 316.004 28.185 315.824 27.393C315.644 26.529 315.158 25.908 314.366 25.53C314.15 25.422 313.925 25.35 313.691 25.314Z" fill="white"/>
<path d="M41.347 126.424C42.787 126.316 43.489 126.262 43.453 126.262C43.615 126.262 43.723 126.325 43.777 126.451C43.795 126.523 43.498 127.792 42.886 130.258C42.256 132.778 41.941 134.029 41.941 134.011C41.941 134.047 42.031 134.002 42.211 133.876C42.787 133.516 43.363 133.264 43.939 133.12C44.461 133.048 44.947 133.057 45.397 133.147C46.153 133.309 46.783 133.642 47.287 134.146C47.737 134.596 48.061 135.145 48.259 135.793C48.565 136.693 48.61 137.674 48.394 138.736C48.034 140.698 47.107 142.327 45.613 143.623C45.343 143.857 45.073 144.064 44.803 144.244C44.245 144.604 43.723 144.865 43.237 145.027C42.067 145.405 41.032 145.378 40.132 144.946C38.89 144.352 38.17 143.245 37.972 141.625C37.918 141.319 37.918 140.806 37.972 140.086C38.026 139.726 38.521 137.683 39.457 133.957C40.357 130.321 40.771 128.431 40.699 128.287C40.573 128.161 40.186 128.089 39.538 128.071C39.106 128.071 38.863 128.008 38.809 127.882C38.773 127.828 38.8 127.621 38.89 127.261C38.98 126.883 39.052 126.676 39.106 126.64C39.16 126.586 39.214 126.559 39.268 126.559L41.347 126.424ZM44.911 134.416C44.533 134.308 44.101 134.326 43.615 134.47C42.877 134.776 42.166 135.361 41.482 136.225L41.347 136.414L40.888 138.304C40.42 140.158 40.186 141.355 40.186 141.895C40.186 142.651 40.375 143.218 40.753 143.596C41.203 144.046 41.788 144.154 42.508 143.92C43.21 143.686 43.795 143.209 44.263 142.489C44.533 142.075 44.821 141.382 45.127 140.41C45.433 139.258 45.649 138.349 45.775 137.683C46.009 136.603 46.027 135.811 45.829 135.307C45.649 134.857 45.343 134.56 44.911 134.416ZM58.8892 134.092C64.0552 131.662 66.7102 130.438 66.8542 130.42C66.8902 130.42 66.9442 130.438 67.0162 130.474C67.3042 130.618 67.3942 130.843 67.2862 131.149C67.2502 131.239 67.1962 131.311 67.1242 131.365C67.1062 131.383 64.6762 132.544 59.8342 134.848L52.6522 138.25L59.8342 141.652C64.6762 143.956 67.1062 145.117 67.1242 145.135C67.3582 145.315 67.3942 145.54 67.2322 145.81C67.1782 145.9 67.1062 145.972 67.0162 146.026C66.9082 146.08 66.7642 146.071 66.5842 145.999C66.2962 145.891 63.7312 144.694 58.8892 142.408C53.6692 139.942 51.0412 138.691 51.0052 138.655C50.8792 138.565 50.8162 138.43 50.8162 138.25C50.8162 138.052 50.8882 137.908 51.0322 137.818C50.9422 137.872 53.5612 136.63 58.8892 134.092ZM75.7728 127.045C77.3028 126.883 78.6348 127.324 79.7688 128.368C80.2548 128.836 80.6688 129.448 81.0108 130.204C81.6768 131.698 82.0098 133.75 82.0098 136.36C82.0098 139.132 81.6228 141.265 80.8488 142.759C80.3448 143.803 79.6068 144.559 78.6348 145.027C77.5368 145.567 76.4208 145.72 75.2868 145.486C74.4048 145.324 73.6128 144.919 72.9108 144.271C72.4968 143.893 72.1278 143.389 71.8038 142.759C71.0298 141.229 70.6428 139.096 70.6428 136.36C70.6428 134.29 70.8408 132.598 71.2368 131.284C71.4888 130.51 71.8038 129.817 72.1818 129.205C73.0098 127.999 74.1438 127.288 75.5838 127.072C75.6378 127.054 75.7008 127.045 75.7728 127.045ZM76.6908 128.314C76.2948 128.26 75.9258 128.287 75.5838 128.395C74.7918 128.665 74.2428 129.196 73.9368 129.988C73.9008 130.114 73.8648 130.249 73.8288 130.393C73.6488 131.185 73.5588 133.066 73.5588 136.036C73.5588 139.528 73.6668 141.634 73.8828 142.354C73.9908 142.732 74.1708 143.065 74.4228 143.353C74.9268 144.001 75.5658 144.325 76.3398 144.325C77.0958 144.325 77.7258 144.001 78.2298 143.353C78.4818 143.065 78.6618 142.732 78.7698 142.354C78.9858 141.634 79.0938 139.528 79.0938 136.036C79.0938 133.066 79.0038 131.185 78.8238 130.393C78.6438 129.529 78.1578 128.908 77.3658 128.53C77.1498 128.422 76.9248 128.35 76.6908 128.314Z" fill="white"/>
<path d="M160.347 126.299C161.787 126.191 162.489 126.137 162.453 126.137C162.615 126.137 162.723 126.2 162.777 126.326C162.795 126.398 162.498 127.667 161.886 130.133C161.256 132.653 160.941 133.904 160.941 133.886C160.941 133.922 161.031 133.877 161.211 133.751C161.787 133.391 162.363 133.139 162.939 132.995C163.461 132.923 163.947 132.932 164.397 133.022C165.153 133.184 165.783 133.517 166.287 134.021C166.737 134.471 167.061 135.02 167.259 135.668C167.565 136.568 167.61 137.549 167.394 138.611C167.034 140.573 166.107 142.202 164.613 143.498C164.343 143.732 164.073 143.939 163.803 144.119C163.245 144.479 162.723 144.74 162.237 144.902C161.067 145.28 160.032 145.253 159.132 144.821C157.89 144.227 157.17 143.12 156.972 141.5C156.918 141.194 156.918 140.681 156.972 139.961C157.026 139.601 157.521 137.558 158.457 133.832C159.357 130.196 159.771 128.306 159.699 128.162C159.573 128.036 159.186 127.964 158.538 127.946C158.106 127.946 157.863 127.883 157.809 127.757C157.773 127.703 157.8 127.496 157.89 127.136C157.98 126.758 158.052 126.551 158.106 126.515C158.16 126.461 158.214 126.434 158.268 126.434L160.347 126.299ZM163.911 134.291C163.533 134.183 163.101 134.201 162.615 134.345C161.877 134.651 161.166 135.236 160.482 136.1L160.347 136.289L159.888 138.179C159.42 140.033 159.186 141.23 159.186 141.77C159.186 142.526 159.375 143.093 159.753 143.471C160.203 143.921 160.788 144.029 161.508 143.795C162.21 143.561 162.795 143.084 163.263 142.364C163.533 141.95 163.821 141.257 164.127 140.285C164.433 139.133 164.649 138.224 164.775 137.558C165.009 136.478 165.027 135.686 164.829 135.182C164.649 134.732 164.343 134.435 163.911 134.291ZM169.357 135.02L169.465 134.966H178.051H186.664L186.772 135.02C186.826 135.056 186.898 135.119 186.988 135.209C187.042 135.317 187.069 135.416 187.069 135.506C187.069 135.596 187.042 135.695 186.988 135.803C186.898 135.893 186.835 135.947 186.799 135.965L186.691 136.019L178.105 136.046H169.519L169.357 135.992C169.177 135.884 169.087 135.722 169.087 135.506C169.087 135.38 169.114 135.281 169.168 135.209C169.204 135.137 169.267 135.074 169.357 135.02ZM169.357 140.258L169.519 140.204H178.105H186.691L186.799 140.285C186.835 140.303 186.898 140.357 186.988 140.447C187.042 140.555 187.069 140.654 187.069 140.744C187.069 140.834 187.042 140.933 186.988 141.041C186.898 141.131 186.826 141.194 186.772 141.23L186.664 141.284H178.051H169.465L169.357 141.23C169.267 141.176 169.204 141.113 169.168 141.041C169.114 140.969 169.087 140.87 169.087 140.744C169.087 140.528 169.177 140.366 169.357 140.258ZM194.773 126.92C196.303 126.758 197.635 127.199 198.769 128.243C199.255 128.711 199.669 129.323 200.011 130.079C200.677 131.573 201.01 133.625 201.01 136.235C201.01 139.007 200.623 141.14 199.849 142.634C199.345 143.678 198.607 144.434 197.635 144.902C196.537 145.442 195.421 145.595 194.287 145.361C193.405 145.199 192.613 144.794 191.911 144.146C191.497 143.768 191.128 143.264 190.804 142.634C190.03 141.104 189.643 138.971 189.643 136.235C189.643 134.165 189.841 132.473 190.237 131.159C190.489 130.385 190.804 129.692 191.182 129.08C192.01 127.874 193.144 127.163 194.584 126.947C194.638 126.929 194.701 126.92 194.773 126.92ZM195.691 128.189C195.295 128.135 194.926 128.162 194.584 128.27C193.792 128.54 193.243 129.071 192.937 129.863C192.901 129.989 192.865 130.124 192.829 130.268C192.649 131.06 192.559 132.941 192.559 135.911C192.559 139.403 192.667 141.509 192.883 142.229C192.991 142.607 193.171 142.94 193.423 143.228C193.927 143.876 194.566 144.2 195.34 144.2C196.096 144.2 196.726 143.876 197.23 143.228C197.482 142.94 197.662 142.607 197.77 142.229C197.986 141.509 198.094 139.403 198.094 135.911C198.094 132.941 198.004 131.06 197.824 130.268C197.644 129.404 197.158 128.783 196.366 128.405C196.15 128.297 195.925 128.225 195.691 128.189Z" fill="white"/>
<path d="M275.347 126.174C276.787 126.066 277.489 126.012 277.453 126.012C277.615 126.012 277.723 126.075 277.777 126.201C277.795 126.273 277.498 127.542 276.886 130.008C276.256 132.528 275.941 133.779 275.941 133.761C275.941 133.797 276.031 133.752 276.211 133.626C276.787 133.266 277.363 133.014 277.939 132.87C278.461 132.798 278.947 132.807 279.397 132.897C280.153 133.059 280.783 133.392 281.287 133.896C281.737 134.346 282.061 134.895 282.259 135.543C282.565 136.443 282.61 137.424 282.394 138.486C282.034 140.448 281.107 142.077 279.613 143.373C279.343 143.607 279.073 143.814 278.803 143.994C278.245 144.354 277.723 144.615 277.237 144.777C276.067 145.155 275.032 145.128 274.132 144.696C272.89 144.102 272.17 142.995 271.972 141.375C271.918 141.069 271.918 140.556 271.972 139.836C272.026 139.476 272.521 137.433 273.457 133.707C274.357 130.071 274.771 128.181 274.699 128.037C274.573 127.911 274.186 127.839 273.538 127.821C273.106 127.821 272.863 127.758 272.809 127.632C272.773 127.578 272.8 127.371 272.89 127.011C272.98 126.633 273.052 126.426 273.106 126.39C273.16 126.336 273.214 126.309 273.268 126.309L275.347 126.174ZM278.911 134.166C278.533 134.058 278.101 134.076 277.615 134.22C276.877 134.526 276.166 135.111 275.482 135.975L275.347 136.164L274.888 138.054C274.42 139.908 274.186 141.105 274.186 141.645C274.186 142.401 274.375 142.968 274.753 143.346C275.203 143.796 275.788 143.904 276.508 143.67C277.21 143.436 277.795 142.959 278.263 142.239C278.533 141.825 278.821 141.132 279.127 140.16C279.433 139.008 279.649 138.099 279.775 137.433C280.009 136.353 280.027 135.561 279.829 135.057C279.649 134.607 279.343 134.31 278.911 134.166ZM285.113 130.224C285.221 130.17 285.365 130.179 285.545 130.251C285.833 130.359 288.398 131.556 293.24 133.842C298.46 136.308 301.088 137.559 301.124 137.595C301.25 137.685 301.313 137.82 301.313 138C301.313 138.18 301.25 138.315 301.124 138.405C301.088 138.441 298.46 139.692 293.24 142.158L285.464 145.83H285.302C285.032 145.812 284.87 145.659 284.816 145.371C284.798 145.245 284.825 145.119 284.897 144.993C284.969 144.903 285.689 144.534 287.057 143.886C287.957 143.472 289.865 142.572 292.781 141.186L299.477 138L292.781 134.814C287.561 132.348 284.933 131.079 284.897 131.007C284.861 130.935 284.843 130.836 284.843 130.71C284.843 130.584 284.87 130.485 284.924 130.413C284.96 130.359 285.023 130.296 285.113 130.224ZM309.773 126.795C311.303 126.633 312.635 127.074 313.769 128.118C314.255 128.586 314.669 129.198 315.011 129.954C315.677 131.448 316.01 133.5 316.01 136.11C316.01 138.882 315.623 141.015 314.849 142.509C314.345 143.553 313.607 144.309 312.635 144.777C311.537 145.317 310.421 145.47 309.287 145.236C308.405 145.074 307.613 144.669 306.911 144.021C306.497 143.643 306.128 143.139 305.804 142.509C305.03 140.979 304.643 138.846 304.643 136.11C304.643 134.04 304.841 132.348 305.237 131.034C305.489 130.26 305.804 129.567 306.182 128.955C307.01 127.749 308.144 127.038 309.584 126.822C309.638 126.804 309.701 126.795 309.773 126.795ZM310.691 128.064C310.295 128.01 309.926 128.037 309.584 128.145C308.792 128.415 308.243 128.946 307.937 129.738C307.901 129.864 307.865 129.999 307.829 130.143C307.649 130.935 307.559 132.816 307.559 135.786C307.559 139.278 307.667 141.384 307.883 142.104C307.991 142.482 308.171 142.815 308.423 143.103C308.927 143.751 309.566 144.075 310.34 144.075C311.096 144.075 311.726 143.751 312.23 143.103C312.482 142.815 312.662 142.482 312.77 142.104C312.986 141.384 313.094 139.278 313.094 135.786C313.094 132.816 313.004 130.935 312.824 130.143C312.644 129.279 312.158 128.658 311.366 128.28C311.15 128.172 310.925 128.1 310.691 128.064Z" fill="white"/>
<path d="M8.93861 87.4465C8.35282 88.0323 8.35282 88.9821 8.93861 89.5679L18.4845 99.1138C19.0703 99.6996 20.0201 99.6996 20.6059 99.1138C21.1917 98.528 21.1917 97.5783 20.6059 96.9925L12.1206 88.5072L20.6059 80.0219C21.1917 79.4361 21.1917 78.4864 20.6059 77.9006C20.0201 77.3148 19.0703 77.3148 18.4845 77.9006L8.93861 87.4465ZM353.061 89.5679C353.647 88.9821 353.647 88.0323 353.061 87.4465L343.515 77.9006C342.93 77.3148 341.98 77.3148 341.394 77.9006C340.808 78.4864 340.808 79.4361 341.394 80.0219L349.879 88.5072L341.394 96.9925C340.808 97.5783 340.808 98.528 341.394 99.1138C341.98 99.6996 342.93 99.6996 343.515 99.1138L353.061 89.5679ZM9.99927 90.0072H352.001V87.0072H9.99927V90.0072Z" fill="white"/>
<path d="M180.061 7.93934C179.475 7.35355 178.525 7.35355 177.939 7.93934L168.393 17.4853C167.808 18.0711 167.808 19.0208 168.393 19.6066C168.979 20.1924 169.929 20.1924 170.515 19.6066L179 11.1213L187.485 19.6066C188.071 20.1924 189.021 20.1924 189.607 19.6066C190.192 19.0208 190.192 18.0711 189.607 17.4853L180.061 7.93934ZM177.939 167.061C178.525 167.646 179.475 167.646 180.061 167.061L189.607 157.515C190.192 156.929 190.192 155.979 189.607 155.393C189.021 154.808 188.071 154.808 187.485 155.393L179 163.879L170.515 155.393C169.929 154.808 168.979 154.808 168.393 155.393C167.808 155.979 167.808 156.929 168.393 157.515L177.939 167.061ZM177.5 9V166H180.5V9H177.5Z" fill="white"/>
</svg>
