<svg width="358" height="253" viewBox="0 0 358 253" fill="none" xmlns="http://www.w3.org/2000/svg">
<g clip-path="url(#clip0_123_122)">
<line x1="178.06" y1="241.939" x2="8.35481" y2="72.2337" stroke="#D55B5B" stroke-width="3"/>
<line x1="345.645" y1="72.2338" x2="175.94" y2="241.939" stroke="#D55B5B" stroke-width="3"/>
<line x1="176.668" y1="240.21" x2="114.551" y2="8.3883" stroke="#D55B5B" stroke-width="3"/>
<line x1="177.551" y1="239.434" x2="239.668" y2="7.61184" stroke="#D55B5B" stroke-width="3"/>
<path d="M229.283 55.7792C229.99 55.3467 230.212 54.4232 229.779 53.7167L222.73 42.2032C222.298 41.4967 221.374 41.2746 220.668 41.7072C219.961 42.1397 219.739 43.0632 220.172 43.7697L226.437 54.0039L216.203 60.2697C215.497 60.7023 215.275 61.6257 215.707 62.3323C216.14 63.0388 217.063 63.2609 217.77 62.8283L229.283 55.7792ZM46.7412 111.342C84.2917 56.0047 149.565 37.0584 228.149 55.9584L228.851 53.0415C149.435 33.9415 82.7083 52.9952 44.2588 109.658L46.7412 111.342Z" fill="#5B9AD5"/>
<path d="M80.4999 144.5C125.821 99.2441 224 94.5 277 142.756" stroke="#5B9AD5" stroke-width="3"/>
<path d="M297.675 209.825C298.042 209.792 298.567 209.8 299.25 209.85C300.367 210 301.175 210.367 301.675 210.95C301.842 211.15 301.958 211.383 302.025 211.65C302.092 211.883 302.108 212.167 302.075 212.5C301.942 213.083 301.567 213.442 300.95 213.575C300.317 213.708 299.817 213.525 299.45 213.025C299.333 212.875 299.25 212.7 299.2 212.5C299.117 212 299.2 211.592 299.45 211.275C299.5 211.225 299.525 211.183 299.525 211.15C299.525 211.1 299.158 211.075 298.425 211.075C298.042 211.075 297.808 211.083 297.725 211.1C297.292 211.217 296.908 211.442 296.575 211.775C296.025 212.325 295.692 213.167 295.575 214.3C295.508 214.883 295.5 215.6 295.55 216.45C295.567 216.533 295.575 216.6 295.575 216.65C295.692 217.45 295.908 218.092 296.225 218.575C296.808 219.458 297.65 219.942 298.75 220.025C299.467 220.042 300.05 219.783 300.5 219.25C300.783 218.883 300.983 218.492 301.1 218.075C301.15 217.908 301.217 217.817 301.3 217.8C301.367 217.783 301.517 217.775 301.75 217.775H302.225L302.3 217.85C302.383 217.933 302.375 218.1 302.275 218.35C302.192 218.65 302.017 219.025 301.75 219.475C300.883 220.725 299.65 221.325 298.05 221.275C297.25 221.225 296.517 221.033 295.85 220.7C294.2 219.85 293.208 218.433 292.875 216.45C292.808 216.05 292.8 215.55 292.85 214.95C292.867 214.9 292.875 214.858 292.875 214.825C293.075 213.258 293.758 211.983 294.925 211C295.742 210.35 296.658 209.958 297.675 209.825ZM308.733 209.85C310.233 209.667 311.592 210.083 312.808 211.1C312.925 211.2 313.033 211.3 313.133 211.4C313.383 211.65 313.533 211.817 313.583 211.9C314.667 213.283 315.075 214.833 314.808 216.55C314.792 216.633 314.775 216.717 314.758 216.8C314.458 218.35 313.633 219.55 312.283 220.4C311.783 220.717 311.242 220.95 310.658 221.1C310.275 221.2 309.842 221.25 309.358 221.25C308.858 221.25 308.417 221.2 308.033 221.1C306.467 220.7 305.292 219.8 304.508 218.4C304.042 217.55 303.808 216.633 303.808 215.65C303.808 214.433 304.133 213.342 304.783 212.375C305.75 210.892 307.067 210.05 308.733 209.85ZM309.758 211C308.825 210.867 308.042 211.1 307.408 211.7C306.908 212.15 306.625 212.908 306.558 213.975C306.542 214.042 306.533 214.117 306.533 214.2C306.467 215.05 306.475 216.05 306.558 217.2C306.625 217.817 306.742 218.283 306.908 218.6C307.258 219.367 307.9 219.825 308.833 219.975C309.15 220.042 309.475 220.05 309.808 220C310.742 219.85 311.4 219.383 311.783 218.6C311.95 218.283 312.067 217.817 312.133 217.2C312.217 216.433 312.225 215.475 312.158 214.325C312.158 214.275 312.158 214.233 312.158 214.2C312.092 213.05 311.825 212.242 311.358 211.775C311.342 211.758 311.317 211.733 311.283 211.7C310.867 211.3 310.358 211.067 309.758 211ZM319.958 209.825C319.992 209.808 320.192 209.8 320.558 209.8C321.225 209.817 321.808 209.942 322.308 210.175L322.608 210.35L323.008 210.075L323.383 209.8H323.608C323.758 209.8 323.858 209.825 323.908 209.875L323.983 209.95V211.55V213.15L323.908 213.225L323.833 213.3H323.358H322.883L322.808 213.225C322.758 213.175 322.733 213.067 322.733 212.9C322.65 211.85 322.108 211.2 321.108 210.95C320.742 210.883 320.283 210.875 319.733 210.925C319.683 210.942 319.642 210.95 319.608 210.95C318.775 211.133 318.333 211.567 318.283 212.25C318.25 212.75 318.483 213.15 318.983 213.45C319.233 213.6 319.758 213.758 320.558 213.925C321.258 214.058 321.642 214.142 321.708 214.175C322.792 214.442 323.6 215.033 324.133 215.95C324.167 216.017 324.2 216.075 324.233 216.125C324.467 216.608 324.592 217.067 324.608 217.5C324.642 218.483 324.4 219.292 323.883 219.925C323.517 220.425 322.975 220.792 322.258 221.025C321.275 221.358 320.3 221.392 319.333 221.125C318.85 220.975 318.458 220.775 318.158 220.525L318.033 220.45L317.583 220.8C317.15 221.117 316.892 221.275 316.808 221.275C316.658 221.275 316.558 221.25 316.508 221.2L316.433 221.125V219.225C316.433 217.875 316.475 217.175 316.558 217.125C316.592 217.108 316.767 217.1 317.083 217.1C317.433 217.1 317.625 217.142 317.658 217.225C317.675 217.258 317.7 217.35 317.733 217.5C318.217 219.45 319.325 220.3 321.058 220.05C321.925 219.95 322.467 219.558 322.683 218.875C322.717 218.775 322.733 218.608 322.733 218.375C322.733 218.142 322.717 217.975 322.683 217.875C322.583 217.542 322.342 217.242 321.958 216.975C321.692 216.792 321.15 216.617 320.333 216.45C319.4 216.283 318.733 216.092 318.333 215.875C317.95 215.692 317.617 215.458 317.333 215.175C317.083 214.925 316.875 214.633 316.708 214.3C316.542 213.95 316.45 213.583 316.433 213.2C316.417 212.7 316.525 212.183 316.758 211.65C316.908 211.35 317.083 211.1 317.283 210.9C317.8 210.333 318.583 209.983 319.633 209.85C319.717 209.833 319.825 209.825 319.958 209.825Z" fill="white"/>
</g>
<defs>
<clipPath id="clip0_123_122">
<rect width="358" height="253" fill="white"/>
</clipPath>
</defs>
</svg>
