<svg width="358" height="253" viewBox="0 0 358 253" fill="none" xmlns="http://www.w3.org/2000/svg">
<g clip-path="url(#clip0_123_122)">
<line x1="178.06" y1="241.939" x2="8.35481" y2="72.2337" stroke="#D55B5B" stroke-width="3"/>
<line x1="345.645" y1="72.2338" x2="175.94" y2="241.939" stroke="#D55B5B" stroke-width="3"/>
<line x1="176.668" y1="240.21" x2="114.551" y2="8.3883" stroke="#D55B5B" stroke-width="3"/>
<line x1="177.551" y1="239.434" x2="239.668" y2="7.61184" stroke="#D55B5B" stroke-width="3"/>
<path d="M229.283 55.7792C229.99 55.3467 230.212 54.4232 229.779 53.7167L222.73 42.2032C222.298 41.4967 221.374 41.2746 220.668 41.7072C219.961 42.1397 219.739 43.0632 220.172 43.7697L226.437 54.0039L216.203 60.2697C215.497 60.7023 215.275 61.6257 215.707 62.3323C216.14 63.0388 217.063 63.2609 217.77 62.8283L229.283 55.7792ZM46.7412 111.342C84.2917 56.0047 149.565 37.0584 228.149 55.9584L228.851 53.0415C149.435 33.9415 82.7083 52.9952 44.2588 109.658L46.7412 111.342Z" fill="#5B9AD5"/>
<path d="M80.4999 144.5C125.821 99.2441 224 94.5 277 142.756" stroke="#5B9AD5" stroke-width="3"/>
</g>
<defs>
<clipPath id="clip0_123_122">
<rect width="358" height="253" fill="white"/>
</clipPath>
</defs>
</svg>
