<svg width="360" height="308" viewBox="0 0 360 308" fill="none" xmlns="http://www.w3.org/2000/svg">
<line x1="28.75" y1="132.701" x2="246.988" y2="258.701" stroke="#5B9AD5" stroke-width="3"/>
<line x1="8" y1="110.5" x2="270" y2="110.5" stroke="#D55B5B" stroke-width="3"/>
<line x1="16.25" y1="187.396" x2="266.869" y2="42.701" stroke="#61D55B" stroke-width="3"/>
<path d="M71.4142 4.58579C70.6332 3.80474 69.3668 3.80474 68.5858 4.58579L55.8579 17.3137C55.0768 18.0948 55.0768 19.3611 55.8579 20.1421C56.6389 20.9232 57.9052 20.9232 58.6863 20.1421L70 8.82843L81.3137 20.1421C82.0948 20.9232 83.3611 20.9232 84.1421 20.1421C84.9232 19.3611 84.9232 18.0948 84.1421 17.3137L71.4142 4.58579ZM68.5858 307.414C69.3668 308.195 70.6332 308.195 71.4142 307.414L84.1421 294.686C84.9232 293.905 84.9232 292.639 84.1421 291.858C83.3611 291.077 82.0947 291.077 81.3137 291.858L70 303.172L58.6863 291.858C57.9052 291.077 56.6389 291.077 55.8579 291.858C55.0768 292.639 55.0768 293.905 55.8579 294.686L68.5858 307.414ZM68 6L68 306L72 306L72 6L68 6Z" fill="white"/>
<path d="M0.585786 154.586C-0.195262 155.367 -0.195262 156.633 0.585786 157.414L13.3137 170.142C14.0948 170.923 15.3611 170.923 16.1421 170.142C16.9232 169.361 16.9232 168.095 16.1421 167.314L4.82843 156L16.1421 144.686C16.9232 143.905 16.9232 142.639 16.1421 141.858C15.3611 141.077 14.0948 141.077 13.3137 141.858L0.585786 154.586ZM303.414 157.414C304.195 156.633 304.195 155.367 303.414 154.586L290.686 141.858C289.905 141.077 288.639 141.077 287.858 141.858C287.077 142.639 287.077 143.905 287.858 144.686L299.172 156L287.858 167.314C287.077 168.095 287.077 169.361 287.858 170.142C288.639 170.923 289.905 170.923 290.686 170.142L303.414 157.414ZM2 158L302 158V154L2 154L2 158Z" fill="white"/>
<path d="M255.214 27V13.878H257.05L257.239 15.768H257.32C257.896 15.138 258.526 14.616 259.21 14.202C259.894 13.77 260.623 13.554 261.397 13.554C262.405 13.554 263.188 13.779 263.746 14.229C264.322 14.661 264.745 15.273 265.015 16.065C265.699 15.327 266.392 14.724 267.094 14.256C267.796 13.788 268.543 13.554 269.335 13.554C270.685 13.554 271.684 13.995 272.332 14.877C272.998 15.741 273.331 17.01 273.331 18.684V27H271.117V18.981C271.117 17.757 270.919 16.866 270.523 16.308C270.127 15.75 269.515 15.471 268.687 15.471C267.715 15.471 266.617 16.146 265.393 17.496V27H263.179V18.981C263.179 17.757 262.981 16.866 262.585 16.308C262.189 15.75 261.568 15.471 260.722 15.471C259.75 15.471 258.652 16.146 257.428 17.496V27H255.214ZM283.005 32.535V13.878H284.841L285.03 15.39H285.111C285.705 14.886 286.353 14.454 287.055 14.094C287.775 13.734 288.522 13.554 289.296 13.554C290.988 13.554 292.275 14.166 293.157 15.39C294.039 16.596 294.48 18.216 294.48 20.25C294.48 21.726 294.21 22.995 293.67 24.057C293.148 25.119 292.455 25.929 291.591 26.487C290.745 27.045 289.818 27.324 288.81 27.324C288.198 27.324 287.586 27.189 286.974 26.919C286.38 26.649 285.777 26.28 285.165 25.812L285.219 28.107V32.535H283.005ZM288.432 25.461C289.512 25.461 290.403 25.002 291.105 24.084C291.825 23.148 292.185 21.87 292.185 20.25C292.185 18.81 291.915 17.649 291.375 16.767C290.853 15.867 289.971 15.417 288.729 15.417C288.171 15.417 287.604 15.57 287.028 15.876C286.47 16.182 285.867 16.623 285.219 17.199V24.084C285.813 24.588 286.389 24.948 286.947 25.164C287.505 25.362 288 25.461 288.432 25.461ZM303.085 27.324C302.023 27.324 301.024 27.054 300.088 26.514C299.17 25.974 298.423 25.191 297.847 24.165C297.289 23.139 297.01 21.906 297.01 20.466C297.01 18.99 297.289 17.739 297.847 16.713C298.423 15.687 299.17 14.904 300.088 14.364C301.024 13.824 302.023 13.554 303.085 13.554C304.165 13.554 305.164 13.824 306.082 14.364C307 14.904 307.738 15.687 308.296 16.713C308.872 17.739 309.16 18.99 309.16 20.466C309.16 21.906 308.872 23.139 308.296 24.165C307.738 25.191 307 25.974 306.082 26.514C305.164 27.054 304.165 27.324 303.085 27.324ZM303.085 25.488C304.219 25.488 305.128 25.029 305.812 24.111C306.514 23.175 306.865 21.96 306.865 20.466C306.865 18.954 306.514 17.73 305.812 16.794C305.128 15.858 304.219 15.39 303.085 15.39C301.969 15.39 301.06 15.858 300.358 16.794C299.656 17.73 299.305 18.954 299.305 20.466C299.305 21.96 299.656 23.175 300.358 24.111C301.06 25.029 301.969 25.488 303.085 25.488ZM316.044 27.324C315.108 27.324 314.217 27.153 313.371 26.811C312.525 26.451 311.787 26.019 311.157 25.515L312.264 24.03C312.84 24.48 313.434 24.858 314.046 25.164C314.658 25.452 315.351 25.596 316.125 25.596C316.989 25.596 317.637 25.398 318.069 25.002C318.501 24.588 318.717 24.102 318.717 23.544C318.717 23.094 318.564 22.716 318.258 22.41C317.97 22.104 317.592 21.852 317.124 21.654C316.674 21.438 316.206 21.24 315.72 21.06C315.108 20.826 314.505 20.565 313.911 20.277C313.317 19.971 312.831 19.584 312.453 19.116C312.075 18.63 311.886 18.018 311.886 17.28C311.886 16.218 312.282 15.336 313.074 14.634C313.884 13.914 315 13.554 316.422 13.554C317.232 13.554 317.988 13.698 318.69 13.986C319.392 14.274 319.995 14.625 320.499 15.039L319.419 16.443C318.969 16.101 318.501 15.822 318.015 15.606C317.529 15.39 316.998 15.282 316.422 15.282C315.594 15.282 314.982 15.471 314.586 15.849C314.208 16.227 314.019 16.668 314.019 17.172C314.019 17.586 314.154 17.928 314.424 18.198C314.694 18.45 315.045 18.675 315.477 18.873C315.909 19.053 316.368 19.242 316.854 19.44C317.484 19.674 318.105 19.944 318.717 20.25C319.329 20.538 319.833 20.934 320.229 21.438C320.643 21.924 320.85 22.581 320.85 23.409C320.85 24.111 320.661 24.759 320.283 25.353C319.923 25.947 319.383 26.424 318.663 26.784C317.961 27.144 317.088 27.324 316.044 27.324ZM323.927 27V13.878H326.141V27H323.927ZM325.061 11.178C324.629 11.178 324.269 11.052 323.981 10.8C323.711 10.53 323.576 10.17 323.576 9.72C323.576 9.288 323.711 8.937 323.981 8.667C324.269 8.397 324.629 8.262 325.061 8.262C325.493 8.262 325.844 8.397 326.114 8.667C326.402 8.937 326.546 9.288 326.546 9.72C326.546 10.17 326.402 10.53 326.114 10.8C325.844 11.052 325.493 11.178 325.061 11.178ZM334.702 27.324C333.298 27.324 332.317 26.919 331.759 26.109C331.219 25.299 330.949 24.246 330.949 22.95V15.687H329.005V14.013L331.057 13.878L331.327 10.206H333.19V13.878H336.727V15.687H333.19V22.977C333.19 23.787 333.334 24.417 333.622 24.867C333.928 25.299 334.459 25.515 335.215 25.515C335.449 25.515 335.701 25.479 335.971 25.407C336.241 25.317 336.484 25.236 336.7 25.164L337.132 26.838C336.772 26.964 336.376 27.072 335.944 27.162C335.53 27.27 335.116 27.324 334.702 27.324ZM339.694 27V13.878H341.908V27H339.694ZM340.828 11.178C340.396 11.178 340.036 11.052 339.748 10.8C339.478 10.53 339.343 10.17 339.343 9.72C339.343 9.288 339.478 8.937 339.748 8.667C340.036 8.397 340.396 8.262 340.828 8.262C341.26 8.262 341.611 8.397 341.881 8.667C342.169 8.937 342.313 9.288 342.313 9.72C342.313 10.17 342.169 10.53 341.881 10.8C341.611 11.052 341.26 11.178 340.828 11.178ZM346.717 27V15.687H344.935V14.013L346.717 13.878V11.799C346.717 10.467 347.023 9.414 347.635 8.64C348.265 7.848 349.237 7.452 350.551 7.452C350.965 7.452 351.361 7.497 351.739 7.587C352.117 7.659 352.45 7.758 352.738 7.884L352.252 9.585C351.766 9.369 351.271 9.261 350.767 9.261C349.543 9.261 348.931 10.107 348.931 11.799V13.878H351.712V15.687H348.931V27H346.717Z" fill="white"/>
<path d="M255.214 273V259.878H257.05L257.239 261.768H257.32C257.896 261.138 258.526 260.616 259.21 260.202C259.894 259.77 260.623 259.554 261.397 259.554C262.405 259.554 263.188 259.779 263.746 260.229C264.322 260.661 264.745 261.273 265.015 262.065C265.699 261.327 266.392 260.724 267.094 260.256C267.796 259.788 268.543 259.554 269.335 259.554C270.685 259.554 271.684 259.995 272.332 260.877C272.998 261.741 273.331 263.01 273.331 264.684V273H271.117V264.981C271.117 263.757 270.919 262.866 270.523 262.308C270.127 261.75 269.515 261.471 268.687 261.471C267.715 261.471 266.617 262.146 265.393 263.496V273H263.179V264.981C263.179 263.757 262.981 262.866 262.585 262.308C262.189 261.75 261.568 261.471 260.722 261.471C259.75 261.471 258.652 262.146 257.428 263.496V273H255.214ZM283.005 273V259.878H284.841L285.03 261.768H285.111C285.741 261.138 286.407 260.616 287.109 260.202C287.811 259.77 288.612 259.554 289.512 259.554C290.898 259.554 291.906 259.995 292.536 260.877C293.184 261.741 293.508 263.01 293.508 264.684V273H291.294V264.981C291.294 263.757 291.096 262.866 290.7 262.308C290.304 261.75 289.674 261.471 288.81 261.471C288.144 261.471 287.541 261.642 287.001 261.984C286.479 262.326 285.885 262.83 285.219 263.496V273H283.005ZM303.09 273.324C301.92 273.324 300.858 273.054 299.904 272.514C298.95 271.956 298.194 271.164 297.636 270.138C297.078 269.112 296.799 267.888 296.799 266.466C296.799 265.026 297.078 263.793 297.636 262.767C298.212 261.741 298.95 260.949 299.85 260.391C300.75 259.833 301.695 259.554 302.685 259.554C304.359 259.554 305.646 260.112 306.546 261.228C307.464 262.344 307.923 263.838 307.923 265.71C307.923 265.944 307.914 266.178 307.896 266.412C307.896 266.628 307.878 266.817 307.842 266.979H298.986C299.076 268.365 299.508 269.472 300.282 270.3C301.074 271.128 302.1 271.542 303.36 271.542C303.99 271.542 304.566 271.452 305.088 271.272C305.628 271.074 306.141 270.822 306.627 270.516L307.41 271.974C306.852 272.334 306.213 272.649 305.493 272.919C304.791 273.189 303.99 273.324 303.09 273.324ZM298.959 265.386H305.979C305.979 264.054 305.691 263.046 305.115 262.362C304.557 261.66 303.765 261.309 302.739 261.309C301.821 261.309 300.993 261.669 300.255 262.389C299.535 263.091 299.103 264.09 298.959 265.386ZM315.33 279.048C313.728 279.048 312.423 278.742 311.415 278.13C310.407 277.518 309.903 276.645 309.903 275.511C309.903 274.953 310.074 274.413 310.416 273.891C310.758 273.387 311.226 272.937 311.82 272.541V272.433C311.496 272.235 311.217 271.956 310.983 271.596C310.767 271.236 310.659 270.804 310.659 270.3C310.659 269.742 310.812 269.256 311.118 268.842C311.424 268.428 311.748 268.104 312.09 267.87V267.762C311.658 267.402 311.262 266.916 310.902 266.304C310.56 265.692 310.389 264.999 310.389 264.225C310.389 263.271 310.614 262.443 311.064 261.741C311.514 261.039 312.117 260.499 312.873 260.121C313.629 259.743 314.448 259.554 315.33 259.554C315.69 259.554 316.032 259.59 316.356 259.662C316.68 259.716 316.959 259.788 317.193 259.878H321.756V261.579H319.056C319.362 261.867 319.614 262.254 319.812 262.74C320.028 263.208 320.136 263.721 320.136 264.279C320.136 265.215 319.92 266.025 319.488 266.709C319.056 267.393 318.48 267.924 317.76 268.302C317.04 268.662 316.23 268.842 315.33 268.842C314.628 268.842 313.971 268.689 313.359 268.383C313.125 268.581 312.927 268.806 312.765 269.058C312.603 269.292 312.522 269.589 312.522 269.949C312.522 270.363 312.684 270.705 313.008 270.975C313.35 271.245 313.962 271.38 314.844 271.38H317.382C318.912 271.38 320.055 271.632 320.811 272.136C321.585 272.622 321.972 273.414 321.972 274.512C321.972 275.322 321.702 276.069 321.162 276.753C320.622 277.437 319.857 277.986 318.867 278.4C317.877 278.832 316.698 279.048 315.33 279.048ZM315.33 267.357C316.086 267.357 316.734 267.078 317.274 266.52C317.832 265.944 318.111 265.179 318.111 264.225C318.111 263.271 317.841 262.524 317.301 261.984C316.761 261.444 316.104 261.174 315.33 261.174C314.556 261.174 313.899 261.444 313.359 261.984C312.819 262.524 312.549 263.271 312.549 264.225C312.549 265.179 312.819 265.944 313.359 266.52C313.917 267.078 314.574 267.357 315.33 267.357ZM315.654 277.509C316.914 277.509 317.922 277.23 318.678 276.672C319.434 276.132 319.812 275.52 319.812 274.836C319.812 274.224 319.578 273.801 319.11 273.567C318.66 273.333 318.012 273.216 317.166 273.216H314.898C314.646 273.216 314.367 273.198 314.061 273.162C313.773 273.126 313.485 273.072 313.197 273C312.729 273.342 312.387 273.702 312.171 274.08C311.955 274.458 311.847 274.836 311.847 275.214C311.847 275.916 312.18 276.474 312.846 276.888C313.53 277.302 314.466 277.509 315.654 277.509ZM327.109 273.324C326.011 273.324 325.093 273 324.355 272.352C323.635 271.686 323.275 270.768 323.275 269.598C323.275 268.158 323.914 267.06 325.192 266.304C326.488 265.53 328.531 264.99 331.321 264.684C331.321 264.126 331.24 263.595 331.078 263.091C330.934 262.587 330.664 262.182 330.268 261.876C329.89 261.552 329.341 261.39 328.621 261.39C327.865 261.39 327.154 261.534 326.488 261.822C325.822 262.11 325.228 262.434 324.706 262.794L323.842 261.255C324.454 260.859 325.201 260.481 326.083 260.121C326.983 259.743 327.955 259.554 328.999 259.554C330.601 259.554 331.762 260.049 332.482 261.039C333.202 262.011 333.562 263.316 333.562 264.954V273H331.726L331.537 271.434H331.456C330.844 271.938 330.169 272.379 329.431 272.757C328.711 273.135 327.937 273.324 327.109 273.324ZM327.757 271.542C328.387 271.542 328.981 271.389 329.539 271.083C330.097 270.777 330.691 270.345 331.321 269.787V266.142C329.143 266.412 327.613 266.817 326.731 267.357C325.867 267.897 325.435 268.59 325.435 269.436C325.435 270.174 325.66 270.714 326.11 271.056C326.56 271.38 327.109 271.542 327.757 271.542ZM341.452 273.324C340.048 273.324 339.067 272.919 338.509 272.109C337.969 271.299 337.699 270.246 337.699 268.95V261.687H335.755V260.013L337.807 259.878L338.077 256.206H339.94V259.878H343.477V261.687H339.94V268.977C339.94 269.787 340.084 270.417 340.372 270.867C340.678 271.299 341.209 271.515 341.965 271.515C342.199 271.515 342.451 271.479 342.721 271.407C342.991 271.317 343.234 271.236 343.45 271.164L343.882 272.838C343.522 272.964 343.126 273.072 342.694 273.162C342.28 273.27 341.866 273.324 341.452 273.324ZM346.444 273V259.878H348.658V273H346.444ZM347.578 257.178C347.146 257.178 346.786 257.052 346.498 256.8C346.228 256.53 346.093 256.17 346.093 255.72C346.093 255.288 346.228 254.937 346.498 254.667C346.786 254.397 347.146 254.262 347.578 254.262C348.01 254.262 348.361 254.397 348.631 254.667C348.919 254.937 349.063 255.288 349.063 255.72C349.063 256.17 348.919 256.53 348.631 256.8C348.361 257.052 348.01 257.178 347.578 257.178ZM353.467 273V261.687H351.685V260.013L353.467 259.878V257.799C353.467 256.467 353.773 255.414 354.385 254.64C355.015 253.848 355.987 253.452 357.301 253.452C357.715 253.452 358.111 253.497 358.489 253.587C358.867 253.659 359.2 253.758 359.488 253.884L359.002 255.585C358.516 255.369 358.021 255.261 357.517 255.261C356.293 255.261 355.681 256.107 355.681 257.799V259.878H358.462V261.687H355.681V273H353.467Z" fill="white"/>
<path d="M287.214 105V91.878H289.05L289.239 93.768H289.32C289.896 93.138 290.526 92.616 291.21 92.202C291.894 91.77 292.623 91.554 293.397 91.554C294.405 91.554 295.188 91.779 295.746 92.229C296.322 92.661 296.745 93.273 297.015 94.065C297.699 93.327 298.392 92.724 299.094 92.256C299.796 91.788 300.543 91.554 301.335 91.554C302.685 91.554 303.684 91.995 304.332 92.877C304.998 93.741 305.331 95.01 305.331 96.684V105H303.117V96.981C303.117 95.757 302.919 94.866 302.523 94.308C302.127 93.75 301.515 93.471 300.687 93.471C299.715 93.471 298.617 94.146 297.393 95.496V105H295.179V96.981C295.179 95.757 294.981 94.866 294.585 94.308C294.189 93.75 293.568 93.471 292.722 93.471C291.75 93.471 290.652 94.146 289.428 95.496V105H287.214ZM308.304 94.038V92.364H319.887V94.038H308.304ZM308.304 99.816V98.142H319.887V99.816H308.304ZM327.53 105.324C325.802 105.324 324.443 104.55 323.453 103.002C322.481 101.436 321.995 99.213 321.995 96.333C321.995 93.435 322.481 91.23 323.453 89.718C324.443 88.206 325.802 87.45 327.53 87.45C329.24 87.45 330.581 88.206 331.553 89.718C332.543 91.23 333.038 93.435 333.038 96.333C333.038 99.213 332.543 101.436 331.553 103.002C330.581 104.55 329.24 105.324 327.53 105.324ZM327.53 103.542C328.538 103.542 329.348 102.975 329.96 101.841C330.572 100.689 330.878 98.853 330.878 96.333C330.878 93.813 330.572 92.004 329.96 90.906C329.348 89.79 328.538 89.232 327.53 89.232C326.522 89.232 325.703 89.79 325.073 90.906C324.461 92.004 324.155 93.813 324.155 96.333C324.155 98.853 324.461 100.689 325.073 101.841C325.703 102.975 326.522 103.542 327.53 103.542Z" fill="white"/>
<path d="M279.778 57.752C278.662 55.934 277.789 54.035 277.159 52.055C276.529 50.057 276.214 47.87 276.214 45.494C276.214 43.118 276.529 40.931 277.159 38.933C277.789 36.935 278.662 35.036 279.778 33.236L281.155 33.884C280.111 35.594 279.328 37.448 278.806 39.446C278.302 41.426 278.05 43.442 278.05 45.494C278.05 47.546 278.302 49.571 278.806 51.569C279.328 53.549 280.111 55.394 281.155 57.104L279.778 57.752ZM284.388 53V39.878H286.224L286.413 41.768H286.494C287.124 41.138 287.79 40.616 288.492 40.202C289.194 39.77 289.995 39.554 290.895 39.554C292.281 39.554 293.289 39.995 293.919 40.877C294.567 41.741 294.891 43.01 294.891 44.684V53H292.677V44.981C292.677 43.757 292.479 42.866 292.083 42.308C291.687 41.75 291.057 41.471 290.193 41.471C289.527 41.471 288.924 41.642 288.384 41.984C287.862 42.326 287.268 42.83 286.602 43.496V53H284.388ZM302.177 53.324C301.079 53.324 300.161 53 299.423 52.352C298.703 51.686 298.343 50.768 298.343 49.598C298.343 48.158 298.982 47.06 300.26 46.304C301.556 45.53 303.599 44.99 306.389 44.684C306.389 44.126 306.308 43.595 306.146 43.091C306.002 42.587 305.732 42.182 305.336 41.876C304.958 41.552 304.409 41.39 303.689 41.39C302.933 41.39 302.222 41.534 301.556 41.822C300.89 42.11 300.296 42.434 299.774 42.794L298.91 41.255C299.522 40.859 300.269 40.481 301.151 40.121C302.051 39.743 303.023 39.554 304.067 39.554C305.669 39.554 306.83 40.049 307.55 41.039C308.27 42.011 308.63 43.316 308.63 44.954V53H306.794L306.605 51.434H306.524C305.912 51.938 305.237 52.379 304.499 52.757C303.779 53.135 303.005 53.324 302.177 53.324ZM302.825 51.542C303.455 51.542 304.049 51.389 304.607 51.083C305.165 50.777 305.759 50.345 306.389 49.787V46.142C304.211 46.412 302.681 46.817 301.799 47.357C300.935 47.897 300.503 48.59 300.503 49.436C300.503 50.174 300.728 50.714 301.178 51.056C301.628 51.38 302.177 51.542 302.825 51.542ZM312.759 53V39.878H314.973V53H312.759ZM313.893 37.178C313.461 37.178 313.101 37.052 312.813 36.8C312.543 36.53 312.408 36.17 312.408 35.72C312.408 35.288 312.543 34.937 312.813 34.667C313.101 34.397 313.461 34.262 313.893 34.262C314.325 34.262 314.676 34.397 314.946 34.667C315.234 34.937 315.378 35.288 315.378 35.72C315.378 36.17 315.234 36.53 314.946 36.8C314.676 37.052 314.325 37.178 313.893 37.178ZM319.403 53V33.776H321.59V46.79H321.671L327.26 39.878H329.717L325.316 45.143L330.311 53H327.881L324.047 46.682L321.59 49.544V53H319.403ZM332.961 57.752L331.584 57.104C332.628 55.394 333.402 53.549 333.906 51.569C334.428 49.571 334.689 47.546 334.689 45.494C334.689 43.442 334.428 41.426 333.906 39.446C333.402 37.448 332.628 35.594 331.584 33.884L332.961 33.236C334.077 35.036 334.95 36.935 335.58 38.933C336.21 40.931 336.525 43.118 336.525 45.494C336.525 47.87 336.21 50.057 335.58 52.055C334.95 54.035 334.077 55.934 332.961 57.752Z" fill="white"/>
<path d="M279.778 303.752C278.662 301.934 277.789 300.035 277.159 298.055C276.529 296.057 276.214 293.87 276.214 291.494C276.214 289.118 276.529 286.931 277.159 284.933C277.789 282.935 278.662 281.036 279.778 279.236L281.155 279.884C280.111 281.594 279.328 283.448 278.806 285.446C278.302 287.426 278.05 289.442 278.05 291.494C278.05 293.546 278.302 295.571 278.806 297.569C279.328 299.549 280.111 301.394 281.155 303.104L279.778 303.752ZM288.519 299.324C287.115 299.324 286.134 298.919 285.576 298.109C285.036 297.299 284.766 296.246 284.766 294.95V287.687H282.822V286.013L284.874 285.878L285.144 282.206H287.007V285.878H290.544V287.687H287.007V294.977C287.007 295.787 287.151 296.417 287.439 296.867C287.745 297.299 288.276 297.515 289.032 297.515C289.266 297.515 289.518 297.479 289.788 297.407C290.058 297.317 290.301 297.236 290.517 297.164L290.949 298.838C290.589 298.964 290.193 299.072 289.761 299.162C289.347 299.27 288.933 299.324 288.519 299.324ZM297.345 299.324C295.959 299.324 294.942 298.892 294.294 298.028C293.646 297.146 293.322 295.868 293.322 294.194V285.878H295.563V293.897C295.563 295.121 295.752 296.012 296.13 296.57C296.526 297.128 297.156 297.407 298.02 297.407C298.704 297.407 299.307 297.236 299.829 296.894C300.369 296.534 300.945 295.967 301.557 295.193V285.878H303.771V299H301.935L301.746 296.948H301.665C301.053 297.668 300.405 298.244 299.721 298.676C299.037 299.108 298.245 299.324 297.345 299.324ZM308.197 299V285.878H310.033L310.222 288.254H310.303C310.753 287.426 311.302 286.769 311.95 286.283C312.598 285.797 313.291 285.554 314.029 285.554C314.551 285.554 315.019 285.644 315.433 285.824L315.001 287.768C314.785 287.696 314.587 287.642 314.407 287.606C314.227 287.57 314.002 287.552 313.732 287.552C313.174 287.552 312.589 287.777 311.977 288.227C311.383 288.677 310.861 289.46 310.411 290.576V299H308.197ZM321.392 299.324C320.006 299.324 318.989 298.892 318.341 298.028C317.693 297.146 317.369 295.868 317.369 294.194V285.878H319.61V293.897C319.61 295.121 319.799 296.012 320.177 296.57C320.573 297.128 321.203 297.407 322.067 297.407C322.751 297.407 323.354 297.236 323.876 296.894C324.416 296.534 324.992 295.967 325.604 295.193V285.878H327.818V299H325.982L325.793 296.948H325.712C325.1 297.668 324.452 298.244 323.768 298.676C323.084 299.108 322.292 299.324 321.392 299.324ZM332.244 299V285.878H334.08L334.269 287.768H334.35C334.98 287.138 335.646 286.616 336.348 286.202C337.05 285.77 337.851 285.554 338.751 285.554C340.137 285.554 341.145 285.995 341.775 286.877C342.423 287.741 342.747 289.01 342.747 290.684V299H340.533V290.981C340.533 289.757 340.335 288.866 339.939 288.308C339.543 287.75 338.913 287.471 338.049 287.471C337.383 287.471 336.78 287.642 336.24 287.984C335.718 288.326 335.124 288.83 334.458 289.496V299H332.244ZM347.199 303.752L345.822 303.104C346.866 301.394 347.64 299.549 348.144 297.569C348.666 295.571 348.927 293.546 348.927 291.494C348.927 289.442 348.666 287.426 348.144 285.446C347.64 283.448 346.866 281.594 345.822 279.884L347.199 279.236C348.315 281.036 349.188 282.935 349.818 284.933C350.448 286.931 350.763 289.118 350.763 291.494C350.763 293.87 350.448 296.057 349.818 298.055C349.188 300.035 348.315 301.934 347.199 303.752Z" fill="white"/>
<path d="M277.778 132.752C276.662 130.934 275.789 129.035 275.159 127.055C274.529 125.057 274.214 122.87 274.214 120.494C274.214 118.118 274.529 115.931 275.159 113.933C275.789 111.935 276.662 110.036 277.778 108.236L279.155 108.884C278.111 110.594 277.328 112.448 276.806 114.446C276.302 116.426 276.05 118.442 276.05 120.494C276.05 122.546 276.302 124.571 276.806 126.569C277.328 128.549 278.111 130.394 279.155 132.104L277.778 132.752ZM286.87 128.324C285.232 128.324 283.918 127.73 282.928 126.542C281.938 125.336 281.443 123.644 281.443 121.466C281.443 120.044 281.704 118.82 282.226 117.794C282.766 116.75 283.468 115.949 284.332 115.391C285.214 114.833 286.15 114.554 287.14 114.554C287.896 114.554 288.553 114.689 289.111 114.959C289.669 115.229 290.236 115.598 290.812 116.066L290.704 113.825V108.776H292.945V128H291.109L290.92 126.461H290.839C290.335 126.965 289.741 127.406 289.057 127.784C288.373 128.144 287.644 128.324 286.87 128.324ZM287.356 126.461C288.508 126.461 289.624 125.858 290.704 124.652V117.794C290.146 117.29 289.606 116.939 289.084 116.741C288.58 116.525 288.058 116.417 287.518 116.417C286.816 116.417 286.177 116.633 285.601 117.065C285.043 117.479 284.593 118.064 284.251 118.82C283.909 119.558 283.738 120.431 283.738 121.439C283.738 123.005 284.053 124.238 284.683 125.138C285.313 126.02 286.204 126.461 287.356 126.461ZM300.388 128.324C299.29 128.324 298.372 128 297.634 127.352C296.914 126.686 296.554 125.768 296.554 124.598C296.554 123.158 297.193 122.06 298.471 121.304C299.767 120.53 301.81 119.99 304.6 119.684C304.6 119.126 304.519 118.595 304.357 118.091C304.213 117.587 303.943 117.182 303.547 116.876C303.169 116.552 302.62 116.39 301.9 116.39C301.144 116.39 300.433 116.534 299.767 116.822C299.101 117.11 298.507 117.434 297.985 117.794L297.121 116.255C297.733 115.859 298.48 115.481 299.362 115.121C300.262 114.743 301.234 114.554 302.278 114.554C303.88 114.554 305.041 115.049 305.761 116.039C306.481 117.011 306.841 118.316 306.841 119.954V128H305.005L304.816 126.434H304.735C304.123 126.938 303.448 127.379 302.71 127.757C301.99 128.135 301.216 128.324 300.388 128.324ZM301.036 126.542C301.666 126.542 302.26 126.389 302.818 126.083C303.376 125.777 303.97 125.345 304.6 124.787V121.142C302.422 121.412 300.892 121.817 300.01 122.357C299.146 122.897 298.714 123.59 298.714 124.436C298.714 125.174 298.939 125.714 299.389 126.056C299.839 126.38 300.388 126.542 301.036 126.542ZM314.732 128.324C313.328 128.324 312.347 127.919 311.789 127.109C311.249 126.299 310.979 125.246 310.979 123.95V116.687H309.035V115.013L311.087 114.878L311.357 111.206H313.22V114.878H316.757V116.687H313.22V123.977C313.22 124.787 313.364 125.417 313.652 125.867C313.958 126.299 314.489 126.515 315.245 126.515C315.479 126.515 315.731 126.479 316.001 126.407C316.271 126.317 316.514 126.236 316.73 126.164L317.162 127.838C316.802 127.964 316.406 128.072 315.974 128.162C315.56 128.27 315.146 128.324 314.732 128.324ZM322.168 128.324C321.07 128.324 320.152 128 319.414 127.352C318.694 126.686 318.334 125.768 318.334 124.598C318.334 123.158 318.973 122.06 320.251 121.304C321.547 120.53 323.59 119.99 326.38 119.684C326.38 119.126 326.299 118.595 326.137 118.091C325.993 117.587 325.723 117.182 325.327 116.876C324.949 116.552 324.4 116.39 323.68 116.39C322.924 116.39 322.213 116.534 321.547 116.822C320.881 117.11 320.287 117.434 319.765 117.794L318.901 116.255C319.513 115.859 320.26 115.481 321.142 115.121C322.042 114.743 323.014 114.554 324.058 114.554C325.66 114.554 326.821 115.049 327.541 116.039C328.261 117.011 328.621 118.316 328.621 119.954V128H326.785L326.596 126.434H326.515C325.903 126.938 325.228 127.379 324.49 127.757C323.77 128.135 322.996 128.324 322.168 128.324ZM322.816 126.542C323.446 126.542 324.04 126.389 324.598 126.083C325.156 125.777 325.75 125.345 326.38 124.787V121.142C324.202 121.412 322.672 121.817 321.79 122.357C320.926 122.897 320.494 123.59 320.494 124.436C320.494 125.174 320.719 125.714 321.169 126.056C321.619 126.38 322.168 126.542 322.816 126.542ZM332.749 128V114.878H334.585L334.774 117.254H334.855C335.305 116.426 335.854 115.769 336.502 115.283C337.15 114.797 337.843 114.554 338.581 114.554C339.103 114.554 339.571 114.644 339.985 114.824L339.553 116.768C339.337 116.696 339.139 116.642 338.959 116.606C338.779 116.57 338.554 116.552 338.284 116.552C337.726 116.552 337.141 116.777 336.529 117.227C335.935 117.677 335.413 118.46 334.963 119.576V128H332.749ZM342.299 132.752L340.922 132.104C341.966 130.394 342.74 128.549 343.244 126.569C343.766 124.571 344.027 122.546 344.027 120.494C344.027 118.442 343.766 116.426 343.244 114.446C342.74 112.448 341.966 110.594 340.922 108.884L342.299 108.236C343.415 110.036 344.288 111.935 344.918 113.933C345.548 115.931 345.863 118.118 345.863 120.494C345.863 122.87 345.548 125.057 344.918 127.055C344.288 129.035 343.415 130.934 342.299 132.752Z" fill="white"/>
</svg>
