<svg width="231" height="213" viewBox="0 0 231 213" fill="none" xmlns="http://www.w3.org/2000/svg">
<path d="M200.059 164.061C200.645 163.475 200.645 162.525 200.059 161.939L190.513 152.393C189.927 151.808 188.978 151.808 188.392 152.393C187.806 152.979 187.806 153.929 188.392 154.515L196.877 163L188.392 171.485C187.806 172.071 187.806 173.021 188.392 173.607C188.978 174.192 189.927 174.192 190.513 173.607L200.059 164.061ZM28.9985 164.5H198.999V161.5H28.9985V164.5Z" fill="#5B9AD5"/>
<path d="M115.449 15.6118C115.234 14.8116 114.412 14.3367 113.612 14.5512L100.572 18.0452C99.7716 18.2596 99.2967 19.0821 99.5111 19.8823C99.7255 20.6825 100.548 21.1574 101.348 20.943L112.939 17.8372L116.045 29.4283C116.26 30.2285 117.082 30.7034 117.882 30.4889C118.682 30.2745 119.157 29.452 118.943 28.6518L115.449 15.6118ZM30.299 163.974L115.299 16.7501L112.701 15.2501L27.701 162.474L30.299 163.974Z" fill="#D55B5B"/>
<path d="M115.388 14.5512C114.588 14.3367 113.766 14.8116 113.551 15.6118L110.057 28.6518C109.843 29.452 110.318 30.2745 111.118 30.4889C111.918 30.7034 112.74 30.2285 112.955 29.4283L116.061 17.8372L127.652 20.943C128.452 21.1574 129.274 20.6825 129.489 19.8823C129.703 19.0821 129.228 18.2596 128.428 18.0452L115.388 14.5512ZM201.299 162.474L116.299 15.2501L113.701 16.7501L198.701 163.974L201.299 162.474Z" fill="#5B9AD5"/>
<path d="M174.791 69.7222V69H166V69.7222H174.791Z" fill="white" stroke="white"/>
<path d="M170.971 73.5047C170.996 73.405 171.046 73.2556 171.046 73.1311C171.046 72.8821 170.797 72.8821 170.747 72.8821C170.722 72.8821 169.826 72.9568 169.377 73.0066C168.954 73.0315 168.581 73.0813 168.132 73.1062C167.535 73.156 167.36 73.1809 167.36 73.6292C167.36 73.8782 167.609 73.8782 167.858 73.8782C169.128 73.8782 169.128 74.1023 169.128 74.3514C169.128 74.5257 168.929 75.2478 168.83 75.6961L168.232 78.0868C167.983 79.0829 166.563 84.7358 166.464 85.1841C166.339 85.8066 166.339 86.23 166.339 86.5537C166.339 89.0938 167.759 90.4136 169.377 90.4136C172.266 90.4136 175.255 86.7031 175.255 83.0922C175.255 80.8012 173.96 79.1825 172.092 79.1825C170.797 79.1825 169.627 80.2533 169.153 80.7514L170.971 73.5047ZM169.402 89.9156C168.605 89.9156 167.734 89.3179 167.734 87.3755C167.734 86.5537 167.809 86.0805 168.257 84.3373C168.332 84.0136 168.73 82.4198 168.83 82.0961C168.879 81.8969 170.349 79.6805 172.042 79.6805C173.138 79.6805 173.636 80.7763 173.636 82.0712C173.636 83.2665 172.939 86.0805 172.316 87.3755C171.693 88.7202 170.548 89.9156 169.402 89.9156Z" fill="white" stroke="white"/>
<path d="M117.896 169.73V169H109.012V169.73H117.896Z" fill="white" stroke="white"/>
<path d="M114.569 180.753C114.443 181.181 114.443 181.231 114.091 181.71C113.537 182.414 112.43 183.497 111.247 183.497C110.215 183.497 109.636 182.565 109.636 181.08C109.636 179.696 110.416 176.877 110.894 175.82C111.75 174.059 112.933 173.153 113.914 173.153C115.575 173.153 115.903 175.216 115.903 175.418C115.903 175.443 115.827 175.77 115.802 175.82L114.569 180.753ZM116.18 174.31C115.903 173.656 115.223 172.649 113.914 172.649C111.07 172.649 108 176.324 108 180.049C108 182.54 109.46 184 111.171 184C112.555 184 113.738 182.918 114.443 182.087C114.695 183.572 115.877 184 116.633 184C117.388 184 117.992 183.547 118.445 182.641C118.847 181.785 119.2 180.25 119.2 180.149C119.2 180.023 119.099 179.923 118.948 179.923C118.721 179.923 118.696 180.049 118.596 180.426C118.218 181.911 117.74 183.497 116.708 183.497C115.978 183.497 115.928 182.842 115.928 182.339C115.928 181.76 116.003 181.483 116.23 180.502C116.406 179.872 116.532 179.319 116.733 178.589C117.664 174.814 117.891 173.908 117.891 173.757C117.891 173.404 117.614 173.127 117.237 173.127C116.431 173.127 116.23 174.008 116.18 174.31Z" fill="white" stroke="white"/>
<path d="M23.2677 73.6477V72.8905H14.0503V73.6477H23.2677Z" fill="white" stroke="white"/>
<path d="M19.8152 85.0846C19.6846 85.5285 19.6846 85.5807 19.319 86.0768C18.7446 86.808 17.5957 87.9308 16.3684 87.9308C15.2978 87.9308 14.6973 86.9646 14.6973 85.424C14.6973 83.9879 15.5067 81.0634 16.0028 79.9667C16.8906 78.1389 18.1179 77.1989 19.1362 77.1989C20.8596 77.1989 21.1991 79.34 21.1991 79.5489C21.1991 79.575 21.1207 79.9145 21.0946 79.9667L19.8152 85.0846ZM21.4863 78.4C21.1991 77.7211 20.4941 76.6766 19.1362 76.6766C16.1856 76.6766 13 80.489 13 84.3535C13 86.9385 14.5145 88.453 16.2901 88.453C17.7262 88.453 18.9535 87.3302 19.6846 86.4685C19.9457 88.0091 21.1729 88.453 21.9563 88.453C22.7397 88.453 23.3663 87.983 23.8363 87.043C24.2541 86.1552 24.6197 84.5624 24.6197 84.4579C24.6197 84.3274 24.5153 84.2229 24.3586 84.2229C24.1236 84.2229 24.0975 84.3535 23.993 84.7452C23.6013 86.2857 23.1052 87.9308 22.0346 87.9308C21.2774 87.9308 21.2252 87.2519 21.2252 86.7296C21.2252 86.1291 21.3035 85.8418 21.5385 84.8235C21.7213 84.1707 21.8519 83.5962 22.0608 82.839C23.0269 78.9223 23.2619 77.9822 23.2619 77.8256C23.2619 77.46 22.9747 77.1728 22.583 77.1728C21.7474 77.1728 21.5385 78.0867 21.4863 78.4Z" fill="white" stroke="white"/>
<path d="M41.5964 82.1602H48.8032C49.1688 82.1602 49.6388 82.1602 49.6388 81.6901C49.6388 81.194 49.1949 81.194 48.8032 81.194H41.5964V73.9872C41.5964 73.6216 41.5964 73.1516 41.1264 73.1516C40.6303 73.1516 40.6303 73.5955 40.6303 73.9872V81.194H33.4235C33.0579 81.194 32.5879 81.194 32.5879 81.664C32.5879 82.1602 33.0318 82.1602 33.4235 82.1602H40.6303V89.367C40.6303 89.7325 40.6303 90.2025 41.1003 90.2025C41.5964 90.2025 41.5964 89.7586 41.5964 89.367V82.1602Z" fill="white" stroke="white"/>
<path d="M66.8302 66.7572V66H57.6128V66.7572H66.8302Z" fill="white" stroke="white"/>
<path d="M62.8255 70.7232C62.8516 70.6188 62.9039 70.4621 62.9039 70.3316C62.9039 70.0704 62.6427 70.0704 62.5905 70.0704C62.5644 70.0704 61.6244 70.1488 61.1544 70.201C60.7105 70.2271 60.3188 70.2793 59.8488 70.3054C59.2221 70.3577 59.0393 70.3838 59.0393 70.8538C59.0393 71.1149 59.3005 71.1149 59.5616 71.1149C60.8933 71.1149 60.8933 71.3499 60.8933 71.611C60.8933 71.7938 60.6844 72.551 60.5799 73.0211L59.9532 75.5278C59.6921 76.5722 58.2038 82.4996 58.0993 82.9696C57.9687 83.6224 57.9688 84.0663 57.9688 84.4058C57.9688 87.0691 59.4571 88.4531 61.1544 88.4531C64.1833 88.4531 67.3167 84.5624 67.3167 80.7762C67.3167 78.374 65.9589 76.6767 64.0006 76.6767C62.6427 76.6767 61.4155 77.7995 60.9194 78.3217L62.8255 70.7232ZM61.1805 87.9308C60.3449 87.9308 59.431 87.3041 59.431 85.2674C59.431 84.4058 59.5093 83.9096 59.9793 82.0818C60.0577 81.7424 60.4755 80.0712 60.5799 79.7318C60.6321 79.5229 62.1727 77.1989 63.9483 77.1989C65.0972 77.1989 65.6195 78.3478 65.6195 79.7056C65.6195 80.959 64.8883 83.9096 64.2355 85.2674C63.5828 86.6775 62.3816 87.9308 61.1805 87.9308Z" fill="white" stroke="white"/>
</svg>
