<svg width="358" height="253" viewBox="0 0 358 253" fill="none" xmlns="http://www.w3.org/2000/svg">
<g clip-path="url(#clip0_120_89)">
<line x1="178.061" y1="241.939" x2="8.35505" y2="72.2337" stroke="#D55B5B" stroke-width="3"/>
<line x1="345.645" y1="72.2338" x2="175.939" y2="241.939" stroke="#D55B5B" stroke-width="3"/>
<line x1="176.668" y1="240.21" x2="114.551" y2="8.3883" stroke="#D55B5B" stroke-width="3"/>
<line x1="177.551" y1="239.434" x2="239.668" y2="7.61184" stroke="#D55B5B" stroke-width="3"/>
<path d="M229.283 55.7792C229.99 55.3467 230.212 54.4232 229.779 53.7167L222.73 42.2032C222.298 41.4967 221.374 41.2746 220.668 41.7072C219.961 42.1397 219.739 43.0632 220.172 43.7697L226.437 54.0039L216.203 60.2697C215.497 60.7023 215.275 61.6257 215.707 62.3323C216.14 63.0388 217.063 63.2609 217.77 62.8283L229.283 55.7792ZM46.7412 111.342C84.2917 56.0047 149.565 37.0584 228.149 55.9584L228.851 53.0415C149.435 33.9415 82.7083 52.9952 44.2588 109.658L46.7412 111.342Z" fill="#5B9AD5"/>
<path d="M44.35 207.825C44.3833 207.808 44.5833 207.8 44.95 207.8C45.6167 207.817 46.2 207.942 46.7 208.175L47 208.35L47.4 208.075L47.775 207.8H48C48.15 207.8 48.25 207.825 48.3 207.875L48.375 207.95V209.55V211.15L48.3 211.225L48.225 211.3H47.75H47.275L47.2 211.225C47.15 211.175 47.125 211.067 47.125 210.9C47.0417 209.85 46.5 209.2 45.5 208.95C45.1333 208.883 44.675 208.875 44.125 208.925C44.075 208.942 44.0333 208.95 44 208.95C43.1667 209.133 42.725 209.567 42.675 210.25C42.6417 210.75 42.875 211.15 43.375 211.45C43.625 211.6 44.15 211.758 44.95 211.925C45.65 212.058 46.0333 212.142 46.1 212.175C47.1833 212.442 47.9917 213.033 48.525 213.95C48.5583 214.017 48.5917 214.075 48.625 214.125C48.8583 214.608 48.9833 215.067 49 215.5C49.0333 216.483 48.7917 217.292 48.275 217.925C47.9083 218.425 47.3667 218.792 46.65 219.025C45.6667 219.358 44.6917 219.392 43.725 219.125C43.2417 218.975 42.85 218.775 42.55 218.525L42.425 218.45L41.975 218.8C41.5417 219.117 41.2833 219.275 41.2 219.275C41.05 219.275 40.95 219.25 40.9 219.2L40.825 219.125V217.225C40.825 215.875 40.8667 215.175 40.95 215.125C40.9833 215.108 41.1583 215.1 41.475 215.1C41.825 215.1 42.0167 215.142 42.05 215.225C42.0667 215.258 42.0917 215.35 42.125 215.5C42.6083 217.45 43.7167 218.3 45.45 218.05C46.3167 217.95 46.8583 217.558 47.075 216.875C47.1083 216.775 47.125 216.608 47.125 216.375C47.125 216.142 47.1083 215.975 47.075 215.875C46.975 215.542 46.7333 215.242 46.35 214.975C46.0833 214.792 45.5417 214.617 44.725 214.45C43.7917 214.283 43.125 214.092 42.725 213.875C42.3417 213.692 42.0083 213.458 41.725 213.175C41.475 212.925 41.2667 212.633 41.1 212.3C40.9333 211.95 40.8417 211.583 40.825 211.2C40.8083 210.7 40.9167 210.183 41.15 209.65C41.3 209.35 41.475 209.1 41.675 208.9C42.1917 208.333 42.975 207.983 44.025 207.85C44.1083 207.833 44.2167 207.825 44.35 207.825ZM52.6889 202.325C53.2722 202.192 53.7805 202.333 54.2139 202.75C54.5305 203.1 54.6889 203.483 54.6889 203.9C54.6889 204.167 54.6305 204.417 54.5139 204.65C54.2139 205.217 53.7222 205.517 53.0389 205.55C52.4055 205.55 51.9305 205.267 51.6139 204.7C51.4805 204.45 51.4139 204.183 51.4139 203.9C51.4139 203.65 51.4722 203.408 51.5889 203.175C51.8055 202.708 52.1722 202.425 52.6889 202.325ZM52.5139 208.1C53.9139 208 54.5805 207.95 54.5139 207.95H54.5889V212.675C54.5889 215.825 54.6055 217.417 54.6389 217.45C54.6889 217.5 54.7305 217.525 54.7639 217.525C54.8639 217.575 55.2305 217.6 55.8639 217.6H56.3389V218.3V219H56.1389L54.7139 218.95C53.8805 218.933 53.0222 218.933 52.1389 218.95C51.1222 218.983 50.6055 219 50.5889 219H50.3639V218.3V217.6H50.8889C51.7555 217.6 52.2222 217.542 52.2889 217.425C52.3055 217.408 52.3139 216.258 52.3139 213.975C52.3139 211.575 52.2805 210.292 52.2139 210.125C52.1639 209.975 52.0639 209.867 51.9139 209.8C51.6805 209.683 51.2889 209.625 50.7389 209.625H50.4639V208.925V208.225H50.5139L52.5139 208.1ZM59.3469 208.1C60.7469 208 61.4135 207.95 61.3469 207.95H61.4469V208.8V209.65L61.7219 209.35C62.4052 208.65 63.2135 208.217 64.1469 208.05C64.9302 207.883 65.6969 207.908 66.4469 208.125C66.8469 208.208 67.2052 208.383 67.5219 208.65C68.0719 209.1 68.3969 209.808 68.4969 210.775C68.5135 210.892 68.5219 212.042 68.5219 214.225C68.5219 216.342 68.5302 217.408 68.5469 217.425C68.6135 217.542 69.0802 217.6 69.9469 217.6H70.4719V218.3V219H70.2719L68.6969 218.95C67.7802 218.933 66.8802 218.933 65.9969 218.95L64.4719 219H64.2469V218.3V217.6H64.7719C65.6552 217.6 66.1219 217.533 66.1719 217.4V214.025C66.1552 211.725 66.1052 210.45 66.0219 210.2C65.8719 209.65 65.5219 209.308 64.9719 209.175C64.6219 209.108 64.2469 209.117 63.8469 209.2C63.1635 209.35 62.6135 209.75 62.1969 210.4C61.9469 210.75 61.7719 211.167 61.6719 211.65C61.6385 211.8 61.6135 212.783 61.5969 214.6V217.4C61.6469 217.533 62.1219 217.6 63.0219 217.6H63.5469V218.3V219H63.3469L61.7719 218.95C60.8719 218.933 59.9719 218.933 59.0719 218.95L57.4969 219H57.2969V218.3V217.6H57.8219C58.6885 217.6 59.1552 217.542 59.2219 217.425V210.475C59.1552 210.075 58.9469 209.825 58.5969 209.725C58.4135 209.675 58.1302 209.642 57.7469 209.625H57.2969V208.925V208.225H57.3469L59.3469 208.1Z" fill="white"/>
</g>
<defs>
<clipPath id="clip0_120_89">
<rect width="358" height="253" fill="white"/>
</clipPath>
</defs>
</svg>
