<svg width="231" height="213" viewBox="0 0 231 213" fill="none" xmlns="http://www.w3.org/2000/svg">
<g clip-path="url(#clip0_123_153)">
<path d="M170.65 86.975C170.667 86.9583 170.817 86.95 171.1 86.95C171.4 86.9833 171.608 87.0083 171.725 87.025C172.275 87.1917 172.725 87.475 173.075 87.875L173.2 88.05L173.375 87.875C173.825 87.4583 174.292 87.3417 174.775 87.525C175.025 87.6083 175.192 87.7667 175.275 88C175.342 88.2 175.3 88.6167 175.15 89.25C175.05 89.6833 174.817 90.625 174.45 92.075C173.867 94.3583 173.558 95.6167 173.525 95.85C173.458 96.2167 173.467 96.5167 173.55 96.75C173.65 97.0167 173.842 97.1333 174.125 97.1C174.325 97.0833 174.533 96.925 174.75 96.625C174.983 96.275 175.225 95.625 175.475 94.675C175.542 94.3917 175.617 94.2333 175.7 94.2C175.75 94.1833 175.908 94.175 176.175 94.175C176.492 94.175 176.667 94.1917 176.7 94.225C176.8 94.2917 176.8 94.4833 176.7 94.8C176.267 96.35 175.708 97.375 175.025 97.875C174.758 98.075 174.492 98.2 174.225 98.25C173.875 98.3 173.5 98.275 173.1 98.175C172.35 98.0083 171.817 97.6167 171.5 97L171.425 96.825L171.275 96.95C169.958 98.0833 168.658 98.4833 167.375 98.15C167.008 98.05 166.667 97.9 166.35 97.7C165.4 97.0333 164.858 96.0417 164.725 94.725C164.658 94.275 164.667 93.7917 164.75 93.275C164.967 91.875 165.542 90.5917 166.475 89.425C166.792 89.0417 167.142 88.6917 167.525 88.375C168.475 87.5917 169.433 87.1333 170.4 87C170.467 86.9833 170.55 86.975 170.65 86.975ZM171.375 88.2C171.042 88.1167 170.767 88.1 170.55 88.15C170.033 88.25 169.533 88.5417 169.05 89.025C168.567 89.5417 168.142 90.4583 167.775 91.775C167.692 92.075 167.6 92.425 167.5 92.825C167.217 93.9583 167.075 94.8 167.075 95.35C167.075 95.8667 167.183 96.275 167.4 96.575C167.717 96.9917 168.158 97.1583 168.725 97.075C169.358 97.0083 170.008 96.6417 170.675 95.975C170.975 95.675 171.2 95.4 171.35 95.15C171.35 95.2 171.575 94.325 172.025 92.525L172.65 89.95L172.625 89.775C172.408 88.9417 171.992 88.4167 171.375 88.2Z" fill="white"/>
<path d="M46.025 80.8C47.3583 80.7 48.0083 80.65 47.975 80.65C48.125 80.65 48.225 80.7083 48.275 80.825C48.2917 80.8917 48.0167 82.0667 47.45 84.35C46.8667 86.6833 46.575 87.8417 46.575 87.825C46.575 87.8583 46.6583 87.8167 46.825 87.7C47.3583 87.3667 47.8917 87.1333 48.425 87C48.9083 86.9333 49.3583 86.9417 49.775 87.025C50.475 87.175 51.0583 87.4833 51.525 87.95C51.9417 88.3667 52.2417 88.875 52.425 89.475C52.7083 90.3083 52.75 91.2167 52.55 92.2C52.2167 94.0167 51.3583 95.525 49.975 96.725C49.725 96.9417 49.475 97.1333 49.225 97.3C48.7083 97.6333 48.225 97.875 47.775 98.025C46.6917 98.375 45.7333 98.35 44.9 97.95C43.75 97.4 43.0833 96.375 42.9 94.875C42.85 94.5917 42.85 94.1167 42.9 93.45C42.95 93.1167 43.4083 91.225 44.275 87.775C45.1083 84.4083 45.4917 82.6583 45.425 82.525C45.3083 82.4083 44.95 82.3417 44.35 82.325C43.95 82.325 43.725 82.2667 43.675 82.15C43.6417 82.1 43.6667 81.9083 43.75 81.575C43.8333 81.225 43.9 81.0333 43.95 81C44 80.95 44.05 80.925 44.1 80.925L46.025 80.8ZM49.325 88.2C48.975 88.1 48.575 88.1167 48.125 88.25C47.4417 88.5333 46.7833 89.075 46.15 89.875L46.025 90.05L45.6 91.8C45.1667 93.5167 44.95 94.625 44.95 95.125C44.95 95.825 45.125 96.35 45.475 96.7C45.8917 97.1167 46.4333 97.2167 47.1 97C47.75 96.7833 48.2917 96.3417 48.725 95.675C48.975 95.2917 49.2417 94.65 49.525 93.75C49.8083 92.6833 50.0083 91.8417 50.125 91.225C50.3417 90.225 50.3583 89.4917 50.175 89.025C50.0083 88.6083 49.725 88.3333 49.325 88.2Z" fill="white"/>
<path d="M112.275 192.975H113.3C114.517 193.158 115.275 193.667 115.575 194.5C115.742 195 115.7 195.508 115.45 196.025C115.333 196.242 115.225 196.4 115.125 196.5C114.675 196.917 114.192 197.083 113.675 197C113.425 196.967 113.208 196.875 113.025 196.725C112.858 196.558 112.758 196.358 112.725 196.125C112.642 195.625 112.808 195.15 113.225 194.7C113.342 194.583 113.467 194.492 113.6 194.425C113.65 194.392 113.683 194.367 113.7 194.35C113.7 194.3 113.475 194.233 113.025 194.15C111.925 194 110.933 194.375 110.05 195.275C109.467 195.908 109 196.892 108.65 198.225C108.633 198.342 108.608 198.458 108.575 198.575C108.242 199.908 108.108 200.842 108.175 201.375C108.292 202.258 108.767 202.808 109.6 203.025C109.95 203.125 110.467 203.125 111.15 203.025C112.2 202.875 113.092 202.517 113.825 201.95C114.142 201.75 114.408 201.508 114.625 201.225C114.808 201.008 114.958 200.942 115.075 201.025C115.125 201.058 115.217 201.142 115.35 201.275C115.583 201.525 115.692 201.683 115.675 201.75C115.608 201.933 115.317 202.242 114.8 202.675C114.717 202.742 114.642 202.8 114.575 202.85C113.392 203.75 111.967 204.225 110.3 204.275C109.2 204.292 108.267 204.042 107.5 203.525C107.117 203.292 106.775 202.958 106.475 202.525C106.158 202.058 105.942 201.542 105.825 200.975C105.508 199.425 105.883 197.858 106.95 196.275C107.067 196.092 107.192 195.917 107.325 195.75C107.608 195.383 108.008 194.983 108.525 194.55C109.708 193.6 110.958 193.075 112.275 192.975Z" fill="white"/>
<path d="M15.225 170.125L15.8 170.1H15.825C16.275 170.1 16.5167 170.15 16.55 170.25C16.5667 170.317 16.7917 173.017 17.225 178.35C17.6417 183.717 17.8667 186.417 17.9 186.45C17.9167 186.467 17.975 186.492 18.075 186.525C18.275 186.575 18.7583 186.6 19.525 186.6H20.025L20.125 186.675C20.175 186.758 20.2 186.817 20.2 186.85L19.975 187.85C19.925 187.95 19.7417 187.992 19.425 187.975C19.3583 187.975 19.2333 187.975 19.05 187.975C16.6333 187.908 14.6583 187.917 13.125 188H12.825L12.75 187.925C12.6833 187.858 12.65 187.792 12.65 187.725C12.65 187.458 12.7333 187.133 12.9 186.75C12.9333 186.65 13.175 186.6 13.625 186.6C14.025 186.567 14.2917 186.55 14.425 186.55C14.8083 186.483 15.0167 186.417 15.05 186.35C15.0667 186.333 15.0333 185.783 14.95 184.7C14.8667 183.733 14.825 183.183 14.825 183.05C14.825 183.017 13.875 183 11.975 183H9.1L8.35 184.325C7.81667 185.225 7.54167 185.717 7.525 185.8C7.45833 185.967 7.48333 186.108 7.6 186.225C7.76667 186.425 8.125 186.55 8.675 186.6C8.90833 186.6 9.05833 186.658 9.125 186.775L9.15 186.85L9.025 187.35C8.95833 187.667 8.89167 187.858 8.825 187.925L8.75 188H8.45C7.06667 187.933 5.75833 187.917 4.525 187.95C3.675 187.983 3.24167 188 3.225 188H3.05L2.975 187.925C2.90833 187.858 2.875 187.8 2.875 187.75L3.1 186.75C3.16667 186.65 3.35833 186.6 3.675 186.6C4.84167 186.55 5.65 186.217 6.1 185.6L10.625 177.85C13.525 172.833 15.0083 170.292 15.075 170.225C15.0917 170.208 15.1417 170.175 15.225 170.125ZM14.425 178C14.2417 175.617 14.15 174.408 14.15 174.375C14.15 174.308 13.7833 174.917 13.05 176.2L10.95 179.825L9.925 181.575L12.3 181.6H14.7C14.7 181.617 14.6083 180.417 14.425 178Z" fill="white"/>
<path d="M205 170.95C205.033 170.933 206.708 170.925 210.025 170.925C213.342 170.942 215.108 170.967 215.325 171C215.875 171.083 216.408 171.25 216.925 171.5C217.542 171.817 218.017 172.225 218.35 172.725C219.033 173.725 219.092 174.8 218.525 175.95C218.425 176.15 218.308 176.342 218.175 176.525C217.925 176.908 217.542 177.3 217.025 177.7C216.208 178.3 215.242 178.742 214.125 179.025C214.075 179.042 214.05 179.058 214.05 179.075C214.167 179.075 214.467 179.15 214.95 179.3C216.067 179.65 216.833 180.258 217.25 181.125C217.717 182.075 217.675 183.117 217.125 184.25C216.458 185.6 215.325 186.633 213.725 187.35C213.625 187.4 213.533 187.442 213.45 187.475C212.9 187.692 212.333 187.842 211.75 187.925C211.533 187.958 209.675 187.983 206.175 188C202.658 188 200.867 187.975 200.8 187.925L200.75 187.825C200.733 187.775 200.758 187.583 200.825 187.25C200.925 186.917 200.992 186.725 201.025 186.675L201.125 186.6H201.975C202.908 186.583 203.433 186.517 203.55 186.4C203.6 186.367 204.2 184.05 205.35 179.45C206.5 174.85 207.075 172.533 207.075 172.5C207.075 172.483 207.058 172.458 207.025 172.425C206.958 172.392 206.508 172.358 205.675 172.325H204.825L204.75 172.25C204.65 172.183 204.65 171.95 204.75 171.55C204.833 171.2 204.917 171 205 170.95ZM214.35 172.35C214.25 172.333 213.525 172.325 212.175 172.325L210 172.35C209.833 172.367 209.725 172.417 209.675 172.5C209.675 172.533 209.417 173.542 208.9 175.525L208.15 178.525H210.2L212.275 178.5L212.525 178.45C213.542 178.2 214.367 177.683 215 176.9C215.333 176.533 215.6 176.083 215.8 175.55C215.9 175.183 215.95 174.817 215.95 174.45C215.95 174.167 215.933 173.958 215.9 173.825C215.8 173.458 215.625 173.15 215.375 172.9C215.108 172.633 214.767 172.45 214.35 172.35ZM213 179.775L212.8 179.725L210.325 179.7H207.875L207.025 183.075C206.458 185.308 206.175 186.45 206.175 186.5C206.175 186.533 206.208 186.558 206.275 186.575H208.6C210.1 186.575 210.933 186.558 211.1 186.525C212.283 186.258 213.217 185.617 213.9 184.6C214.333 183.95 214.575 183.225 214.625 182.425C214.642 181.575 214.425 180.883 213.975 180.35C213.675 180.05 213.35 179.858 213 179.775Z" fill="white"/>
<path d="M112.9 4.4H114C115.367 4.53333 116.442 5.125 117.225 6.175C117.308 6.275 117.358 6.33333 117.375 6.35C117.358 6.35 117.633 6.08333 118.2 5.55C118.917 4.86667 119.258 4.54167 119.225 4.575L119.425 4.375H119.625C119.842 4.375 119.967 4.425 120 4.525C120.017 4.55833 119.742 5.74167 119.175 8.075C118.575 10.475 118.275 11.65 118.275 11.6C118.242 11.7 118.008 11.75 117.575 11.75H117.05L116.975 11.675C116.908 11.6083 116.892 11.4583 116.925 11.225C116.925 11.2083 116.933 11.125 116.95 10.975C117.117 9.775 117.017 8.70833 116.65 7.775C116.25 6.675 115.533 6.025 114.5 5.825C114.2 5.75833 113.742 5.75 113.125 5.8C113.075 5.81667 113.033 5.825 113 5.825C111.517 6.04167 110.158 6.625 108.925 7.575C107.258 8.94167 106.108 11.0833 105.475 14C105.258 14.8833 105.15 15.7333 105.15 16.55C105.15 17.3167 105.25 17.9583 105.45 18.475C105.517 18.6917 105.65 18.95 105.85 19.25C106.583 20.35 107.758 20.975 109.375 21.125C110.325 21.225 111.242 21.05 112.125 20.6C113.542 19.9167 114.642 18.7917 115.425 17.225C115.625 16.8083 115.792 16.3833 115.925 15.95C116.008 15.6833 116.092 15.5417 116.175 15.525C116.225 15.5083 116.367 15.5 116.6 15.5C116.983 15.5 117.192 15.55 117.225 15.65C117.242 15.7167 117.225 15.8333 117.175 16C116.892 16.9833 116.45 17.8917 115.85 18.725C115.383 19.3917 114.867 19.9583 114.3 20.425C112.883 21.675 111.308 22.375 109.575 22.525C109.075 22.5917 108.558 22.575 108.025 22.475C106.392 22.275 105.075 21.6333 104.075 20.55C103.108 19.5333 102.525 18.2667 102.325 16.75C102.225 16.0667 102.233 15.2917 102.35 14.425C102.65 12.275 103.583 10.2917 105.15 8.475C105.733 7.84167 106.217 7.375 106.6 7.075C108.267 5.69167 110.058 4.83333 111.975 4.5C112.058 4.48333 112.367 4.45 112.9 4.4Z" fill="white"/>
<path d="M23.5314 180.5L111 29L198.469 180.5H23.5314Z" stroke="#5B9AD5" stroke-width="3"/>
</g>
<defs>
<clipPath id="clip0_123_153">
<rect width="231" height="213" fill="white"/>
</clipPath>
</defs>
</svg>
