<svg width="380" height="310" viewBox="0 0 380 310" fill="none" xmlns="http://www.w3.org/2000/svg">
<g clip-path="url(#clip0_117_32)">
<rect width="380" height="310" fill="#009DFF" fill-opacity="0.65"/>
<line x1="191.061" y1="297.939" x2="21.3551" y2="128.234" stroke="#D55B5B" stroke-width="3"/>
<line x1="358.645" y1="128.234" x2="188.939" y2="297.939" stroke="#D55B5B" stroke-width="3"/>
<line x1="189.668" y1="296.21" x2="127.551" y2="64.3883" stroke="#D55B5B" stroke-width="3"/>
<line x1="190.551" y1="295.434" x2="252.668" y2="63.6118" stroke="#D55B5B" stroke-width="3"/>
<line x1="191.5" y1="192" x2="191.5" y2="58" stroke="#61D55B" stroke-width="3"/>
<path d="M180.425 200.375C180.775 200.342 181.258 200.35 181.875 200.4C183.458 200.65 184.592 201.325 185.275 202.425C185.492 202.792 185.642 203.175 185.725 203.575C185.792 203.942 185.775 204.35 185.675 204.8C185.492 205.717 185.067 206.5 184.4 207.15C183.933 207.617 183.425 207.967 182.875 208.2C182.742 208.283 182.667 208.325 182.65 208.325L183.025 208.45C183.858 208.733 184.583 209.167 185.2 209.75C185.717 210.283 186.075 210.892 186.275 211.575C186.608 212.758 186.408 213.933 185.675 215.1C185.492 215.367 185.292 215.617 185.075 215.85C184.625 216.3 184.15 216.65 183.65 216.9C183.083 217.183 182.45 217.383 181.75 217.5C181.367 217.567 180.858 217.575 180.225 217.525C180.158 217.508 180.108 217.5 180.075 217.5C178.358 217.217 177.158 216.492 176.475 215.325C176.458 215.292 176.442 215.258 176.425 215.225C176.192 214.758 176.075 214.25 176.075 213.7C176.075 213.433 176.092 213.233 176.125 213.1C176.392 212.367 176.933 211.992 177.75 211.975C178.583 211.975 179.133 212.35 179.4 213.1C179.433 213.233 179.45 213.425 179.45 213.675C179.45 213.925 179.433 214.108 179.4 214.225C179.233 214.742 178.9 215.092 178.4 215.275L178.25 215.325L178.3 215.375C178.517 215.542 178.733 215.675 178.95 215.775C179.617 216.125 180.317 216.275 181.05 216.225C181.133 216.225 181.2 216.217 181.25 216.2C182 216.083 182.542 215.642 182.875 214.875C182.908 214.792 182.942 214.708 182.975 214.625C183.125 214.208 183.2 213.517 183.2 212.55C183.2 211.567 183.108 210.842 182.925 210.375C182.708 209.792 182.325 209.358 181.775 209.075C181.542 208.975 181.092 208.917 180.425 208.9H180.275L179.275 208.875L179.2 208.825C179.167 208.775 179.15 208.608 179.15 208.325C179.15 208.025 179.167 207.858 179.2 207.825C179.233 207.775 179.267 207.75 179.3 207.75C179.317 207.733 179.558 207.708 180.025 207.675C180.708 207.625 181.192 207.508 181.475 207.325C182.075 206.925 182.483 206.225 182.7 205.225C182.933 204.025 182.883 203.117 182.55 202.5C182.417 202.217 182.183 201.983 181.85 201.8C181.6 201.683 181.292 201.625 180.925 201.625C180.092 201.592 179.375 201.85 178.775 202.4L178.625 202.525L178.775 202.575C179.408 202.742 179.775 203.167 179.875 203.85C179.892 203.9 179.9 203.95 179.9 204C179.9 204.3 179.842 204.592 179.725 204.875C179.592 205.125 179.375 205.333 179.075 205.5C178.792 205.617 178.533 205.675 178.3 205.675C178.083 205.675 177.833 205.617 177.55 205.5C177.25 205.333 177.033 205.125 176.9 204.875C176.783 204.625 176.725 204.308 176.725 203.925C176.792 202.658 177.417 201.683 178.6 201C178.667 200.95 178.733 200.908 178.8 200.875C179.317 200.608 179.858 200.442 180.425 200.375ZM193.225 200.375C194.642 200.225 195.875 200.633 196.925 201.6C197.375 202.033 197.758 202.6 198.075 203.3C198.692 204.683 199 206.583 199 209C199 211.567 198.642 213.542 197.925 214.925C197.458 215.892 196.775 216.592 195.875 217.025C194.858 217.525 193.825 217.667 192.775 217.45C191.958 217.3 191.225 216.925 190.575 216.325C190.192 215.975 189.85 215.508 189.55 214.925C188.833 213.508 188.475 211.533 188.475 209C188.475 207.083 188.658 205.517 189.025 204.3C189.258 203.583 189.55 202.942 189.9 202.375C190.667 201.258 191.717 200.6 193.05 200.4C193.1 200.383 193.158 200.375 193.225 200.375ZM194.075 201.55C193.708 201.5 193.367 201.525 193.05 201.625C192.317 201.875 191.808 202.367 191.525 203.1C191.492 203.217 191.458 203.342 191.425 203.475C191.258 204.208 191.175 205.95 191.175 208.7C191.175 211.933 191.275 213.883 191.475 214.55C191.575 214.9 191.742 215.208 191.975 215.475C192.442 216.075 193.033 216.375 193.75 216.375C194.45 216.375 195.033 216.075 195.5 215.475C195.733 215.208 195.9 214.9 196 214.55C196.2 213.883 196.3 211.933 196.3 208.7C196.3 205.95 196.217 204.208 196.05 203.475C195.883 202.675 195.433 202.1 194.7 201.75C194.5 201.65 194.292 201.583 194.075 201.55ZM208.925 203.375C208.925 204.542 208.567 205.467 207.85 206.15C207.133 206.833 206.217 207.175 205.1 207.175C203.983 207.175 203.067 206.833 202.35 206.15C201.65 205.467 201.3 204.542 201.3 203.375C201.3 202.192 201.658 201.258 202.375 200.575C203.108 199.892 204.017 199.55 205.1 199.55C205.783 199.55 206.417 199.708 207 200.025C207.583 200.325 208.05 200.758 208.4 201.325C208.75 201.892 208.925 202.575 208.925 203.375ZM207.55 203.375C207.55 202.525 207.317 201.875 206.85 201.425C206.383 200.958 205.8 200.725 205.1 200.725C204.433 200.725 203.858 200.958 203.375 201.425C202.908 201.892 202.675 202.542 202.675 203.375C202.675 204.208 202.9 204.858 203.35 205.325C203.817 205.775 204.4 206 205.1 206C205.8 206 206.383 205.775 206.85 205.325C207.317 204.875 207.55 204.225 207.55 203.375Z" fill="white"/>
<path d="M224.425 213.375C224.775 213.342 225.258 213.35 225.875 213.4C227.458 213.65 228.592 214.325 229.275 215.425C229.492 215.792 229.642 216.175 229.725 216.575C229.792 216.942 229.775 217.35 229.675 217.8C229.492 218.717 229.067 219.5 228.4 220.15C227.933 220.617 227.425 220.967 226.875 221.2C226.742 221.283 226.667 221.325 226.65 221.325L227.025 221.45C227.858 221.733 228.583 222.167 229.2 222.75C229.717 223.283 230.075 223.892 230.275 224.575C230.608 225.758 230.408 226.933 229.675 228.1C229.492 228.367 229.292 228.617 229.075 228.85C228.625 229.3 228.15 229.65 227.65 229.9C227.083 230.183 226.45 230.383 225.75 230.5C225.367 230.567 224.858 230.575 224.225 230.525C224.158 230.508 224.108 230.5 224.075 230.5C222.358 230.217 221.158 229.492 220.475 228.325C220.458 228.292 220.442 228.258 220.425 228.225C220.192 227.758 220.075 227.25 220.075 226.7C220.075 226.433 220.092 226.233 220.125 226.1C220.392 225.367 220.933 224.992 221.75 224.975C222.583 224.975 223.133 225.35 223.4 226.1C223.433 226.233 223.45 226.425 223.45 226.675C223.45 226.925 223.433 227.108 223.4 227.225C223.233 227.742 222.9 228.092 222.4 228.275L222.25 228.325L222.3 228.375C222.517 228.542 222.733 228.675 222.95 228.775C223.617 229.125 224.317 229.275 225.05 229.225C225.133 229.225 225.2 229.217 225.25 229.2C226 229.083 226.542 228.642 226.875 227.875C226.908 227.792 226.942 227.708 226.975 227.625C227.125 227.208 227.2 226.517 227.2 225.55C227.2 224.567 227.108 223.842 226.925 223.375C226.708 222.792 226.325 222.358 225.775 222.075C225.542 221.975 225.092 221.917 224.425 221.9H224.275L223.275 221.875L223.2 221.825C223.167 221.775 223.15 221.608 223.15 221.325C223.15 221.025 223.167 220.858 223.2 220.825C223.233 220.775 223.267 220.75 223.3 220.75C223.317 220.733 223.558 220.708 224.025 220.675C224.708 220.625 225.192 220.508 225.475 220.325C226.075 219.925 226.483 219.225 226.7 218.225C226.933 217.025 226.883 216.117 226.55 215.5C226.417 215.217 226.183 214.983 225.85 214.8C225.6 214.683 225.292 214.625 224.925 214.625C224.092 214.592 223.375 214.85 222.775 215.4L222.625 215.525L222.775 215.575C223.408 215.742 223.775 216.167 223.875 216.85C223.892 216.9 223.9 216.95 223.9 217C223.9 217.3 223.842 217.592 223.725 217.875C223.592 218.125 223.375 218.333 223.075 218.5C222.792 218.617 222.533 218.675 222.3 218.675C222.083 218.675 221.833 218.617 221.55 218.5C221.25 218.333 221.033 218.125 220.9 217.875C220.783 217.625 220.725 217.308 220.725 216.925C220.792 215.658 221.417 214.683 222.6 214C222.667 213.95 222.733 213.908 222.8 213.875C223.317 213.608 223.858 213.442 224.425 213.375ZM237.225 213.375C238.642 213.225 239.875 213.633 240.925 214.6C241.375 215.033 241.758 215.6 242.075 216.3C242.692 217.683 243 219.583 243 222C243 224.567 242.642 226.542 241.925 227.925C241.458 228.892 240.775 229.592 239.875 230.025C238.858 230.525 237.825 230.667 236.775 230.45C235.958 230.3 235.225 229.925 234.575 229.325C234.192 228.975 233.85 228.508 233.55 227.925C232.833 226.508 232.475 224.533 232.475 222C232.475 220.083 232.658 218.517 233.025 217.3C233.258 216.583 233.55 215.942 233.9 215.375C234.667 214.258 235.717 213.6 237.05 213.4C237.1 213.383 237.158 213.375 237.225 213.375ZM238.075 214.55C237.708 214.5 237.367 214.525 237.05 214.625C236.317 214.875 235.808 215.367 235.525 216.1C235.492 216.217 235.458 216.342 235.425 216.475C235.258 217.208 235.175 218.95 235.175 221.7C235.175 224.933 235.275 226.883 235.475 227.55C235.575 227.9 235.742 228.208 235.975 228.475C236.442 229.075 237.033 229.375 237.75 229.375C238.45 229.375 239.033 229.075 239.5 228.475C239.733 228.208 239.9 227.9 240 227.55C240.2 226.883 240.3 224.933 240.3 221.7C240.3 218.95 240.217 217.208 240.05 216.475C239.883 215.675 239.433 215.1 238.7 214.75C238.5 214.65 238.292 214.583 238.075 214.55ZM252.925 216.375C252.925 217.542 252.567 218.467 251.85 219.15C251.133 219.833 250.217 220.175 249.1 220.175C247.983 220.175 247.067 219.833 246.35 219.15C245.65 218.467 245.3 217.542 245.3 216.375C245.3 215.192 245.658 214.258 246.375 213.575C247.108 212.892 248.017 212.55 249.1 212.55C249.783 212.55 250.417 212.708 251 213.025C251.583 213.325 252.05 213.758 252.4 214.325C252.75 214.892 252.925 215.575 252.925 216.375ZM251.55 216.375C251.55 215.525 251.317 214.875 250.85 214.425C250.383 213.958 249.8 213.725 249.1 213.725C248.433 213.725 247.858 213.958 247.375 214.425C246.908 214.892 246.675 215.542 246.675 216.375C246.675 217.208 246.9 217.858 247.35 218.325C247.817 218.775 248.4 219 249.1 219C249.8 219 250.383 218.775 250.85 218.325C251.317 217.875 251.55 217.225 251.55 216.375Z" fill="white"/>
<path d="M12.725 102.375C14.1417 102.225 15.375 102.633 16.425 103.6C16.875 104.033 17.2583 104.6 17.575 105.3C18.1917 106.683 18.5 108.583 18.5 111C18.5 113.567 18.1417 115.542 17.425 116.925C16.9583 117.892 16.275 118.592 15.375 119.025C14.3583 119.525 13.325 119.667 12.275 119.45C11.4583 119.3 10.725 118.925 10.075 118.325C9.69167 117.975 9.35 117.508 9.05 116.925C8.33333 115.508 7.975 113.533 7.975 111C7.975 109.083 8.15833 107.517 8.525 106.3C8.75833 105.583 9.05 104.942 9.4 104.375C10.1667 103.258 11.2167 102.6 12.55 102.4C12.6 102.383 12.6583 102.375 12.725 102.375ZM13.575 103.55C13.2083 103.5 12.8667 103.525 12.55 103.625C11.8167 103.875 11.3083 104.367 11.025 105.1C10.9917 105.217 10.9583 105.342 10.925 105.475C10.7583 106.208 10.675 107.95 10.675 110.7C10.675 113.933 10.775 115.883 10.975 116.55C11.075 116.9 11.2417 117.208 11.475 117.475C11.9417 118.075 12.5333 118.375 13.25 118.375C13.95 118.375 14.5333 118.075 15 117.475C15.2333 117.208 15.4 116.9 15.5 116.55C15.7 115.883 15.8 113.933 15.8 110.7C15.8 107.95 15.7167 106.208 15.55 105.475C15.3833 104.675 14.9333 104.1 14.2 103.75C14 103.65 13.7917 103.583 13.575 103.55Z" fill="white"/>
<path d="M364.85 102.45L364.925 102.35H365.225C365.408 102.35 365.525 102.375 365.575 102.425L365.675 102.5V109.95V117.4L365.75 117.45C365.767 117.467 365.825 117.492 365.925 117.525C366.125 117.575 366.792 117.6 367.925 117.6H368.75V118.3V119H368.45L366.3 118.95C365.05 118.933 363.8 118.933 362.55 118.95C361.083 118.983 360.358 119 360.375 119H360.075V118.3V117.6H360.9C362.067 117.6 362.75 117.575 362.95 117.525C363.05 117.492 363.108 117.467 363.125 117.45L363.2 117.4V111.125C363.2 106.942 363.192 104.85 363.175 104.85C362.308 105.183 361.342 105.35 360.275 105.35H359.95V104.65V103.95H360.275C361.742 103.95 362.992 103.65 364.025 103.05C364.442 102.783 364.717 102.583 364.85 102.45Z" fill="white"/>
<path d="M136.425 217.375C136.775 217.342 137.258 217.35 137.875 217.4C139.458 217.65 140.592 218.325 141.275 219.425C141.492 219.792 141.642 220.175 141.725 220.575C141.792 220.942 141.775 221.35 141.675 221.8C141.492 222.717 141.067 223.5 140.4 224.15C139.933 224.617 139.425 224.967 138.875 225.2C138.742 225.283 138.667 225.325 138.65 225.325L139.025 225.45C139.858 225.733 140.583 226.167 141.2 226.75C141.717 227.283 142.075 227.892 142.275 228.575C142.608 229.758 142.408 230.933 141.675 232.1C141.492 232.367 141.292 232.617 141.075 232.85C140.625 233.3 140.15 233.65 139.65 233.9C139.083 234.183 138.45 234.383 137.75 234.5C137.367 234.567 136.858 234.575 136.225 234.525C136.158 234.508 136.108 234.5 136.075 234.5C134.358 234.217 133.158 233.492 132.475 232.325C132.458 232.292 132.442 232.258 132.425 232.225C132.192 231.758 132.075 231.25 132.075 230.7C132.075 230.433 132.092 230.233 132.125 230.1C132.392 229.367 132.933 228.992 133.75 228.975C134.583 228.975 135.133 229.35 135.4 230.1C135.433 230.233 135.45 230.425 135.45 230.675C135.45 230.925 135.433 231.108 135.4 231.225C135.233 231.742 134.9 232.092 134.4 232.275L134.25 232.325L134.3 232.375C134.517 232.542 134.733 232.675 134.95 232.775C135.617 233.125 136.317 233.275 137.05 233.225C137.133 233.225 137.2 233.217 137.25 233.2C138 233.083 138.542 232.642 138.875 231.875C138.908 231.792 138.942 231.708 138.975 231.625C139.125 231.208 139.2 230.517 139.2 229.55C139.2 228.567 139.108 227.842 138.925 227.375C138.708 226.792 138.325 226.358 137.775 226.075C137.542 225.975 137.092 225.917 136.425 225.9H136.275L135.275 225.875L135.2 225.825C135.167 225.775 135.15 225.608 135.15 225.325C135.15 225.025 135.167 224.858 135.2 224.825C135.233 224.775 135.267 224.75 135.3 224.75C135.317 224.733 135.558 224.708 136.025 224.675C136.708 224.625 137.192 224.508 137.475 224.325C138.075 223.925 138.483 223.225 138.7 222.225C138.933 221.025 138.883 220.117 138.55 219.5C138.417 219.217 138.183 218.983 137.85 218.8C137.6 218.683 137.292 218.625 136.925 218.625C136.092 218.592 135.375 218.85 134.775 219.4L134.625 219.525L134.775 219.575C135.408 219.742 135.775 220.167 135.875 220.85C135.892 220.9 135.9 220.95 135.9 221C135.9 221.3 135.842 221.592 135.725 221.875C135.592 222.125 135.375 222.333 135.075 222.5C134.792 222.617 134.533 222.675 134.3 222.675C134.083 222.675 133.833 222.617 133.55 222.5C133.25 222.333 133.033 222.125 132.9 221.875C132.783 221.625 132.725 221.308 132.725 220.925C132.792 219.658 133.417 218.683 134.6 218C134.667 217.95 134.733 217.908 134.8 217.875C135.317 217.608 135.858 217.442 136.425 217.375ZM149.225 217.375C150.642 217.225 151.875 217.633 152.925 218.6C153.375 219.033 153.758 219.6 154.075 220.3C154.692 221.683 155 223.583 155 226C155 228.567 154.642 230.542 153.925 231.925C153.458 232.892 152.775 233.592 151.875 234.025C150.858 234.525 149.825 234.667 148.775 234.45C147.958 234.3 147.225 233.925 146.575 233.325C146.192 232.975 145.85 232.508 145.55 231.925C144.833 230.508 144.475 228.533 144.475 226C144.475 224.083 144.658 222.517 145.025 221.3C145.258 220.583 145.55 219.942 145.9 219.375C146.667 218.258 147.717 217.6 149.05 217.4C149.1 217.383 149.158 217.375 149.225 217.375ZM150.075 218.55C149.708 218.5 149.367 218.525 149.05 218.625C148.317 218.875 147.808 219.367 147.525 220.1C147.492 220.217 147.458 220.342 147.425 220.475C147.258 221.208 147.175 222.95 147.175 225.7C147.175 228.933 147.275 230.883 147.475 231.55C147.575 231.9 147.742 232.208 147.975 232.475C148.442 233.075 149.033 233.375 149.75 233.375C150.45 233.375 151.033 233.075 151.5 232.475C151.733 232.208 151.9 231.9 152 231.55C152.2 230.883 152.3 228.933 152.3 225.7C152.3 222.95 152.217 221.208 152.05 220.475C151.883 219.675 151.433 219.1 150.7 218.75C150.5 218.65 150.292 218.583 150.075 218.55ZM164.925 220.375C164.925 221.542 164.567 222.467 163.85 223.15C163.133 223.833 162.217 224.175 161.1 224.175C159.983 224.175 159.067 223.833 158.35 223.15C157.65 222.467 157.3 221.542 157.3 220.375C157.3 219.192 157.658 218.258 158.375 217.575C159.108 216.892 160.017 216.55 161.1 216.55C161.783 216.55 162.417 216.708 163 217.025C163.583 217.325 164.05 217.758 164.4 218.325C164.75 218.892 164.925 219.575 164.925 220.375ZM163.55 220.375C163.55 219.525 163.317 218.875 162.85 218.425C162.383 217.958 161.8 217.725 161.1 217.725C160.433 217.725 159.858 217.958 159.375 218.425C158.908 218.892 158.675 219.542 158.675 220.375C158.675 221.208 158.9 221.858 159.35 222.325C159.817 222.775 160.4 223 161.1 223C161.8 223 162.383 222.775 162.85 222.325C163.317 221.875 163.55 221.225 163.55 220.375Z" fill="white"/>
<path d="M47.35 269.825C47.3833 269.808 47.5833 269.8 47.95 269.8C48.6167 269.817 49.2 269.942 49.7 270.175L50 270.35L50.4 270.075L50.775 269.8H51C51.15 269.8 51.25 269.825 51.3 269.875L51.375 269.95V271.55V273.15L51.3 273.225L51.225 273.3H50.75H50.275L50.2 273.225C50.15 273.175 50.125 273.067 50.125 272.9C50.0417 271.85 49.5 271.2 48.5 270.95C48.1333 270.883 47.675 270.875 47.125 270.925C47.075 270.942 47.0333 270.95 47 270.95C46.1667 271.133 45.725 271.567 45.675 272.25C45.6417 272.75 45.875 273.15 46.375 273.45C46.625 273.6 47.15 273.758 47.95 273.925C48.65 274.058 49.0333 274.142 49.1 274.175C50.1833 274.442 50.9917 275.033 51.525 275.95C51.5583 276.017 51.5917 276.075 51.625 276.125C51.8583 276.608 51.9833 277.067 52 277.5C52.0333 278.483 51.7917 279.292 51.275 279.925C50.9083 280.425 50.3667 280.792 49.65 281.025C48.6667 281.358 47.6917 281.392 46.725 281.125C46.2417 280.975 45.85 280.775 45.55 280.525L45.425 280.45L44.975 280.8C44.5417 281.117 44.2833 281.275 44.2 281.275C44.05 281.275 43.95 281.25 43.9 281.2L43.825 281.125V279.225C43.825 277.875 43.8667 277.175 43.95 277.125C43.9833 277.108 44.1583 277.1 44.475 277.1C44.825 277.1 45.0167 277.142 45.05 277.225C45.0667 277.258 45.0917 277.35 45.125 277.5C45.6083 279.45 46.7167 280.3 48.45 280.05C49.3167 279.95 49.8583 279.558 50.075 278.875C50.1083 278.775 50.125 278.608 50.125 278.375C50.125 278.142 50.1083 277.975 50.075 277.875C49.975 277.542 49.7333 277.242 49.35 276.975C49.0833 276.792 48.5417 276.617 47.725 276.45C46.7917 276.283 46.125 276.092 45.725 275.875C45.3417 275.692 45.0083 275.458 44.725 275.175C44.475 274.925 44.2667 274.633 44.1 274.3C43.9333 273.95 43.8417 273.583 43.825 273.2C43.8083 272.7 43.9167 272.183 44.15 271.65C44.3 271.35 44.475 271.1 44.675 270.9C45.1917 270.333 45.975 269.983 47.025 269.85C47.1083 269.833 47.2167 269.825 47.35 269.825ZM55.6889 264.325C56.2722 264.192 56.7805 264.333 57.2139 264.75C57.5305 265.1 57.6889 265.483 57.6889 265.9C57.6889 266.167 57.6305 266.417 57.5139 266.65C57.2139 267.217 56.7222 267.517 56.0389 267.55C55.4055 267.55 54.9305 267.267 54.6139 266.7C54.4805 266.45 54.4139 266.183 54.4139 265.9C54.4139 265.65 54.4722 265.408 54.5889 265.175C54.8055 264.708 55.1722 264.425 55.6889 264.325ZM55.5139 270.1C56.9139 270 57.5805 269.95 57.5139 269.95H57.5889V274.675C57.5889 277.825 57.6055 279.417 57.6389 279.45C57.6889 279.5 57.7305 279.525 57.7639 279.525C57.8639 279.575 58.2305 279.6 58.8639 279.6H59.3389V280.3V281H59.1389L57.7139 280.95C56.8805 280.933 56.0222 280.933 55.1389 280.95C54.1222 280.983 53.6055 281 53.5889 281H53.3639V280.3V279.6H53.8889C54.7555 279.6 55.2222 279.542 55.2889 279.425C55.3055 279.408 55.3139 278.258 55.3139 275.975C55.3139 273.575 55.2805 272.292 55.2139 272.125C55.1639 271.975 55.0639 271.867 54.9139 271.8C54.6805 271.683 54.2889 271.625 53.7389 271.625H53.4639V270.925V270.225H53.5139L55.5139 270.1ZM62.3469 270.1C63.7469 270 64.4135 269.95 64.3469 269.95H64.4469V270.8V271.65L64.7219 271.35C65.4052 270.65 66.2135 270.217 67.1469 270.05C67.9302 269.883 68.6969 269.908 69.4469 270.125C69.8469 270.208 70.2052 270.383 70.5219 270.65C71.0719 271.1 71.3969 271.808 71.4969 272.775C71.5135 272.892 71.5219 274.042 71.5219 276.225C71.5219 278.342 71.5302 279.408 71.5469 279.425C71.6135 279.542 72.0802 279.6 72.9469 279.6H73.4719V280.3V281H73.2719L71.6969 280.95C70.7802 280.933 69.8802 280.933 68.9969 280.95L67.4719 281H67.2469V280.3V279.6H67.7719C68.6552 279.6 69.1219 279.533 69.1719 279.4V276.025C69.1552 273.725 69.1052 272.45 69.0219 272.2C68.8719 271.65 68.5219 271.308 67.9719 271.175C67.6219 271.108 67.2469 271.117 66.8469 271.2C66.1635 271.35 65.6135 271.75 65.1969 272.4C64.9469 272.75 64.7719 273.167 64.6719 273.65C64.6385 273.8 64.6135 274.783 64.5969 276.6V279.4C64.6469 279.533 65.1219 279.6 66.0219 279.6H66.5469V280.3V281H66.3469L64.7719 280.95C63.8719 280.933 62.9719 280.933 62.0719 280.95L60.4969 281H60.2969V280.3V279.6H60.8219C61.6885 279.6 62.1552 279.542 62.2219 279.425V272.475C62.1552 272.075 61.9469 271.825 61.5969 271.725C61.4135 271.675 61.1302 271.642 60.7469 271.625H60.2969V270.925V270.225H60.3469L62.3469 270.1Z" fill="white"/>
<path d="M306.675 269.825C307.042 269.792 307.567 269.8 308.25 269.85C309.367 270 310.175 270.367 310.675 270.95C310.842 271.15 310.958 271.383 311.025 271.65C311.092 271.883 311.108 272.167 311.075 272.5C310.942 273.083 310.567 273.442 309.95 273.575C309.317 273.708 308.817 273.525 308.45 273.025C308.333 272.875 308.25 272.7 308.2 272.5C308.117 272 308.2 271.592 308.45 271.275C308.5 271.225 308.525 271.183 308.525 271.15C308.525 271.1 308.158 271.075 307.425 271.075C307.042 271.075 306.808 271.083 306.725 271.1C306.292 271.217 305.908 271.442 305.575 271.775C305.025 272.325 304.692 273.167 304.575 274.3C304.508 274.883 304.5 275.6 304.55 276.45C304.567 276.533 304.575 276.6 304.575 276.65C304.692 277.45 304.908 278.092 305.225 278.575C305.808 279.458 306.65 279.942 307.75 280.025C308.467 280.042 309.05 279.783 309.5 279.25C309.783 278.883 309.983 278.492 310.1 278.075C310.15 277.908 310.217 277.817 310.3 277.8C310.367 277.783 310.517 277.775 310.75 277.775H311.225L311.3 277.85C311.383 277.933 311.375 278.1 311.275 278.35C311.192 278.65 311.017 279.025 310.75 279.475C309.883 280.725 308.65 281.325 307.05 281.275C306.25 281.225 305.517 281.033 304.85 280.7C303.2 279.85 302.208 278.433 301.875 276.45C301.808 276.05 301.8 275.55 301.85 274.95C301.867 274.9 301.875 274.858 301.875 274.825C302.075 273.258 302.758 271.983 303.925 271C304.742 270.35 305.658 269.958 306.675 269.825ZM317.733 269.85C319.233 269.667 320.592 270.083 321.808 271.1C321.925 271.2 322.033 271.3 322.133 271.4C322.383 271.65 322.533 271.817 322.583 271.9C323.667 273.283 324.075 274.833 323.808 276.55C323.792 276.633 323.775 276.717 323.758 276.8C323.458 278.35 322.633 279.55 321.283 280.4C320.783 280.717 320.242 280.95 319.658 281.1C319.275 281.2 318.842 281.25 318.358 281.25C317.858 281.25 317.417 281.2 317.033 281.1C315.467 280.7 314.292 279.8 313.508 278.4C313.042 277.55 312.808 276.633 312.808 275.65C312.808 274.433 313.133 273.342 313.783 272.375C314.75 270.892 316.067 270.05 317.733 269.85ZM318.758 271C317.825 270.867 317.042 271.1 316.408 271.7C315.908 272.15 315.625 272.908 315.558 273.975C315.542 274.042 315.533 274.117 315.533 274.2C315.467 275.05 315.475 276.05 315.558 277.2C315.625 277.817 315.742 278.283 315.908 278.6C316.258 279.367 316.9 279.825 317.833 279.975C318.15 280.042 318.475 280.05 318.808 280C319.742 279.85 320.4 279.383 320.783 278.6C320.95 278.283 321.067 277.817 321.133 277.2C321.217 276.433 321.225 275.475 321.158 274.325C321.158 274.275 321.158 274.233 321.158 274.2C321.092 273.05 320.825 272.242 320.358 271.775C320.342 271.758 320.317 271.733 320.283 271.7C319.867 271.3 319.358 271.067 318.758 271ZM328.958 269.825C328.992 269.808 329.192 269.8 329.558 269.8C330.225 269.817 330.808 269.942 331.308 270.175L331.608 270.35L332.008 270.075L332.383 269.8H332.608C332.758 269.8 332.858 269.825 332.908 269.875L332.983 269.95V271.55V273.15L332.908 273.225L332.833 273.3H332.358H331.883L331.808 273.225C331.758 273.175 331.733 273.067 331.733 272.9C331.65 271.85 331.108 271.2 330.108 270.95C329.742 270.883 329.283 270.875 328.733 270.925C328.683 270.942 328.642 270.95 328.608 270.95C327.775 271.133 327.333 271.567 327.283 272.25C327.25 272.75 327.483 273.15 327.983 273.45C328.233 273.6 328.758 273.758 329.558 273.925C330.258 274.058 330.642 274.142 330.708 274.175C331.792 274.442 332.6 275.033 333.133 275.95C333.167 276.017 333.2 276.075 333.233 276.125C333.467 276.608 333.592 277.067 333.608 277.5C333.642 278.483 333.4 279.292 332.883 279.925C332.517 280.425 331.975 280.792 331.258 281.025C330.275 281.358 329.3 281.392 328.333 281.125C327.85 280.975 327.458 280.775 327.158 280.525L327.033 280.45L326.583 280.8C326.15 281.117 325.892 281.275 325.808 281.275C325.658 281.275 325.558 281.25 325.508 281.2L325.433 281.125V279.225C325.433 277.875 325.475 277.175 325.558 277.125C325.592 277.108 325.767 277.1 326.083 277.1C326.433 277.1 326.625 277.142 326.658 277.225C326.675 277.258 326.7 277.35 326.733 277.5C327.217 279.45 328.325 280.3 330.058 280.05C330.925 279.95 331.467 279.558 331.683 278.875C331.717 278.775 331.733 278.608 331.733 278.375C331.733 278.142 331.717 277.975 331.683 277.875C331.583 277.542 331.342 277.242 330.958 276.975C330.692 276.792 330.15 276.617 329.333 276.45C328.4 276.283 327.733 276.092 327.333 275.875C326.95 275.692 326.617 275.458 326.333 275.175C326.083 274.925 325.875 274.633 325.708 274.3C325.542 273.95 325.45 273.583 325.433 273.2C325.417 272.7 325.525 272.183 325.758 271.65C325.908 271.35 326.083 271.1 326.283 270.9C326.8 270.333 327.583 269.983 328.633 269.85C328.717 269.833 328.825 269.825 328.958 269.825Z" fill="white"/>
<path d="M119.24 11.5223C119.24 11.0931 119.24 11.0745 118.807 11.0745C118.287 11.5782 117.203 12.2686 114.972 12.2686V12.8097C115.47 12.8097 116.553 12.8097 117.745 12.3246V22.0455C117.745 22.7172 117.68 22.9411 115.773 22.9411H115.102V23.4822C115.687 23.4448 117.788 23.4448 118.503 23.4448C119.219 23.4448 121.299 23.4448 121.884 23.4822V22.9411H121.212C119.305 22.9411 119.24 22.7172 119.24 22.0455V11.5223Z" fill="white" stroke="white"/>
<path d="M123.608 31.0669H113V31.8132H123.608V31.0669Z" fill="white" stroke="white"/>
<path d="M122.534 45.769H122.057C121.992 46.0862 121.819 47.1124 121.602 47.4109C121.45 47.5788 120.215 47.5788 119.565 47.5788H115.557C116.142 47.1497 117.463 45.9555 118.027 45.5078C121.32 42.8956 122.534 41.9254 122.534 40.0782C122.534 37.9325 120.562 36.4958 118.048 36.4958C115.535 36.4958 114.062 38.343 114.062 39.9476C114.062 40.8992 115.015 40.8992 115.08 40.8992C115.535 40.8992 116.098 40.6193 116.098 40.0223C116.098 39.4998 115.687 39.1453 115.08 39.1453C114.885 39.1453 114.842 39.1453 114.777 39.164C115.188 37.8952 116.358 37.0369 117.767 37.0369C119.608 37.0369 120.735 38.3617 120.735 40.0782C120.735 41.6642 119.673 43.0449 118.438 44.239L114.062 48.4557V48.9035H121.97L122.534 45.769Z" fill="white" stroke="white"/>
<path d="M178.325 2.92209C178.325 2.4825 178.325 2.46338 177.886 2.46338C177.359 2.97942 176.261 3.68658 173.999 3.68658V4.24085C174.504 4.24085 175.602 4.24085 176.81 3.74393V13.7016C176.81 14.3896 176.744 14.619 174.811 14.619H174.13V15.1733C174.723 15.135 176.853 15.135 177.578 15.135C178.303 15.135 180.411 15.135 181.004 15.1733V14.619H180.323C178.391 14.619 178.325 14.3896 178.325 13.7016V2.92209Z" fill="white" stroke="white"/>
<path d="M182.752 22.9427H172V23.7072H182.752V22.9427Z" fill="white" stroke="white"/>
<path d="M181.663 38.0029H181.18C181.114 38.3278 180.938 39.379 180.719 39.6848C180.565 39.8568 179.313 39.8568 178.654 39.8568H174.591C175.184 39.4172 176.524 38.194 177.095 37.7353C180.433 35.0595 181.663 34.0657 181.663 32.1735C181.663 29.9756 179.664 28.5039 177.117 28.5039C174.57 28.5039 173.076 30.3961 173.076 32.0397C173.076 33.0145 174.042 33.0145 174.108 33.0145C174.57 33.0145 175.14 32.7278 175.14 32.1162C175.14 31.581 174.723 31.2179 174.108 31.2179C173.911 31.2179 173.867 31.2179 173.801 31.237C174.218 29.9374 175.404 29.0582 176.831 29.0582C178.698 29.0582 179.84 30.4152 179.84 32.1735C179.84 33.7981 178.764 35.2124 177.512 36.4356L173.076 40.7551V41.2138H181.092L181.663 38.0029Z" fill="white" stroke="white"/>
<path d="M193.491 27.7009L189.626 20.2661C189.473 19.9603 189.363 19.9603 189.297 19.9603C189.275 19.9603 189.165 19.9603 188.924 20.1132L186.837 21.4893C186.552 21.6804 186.552 21.7377 186.552 21.7951C186.552 21.8906 186.618 22.0053 186.771 22.0053C186.903 22.0053 187.276 21.7377 187.518 21.5848C187.65 21.4893 187.979 21.279 188.221 21.1261L192.547 29.4019C192.701 29.7078 192.811 29.7078 193.008 29.7078C193.338 29.7078 193.404 29.593 193.557 29.3255L203.528 11.3596C203.681 11.092 203.681 11.0156 203.681 10.9773C203.681 10.7862 203.506 10.5951 203.242 10.5951C203.066 10.5951 202.913 10.6907 202.737 10.9965L193.491 27.7009Z" fill="white" stroke="white"/>
<path d="M214.002 10.5952H203.25V11.3597H214.002V10.5952Z" fill="white" stroke="white"/>
<path d="M212.913 24.892H212.43C212.364 25.217 212.188 26.2681 211.969 26.5739C211.815 26.746 210.563 26.746 209.904 26.746H205.841C206.434 26.3064 207.774 25.0832 208.345 24.6245C211.683 21.9487 212.913 20.9548 212.913 19.0627C212.913 16.8647 210.914 15.3931 208.367 15.3931C205.82 15.3931 204.326 17.2852 204.326 18.9289C204.326 19.9036 205.292 19.9036 205.358 19.9036C205.82 19.9036 206.39 19.617 206.39 19.0054C206.39 18.4702 205.973 18.1071 205.358 18.1071C205.161 18.1071 205.117 18.1071 205.051 18.1262C205.468 16.8265 206.654 15.9473 208.081 15.9473C209.948 15.9473 211.09 17.3043 211.09 19.0627C211.09 20.6873 210.014 22.1016 208.762 23.3248L204.326 27.6443V28.103H212.342L212.913 24.892Z" fill="white" stroke="white"/>
<path d="M264.475 11.5434C264.475 11.094 264.475 11.0745 264.026 11.0745C263.486 11.602 262.362 12.3249 260.046 12.3249V12.8914C260.563 12.8914 261.687 12.8914 262.924 12.3835V22.5624C262.924 23.2658 262.857 23.5002 260.878 23.5002H260.181V24.0668C260.788 24.0277 262.969 24.0277 263.711 24.0277C264.453 24.0277 266.611 24.0277 267.218 24.0668V23.5002H266.521C264.543 23.5002 264.475 23.2658 264.475 22.5624V11.5434Z" fill="white" stroke="white"/>
<path d="M269.008 32.0089H258V32.7904H269.008V32.0089Z" fill="white" stroke="white"/>
<path d="M267.893 47.4038H267.398C267.331 47.7359 267.151 48.8105 266.926 49.1231C266.769 49.2989 265.487 49.2989 264.813 49.2989H260.653C261.26 48.8495 262.632 47.5992 263.216 47.1303C266.634 44.395 267.893 43.3791 267.893 41.4449C267.893 39.1981 265.847 37.6937 263.239 37.6937C260.631 37.6937 259.102 39.6279 259.102 41.3081C259.102 42.3045 260.091 42.3045 260.159 42.3045C260.631 42.3045 261.215 42.0115 261.215 41.3863C261.215 40.8392 260.788 40.468 260.159 40.468C259.956 40.468 259.911 40.468 259.844 40.4876C260.271 39.159 261.485 38.2603 262.947 38.2603C264.858 38.2603 266.027 39.6475 266.027 41.4449C266.027 43.1056 264.925 44.5513 263.644 45.8017L259.102 50.2172V50.6861H267.308L267.893 47.4038Z" fill="white" stroke="white"/>
<path d="M280.003 36.8728L276.046 29.2727C275.889 28.9601 275.776 28.9601 275.709 28.9601C275.686 28.9601 275.574 28.9601 275.326 29.1164L273.19 30.5231C272.898 30.7185 272.898 30.7771 272.898 30.8357C272.898 30.9334 272.966 31.0506 273.123 31.0506C273.258 31.0506 273.64 30.7771 273.887 30.6208C274.022 30.5231 274.36 30.3082 274.607 30.1519L279.036 38.6116C279.194 38.9242 279.306 38.9242 279.508 38.9242C279.846 38.9242 279.913 38.8069 280.071 38.5335L290.278 20.1683C290.436 19.8948 290.436 19.8167 290.436 19.7776C290.436 19.5822 290.256 19.3868 289.986 19.3868C289.806 19.3868 289.649 19.4845 289.469 19.7971L280.003 36.8728Z" fill="white" stroke="white"/>
<path d="M301.002 19.3871H289.994V20.1685H301.002V19.3871Z" fill="white" stroke="white"/>
<path d="M294.131 30.2699C293.749 30.2895 293.659 30.309 293.659 30.4848C293.659 30.6802 293.771 30.6802 294.176 30.6802H295.21C297.122 30.6802 297.976 32.0478 297.976 33.9234C297.976 36.4828 296.447 37.1666 295.345 37.1666C294.266 37.1666 292.422 36.7173 291.77 35.4278C292.49 35.5255 293.142 35.1738 293.142 34.4705C293.142 33.9039 292.67 33.5131 292.04 33.5131C291.501 33.5131 290.916 33.7866 290.916 34.5291C290.916 36.2679 292.917 37.6941 295.413 37.6941C298.088 37.6941 300.067 35.9162 300.067 33.943C300.067 32.1455 298.403 30.7388 296.245 30.4067C298.201 29.9183 299.46 28.492 299.46 26.9681C299.46 25.4247 297.616 24.2915 295.435 24.2915C293.187 24.2915 291.523 25.4833 291.523 26.9095C291.523 27.691 292.22 27.8473 292.557 27.8473C293.029 27.8473 293.569 27.5542 293.569 26.9681C293.569 26.3429 293.029 26.0694 292.535 26.0694C292.4 26.0694 292.355 26.0694 292.288 26.0889C293.142 24.7604 295.255 24.7604 295.368 24.7604C296.11 24.7604 297.571 25.0535 297.571 26.9681C297.571 27.3393 297.504 28.4334 296.852 29.2735C296.177 30.1332 295.413 30.1918 294.806 30.2113L294.131 30.2699Z" fill="white" stroke="white"/>
</g>
<defs>
<clipPath id="clip0_117_32">
<rect width="380" height="310" fill="white"/>
</clipPath>
</defs>
</svg>
