<svg width="380" height="360" viewBox="0 0 380 360" fill="none" xmlns="http://www.w3.org/2000/svg">
<circle cx="198" cy="180" r="137" stroke="#61D55B" stroke-width="6"/>
<path d="M188.21 13.045C188.768 13.009 189.272 13.027 189.722 13.099C190.622 13.297 191.378 13.702 191.99 14.314C192.422 14.728 192.809 15.25 193.151 15.88C193.763 17.122 194.141 18.607 194.285 20.335C194.357 21.199 194.366 22.171 194.312 23.251C194.294 23.359 194.285 23.44 194.285 23.494C194.177 24.538 193.952 25.555 193.61 26.545C193.358 27.193 193.052 27.805 192.692 28.381C191.54 30.217 190.091 31.27 188.345 31.54C187.895 31.612 187.454 31.621 187.022 31.567C185.888 31.423 185.051 31.018 184.511 30.352C184.043 29.776 183.809 29.092 183.809 28.3C183.809 27.562 184.124 27.067 184.754 26.815C184.826 26.797 184.898 26.779 184.97 26.761C185.258 26.689 185.537 26.689 185.807 26.761C186.293 26.887 186.617 27.13 186.779 27.49C187.103 28.12 187.067 28.696 186.671 29.218C186.527 29.416 186.356 29.56 186.158 29.65C186.05 29.722 185.987 29.758 185.969 29.758C185.969 29.812 186.131 29.893 186.455 30.001C187.175 30.235 187.868 30.235 188.534 30.001C189.452 29.695 190.145 29.038 190.613 28.03C190.667 27.886 190.721 27.742 190.775 27.598C191.009 26.896 191.153 25.834 191.207 24.412C191.207 24.16 191.216 23.935 191.234 23.737C191.216 23.737 191.162 23.8 191.072 23.926C190.856 24.232 190.577 24.511 190.235 24.763C189.803 25.069 189.344 25.276 188.858 25.384C188.498 25.456 188.003 25.456 187.373 25.384C186.509 25.204 185.744 24.799 185.078 24.169C184.52 23.575 184.088 22.963 183.782 22.333C183.494 21.811 183.296 21.172 183.188 20.416C183.116 19.822 183.107 19.129 183.161 18.337C183.179 18.265 183.188 18.211 183.188 18.175C183.368 16.933 183.917 15.817 184.835 14.827C185.807 13.765 186.932 13.171 188.21 13.045ZM189.479 14.449C189.389 14.431 189.2 14.404 188.912 14.368C188.246 14.368 187.733 14.494 187.373 14.746C187.013 14.98 186.734 15.295 186.536 15.691C186.32 16.177 186.221 17.563 186.239 19.849C186.257 21.397 186.32 22.387 186.428 22.819C186.554 23.125 186.734 23.377 186.968 23.575C187.346 23.953 187.877 24.142 188.561 24.142C188.885 24.142 189.146 24.106 189.344 24.034C190.244 23.674 190.82 22.72 191.072 21.172C191.072 21.1 191.081 21.028 191.099 20.956C191.171 20.542 191.207 19.804 191.207 18.742C191.189 17.266 191.117 16.375 190.991 16.069C190.721 15.277 190.217 14.737 189.479 14.449ZM201.683 13.045C203.213 12.883 204.545 13.324 205.679 14.368C206.165 14.836 206.579 15.448 206.921 16.204C207.587 17.698 207.92 19.75 207.92 22.36C207.92 25.132 207.533 27.265 206.759 28.759C206.255 29.803 205.517 30.559 204.545 31.027C203.447 31.567 202.331 31.72 201.197 31.486C200.315 31.324 199.523 30.919 198.821 30.271C198.407 29.893 198.038 29.389 197.714 28.759C196.94 27.229 196.553 25.096 196.553 22.36C196.553 20.29 196.751 18.598 197.147 17.284C197.399 16.51 197.714 15.817 198.092 15.205C198.92 13.999 200.054 13.288 201.494 13.072C201.548 13.054 201.611 13.045 201.683 13.045ZM202.601 14.314C202.205 14.26 201.836 14.287 201.494 14.395C200.702 14.665 200.153 15.196 199.847 15.988C199.811 16.114 199.775 16.249 199.739 16.393C199.559 17.185 199.469 19.066 199.469 22.036C199.469 25.528 199.577 27.634 199.793 28.354C199.901 28.732 200.081 29.065 200.333 29.353C200.837 30.001 201.476 30.325 202.25 30.325C203.006 30.325 203.636 30.001 204.14 29.353C204.392 29.065 204.572 28.732 204.68 28.354C204.896 27.634 205.004 25.528 205.004 22.036C205.004 19.066 204.914 17.185 204.734 16.393C204.554 15.529 204.068 14.908 203.276 14.53C203.06 14.422 202.835 14.35 202.601 14.314ZM218.639 16.285C218.639 17.545 218.252 18.544 217.478 19.282C216.704 20.02 215.714 20.389 214.508 20.389C213.302 20.389 212.312 20.02 211.538 19.282C210.782 18.544 210.404 17.545 210.404 16.285C210.404 15.007 210.791 13.999 211.565 13.261C212.357 12.523 213.338 12.154 214.508 12.154C215.246 12.154 215.93 12.325 216.56 12.667C217.19 12.991 217.694 13.459 218.072 14.071C218.45 14.683 218.639 15.421 218.639 16.285ZM217.154 16.285C217.154 15.367 216.902 14.665 216.398 14.179C215.894 13.675 215.264 13.423 214.508 13.423C213.788 13.423 213.167 13.675 212.645 14.179C212.141 14.683 211.889 15.385 211.889 16.285C211.889 17.185 212.132 17.887 212.618 18.391C213.122 18.877 213.752 19.12 214.508 19.12C215.264 19.12 215.894 18.877 216.398 18.391C216.902 17.905 217.154 17.203 217.154 16.285Z" fill="white"/>
<path d="M182.778 327.045C183.282 326.991 183.804 327.009 184.344 327.099C185.586 327.261 186.621 327.747 187.449 328.557C187.917 328.989 188.295 329.502 188.583 330.096C188.889 330.78 189.069 331.536 189.123 332.364C189.141 333.408 188.853 334.398 188.259 335.334C187.719 336.126 186.765 337.089 185.397 338.223C184.749 338.781 183.84 339.618 182.67 340.734L181.104 342.219L182.94 342.246C185.568 342.246 186.972 342.201 187.152 342.111C187.26 342.057 187.377 341.742 187.503 341.166L187.773 339.654C187.773 339.636 187.998 339.627 188.448 339.627H189.123V339.708C189.105 339.744 188.979 340.608 188.745 342.3C188.511 343.992 188.385 344.865 188.367 344.919V345H183.345H178.35V344.352C178.35 343.902 178.368 343.65 178.404 343.596L180.699 341.004C182.661 338.808 183.858 337.431 184.29 336.873C184.974 335.919 185.451 335.055 185.721 334.281C186.189 332.841 186.099 331.518 185.451 330.312C185.289 330.024 185.1 329.763 184.884 329.529C184.29 328.917 183.552 328.584 182.67 328.53C181.95 328.494 181.329 328.737 180.807 329.259L180.321 329.88C180.321 329.916 180.393 329.934 180.537 329.934C180.879 330.042 181.149 330.195 181.347 330.393C181.473 330.483 181.581 330.618 181.671 330.798C181.797 331.104 181.86 331.419 181.86 331.743C181.806 332.607 181.365 333.138 180.537 333.336C180.465 333.354 180.393 333.372 180.321 333.39C180.177 333.408 180.033 333.408 179.889 333.39C179.133 333.282 178.647 332.895 178.431 332.229C178.395 332.085 178.377 331.86 178.377 331.554C178.377 331.212 178.395 330.969 178.431 330.825C178.593 330.105 178.899 329.448 179.349 328.854C179.583 328.566 179.898 328.278 180.294 327.99C180.69 327.702 181.149 327.468 181.671 327.288C181.995 327.198 182.364 327.117 182.778 327.045ZM192.444 329.799L192.849 326.748H193.524H194.199V326.856C194.253 327.18 194.595 327.387 195.225 327.477C195.639 327.549 197.205 327.594 199.923 327.612H203.595V328.287V328.935L201.813 331.311L199.923 333.903C198.951 335.325 198.375 337.278 198.195 339.762C198.123 340.428 198.078 341.463 198.06 342.867L198.033 344.379L197.979 344.568C197.871 344.82 197.736 345.018 197.574 345.162C197.106 345.612 196.557 345.72 195.927 345.486C195.711 345.414 195.531 345.306 195.387 345.162C195.225 345.018 195.09 344.82 194.982 344.568C194.946 344.478 194.919 344.289 194.901 344.001C194.901 343.353 194.937 342.777 195.009 342.273C195.315 339.429 196.422 336.612 198.33 333.822L200.841 330.393C200.859 330.375 200.778 330.366 200.598 330.366C200.382 330.366 199.5 330.366 197.952 330.366C195.738 330.384 194.46 330.42 194.118 330.474C193.974 330.474 193.866 330.591 193.794 330.825C193.668 331.095 193.515 331.779 193.335 332.877V332.985H192.66H191.985V332.931C191.985 332.949 192.138 331.905 192.444 329.799ZM210.183 327.045C211.713 326.883 213.045 327.324 214.179 328.368C214.665 328.836 215.079 329.448 215.421 330.204C216.087 331.698 216.42 333.75 216.42 336.36C216.42 339.132 216.033 341.265 215.259 342.759C214.755 343.803 214.017 344.559 213.045 345.027C211.947 345.567 210.831 345.72 209.697 345.486C208.815 345.324 208.023 344.919 207.321 344.271C206.907 343.893 206.538 343.389 206.214 342.759C205.44 341.229 205.053 339.096 205.053 336.36C205.053 334.29 205.251 332.598 205.647 331.284C205.899 330.51 206.214 329.817 206.592 329.205C207.42 327.999 208.554 327.288 209.994 327.072C210.048 327.054 210.111 327.045 210.183 327.045ZM211.101 328.314C210.705 328.26 210.336 328.287 209.994 328.395C209.202 328.665 208.653 329.196 208.347 329.988C208.311 330.114 208.275 330.249 208.239 330.393C208.059 331.185 207.969 333.066 207.969 336.036C207.969 339.528 208.077 341.634 208.293 342.354C208.401 342.732 208.581 343.065 208.833 343.353C209.337 344.001 209.976 344.325 210.75 344.325C211.506 344.325 212.136 344.001 212.64 343.353C212.892 343.065 213.072 342.732 213.18 342.354C213.396 341.634 213.504 339.528 213.504 336.036C213.504 333.066 213.414 331.185 213.234 330.393C213.054 329.529 212.568 328.908 211.776 328.53C211.56 328.422 211.335 328.35 211.101 328.314ZM227.139 330.285C227.139 331.545 226.752 332.544 225.978 333.282C225.204 334.02 224.214 334.389 223.008 334.389C221.802 334.389 220.812 334.02 220.038 333.282C219.282 332.544 218.904 331.545 218.904 330.285C218.904 329.007 219.291 327.999 220.065 327.261C220.857 326.523 221.838 326.154 223.008 326.154C223.746 326.154 224.43 326.325 225.06 326.667C225.69 326.991 226.194 327.459 226.572 328.071C226.95 328.683 227.139 329.421 227.139 330.285ZM225.654 330.285C225.654 329.367 225.402 328.665 224.898 328.179C224.394 327.675 223.764 327.423 223.008 327.423C222.288 327.423 221.667 327.675 221.145 328.179C220.641 328.683 220.389 329.385 220.389 330.285C220.389 331.185 220.632 331.887 221.118 332.391C221.622 332.877 222.252 333.12 223.008 333.12C223.764 333.12 224.394 332.877 224.898 332.391C225.402 331.905 225.654 331.203 225.654 330.285Z" fill="white"/>
<path d="M350.183 169.045C351.713 168.883 353.045 169.324 354.179 170.368C354.665 170.836 355.079 171.448 355.421 172.204C356.087 173.698 356.42 175.75 356.42 178.36C356.42 181.132 356.033 183.265 355.259 184.759C354.755 185.803 354.017 186.559 353.045 187.027C351.947 187.567 350.831 187.72 349.697 187.486C348.815 187.324 348.023 186.919 347.321 186.271C346.907 185.893 346.538 185.389 346.214 184.759C345.44 183.229 345.053 181.096 345.053 178.36C345.053 176.29 345.251 174.598 345.647 173.284C345.899 172.51 346.214 171.817 346.592 171.205C347.42 169.999 348.554 169.288 349.994 169.072C350.048 169.054 350.111 169.045 350.183 169.045ZM351.101 170.314C350.705 170.26 350.336 170.287 349.994 170.395C349.202 170.665 348.653 171.196 348.347 171.988C348.311 172.114 348.275 172.249 348.239 172.393C348.059 173.185 347.969 175.066 347.969 178.036C347.969 181.528 348.077 183.634 348.293 184.354C348.401 184.732 348.581 185.065 348.833 185.353C349.337 186.001 349.976 186.325 350.75 186.325C351.506 186.325 352.136 186.001 352.64 185.353C352.892 185.065 353.072 184.732 353.18 184.354C353.396 183.634 353.504 181.528 353.504 178.036C353.504 175.066 353.414 173.185 353.234 172.393C353.054 171.529 352.568 170.908 351.776 170.53C351.56 170.422 351.335 170.35 351.101 170.314ZM367.139 172.285C367.139 173.545 366.752 174.544 365.978 175.282C365.204 176.02 364.214 176.389 363.008 176.389C361.802 176.389 360.812 176.02 360.038 175.282C359.282 174.544 358.904 173.545 358.904 172.285C358.904 171.007 359.291 169.999 360.065 169.261C360.857 168.523 361.838 168.154 363.008 168.154C363.746 168.154 364.43 168.325 365.06 168.667C365.69 168.991 366.194 169.459 366.572 170.071C366.95 170.683 367.139 171.421 367.139 172.285ZM365.654 172.285C365.654 171.367 365.402 170.665 364.898 170.179C364.394 169.675 363.764 169.423 363.008 169.423C362.288 169.423 361.667 169.675 361.145 170.179C360.641 170.683 360.389 171.385 360.389 172.285C360.389 173.185 360.632 173.887 361.118 174.391C361.622 174.877 362.252 175.12 363.008 175.12C363.764 175.12 364.394 174.877 364.898 174.391C365.402 173.905 365.654 173.203 365.654 172.285Z" fill="white"/>
<path d="M8.398 169.126L8.479 169.018H8.803C9.001 169.018 9.127 169.045 9.181 169.099L9.289 169.18V177.226V185.272L9.37 185.326C9.388 185.344 9.451 185.371 9.559 185.407C9.775 185.461 10.495 185.488 11.719 185.488H12.61V186.244V187H12.286L9.964 186.946C8.614 186.928 7.264 186.928 5.914 186.946C4.33 186.982 3.547 187 3.565 187H3.241V186.244V185.488H4.132C5.392 185.488 6.13 185.461 6.346 185.407C6.454 185.371 6.517 185.344 6.535 185.326L6.616 185.272V178.495C6.616 173.977 6.607 171.718 6.589 171.718C5.653 172.078 4.609 172.258 3.457 172.258H3.106V171.502V170.746H3.457C5.041 170.746 6.391 170.422 7.507 169.774C7.957 169.486 8.254 169.27 8.398 169.126ZM20.791 169.045L22.114 169.072C23.716 169.36 24.868 170.098 25.57 171.286C25.624 171.394 25.678 171.493 25.732 171.583C25.894 171.961 26.002 172.276 26.056 172.528C26.128 172.942 26.128 173.41 26.056 173.932C25.876 174.76 25.426 175.525 24.706 176.227C24.4 176.533 24.049 176.812 23.653 177.064C23.545 177.136 23.482 177.181 23.464 177.199L23.977 177.55C24.337 177.784 24.58 177.946 24.706 178.036C25.084 178.324 25.399 178.63 25.651 178.954C26.569 180.07 26.956 181.348 26.812 182.788C26.632 184.408 25.84 185.686 24.436 186.622C23.896 186.982 23.293 187.252 22.627 187.432C21.115 187.792 19.666 187.603 18.28 186.865C18.118 186.775 17.965 186.685 17.821 186.595C16.669 185.839 15.967 184.822 15.715 183.544C15.607 182.968 15.607 182.41 15.715 181.87C15.877 181.114 16.219 180.403 16.741 179.737C17.065 179.323 17.425 178.972 17.821 178.684C18.217 178.378 18.541 178.162 18.793 178.036C18.847 178 18.883 177.973 18.901 177.955L18.658 177.766C17.542 177.082 16.831 176.119 16.525 174.877C16.165 173.581 16.381 172.33 17.173 171.124C17.551 170.602 17.965 170.188 18.415 169.882C18.955 169.54 19.495 169.306 20.035 169.18C20.215 169.108 20.467 169.063 20.791 169.045ZM21.709 170.395C20.665 170.251 19.765 170.503 19.009 171.151C18.775 171.349 18.595 171.565 18.469 171.799C18.019 172.645 18.163 173.437 18.901 174.175C19.045 174.337 19.594 174.724 20.548 175.336L20.845 175.525C21.763 176.137 22.24 176.425 22.276 176.389C22.438 176.335 22.726 176.101 23.14 175.687C23.68 175.147 24.031 174.544 24.193 173.878C24.283 173.482 24.274 173.041 24.166 172.555C24.022 172.051 23.77 171.619 23.41 171.259C22.942 170.791 22.375 170.503 21.709 170.395ZM22.06 179.953C20.872 179.197 20.305 178.837 20.359 178.873L20.143 178.738L19.873 178.927C18.487 179.845 17.749 181.024 17.659 182.464C17.659 182.608 17.659 182.752 17.659 182.896C17.713 183.796 18.073 184.552 18.739 185.164C19.207 185.632 19.81 185.947 20.548 186.109C20.98 186.181 21.457 186.181 21.979 186.109C23.203 185.857 24.049 185.281 24.517 184.381C24.589 184.255 24.643 184.12 24.679 183.976C24.985 182.968 24.751 182.077 23.977 181.303C23.815 181.141 23.176 180.691 22.06 179.953ZM34.183 169.045C35.713 168.883 37.045 169.324 38.179 170.368C38.665 170.836 39.079 171.448 39.421 172.204C40.087 173.698 40.42 175.75 40.42 178.36C40.42 181.132 40.033 183.265 39.259 184.759C38.755 185.803 38.017 186.559 37.045 187.027C35.947 187.567 34.831 187.72 33.697 187.486C32.815 187.324 32.023 186.919 31.321 186.271C30.907 185.893 30.538 185.389 30.214 184.759C29.44 183.229 29.053 181.096 29.053 178.36C29.053 176.29 29.251 174.598 29.647 173.284C29.899 172.51 30.214 171.817 30.592 171.205C31.42 169.999 32.554 169.288 33.994 169.072C34.048 169.054 34.111 169.045 34.183 169.045ZM35.101 170.314C34.705 170.26 34.336 170.287 33.994 170.395C33.202 170.665 32.653 171.196 32.347 171.988C32.311 172.114 32.275 172.249 32.239 172.393C32.059 173.185 31.969 175.066 31.969 178.036C31.969 181.528 32.077 183.634 32.293 184.354C32.401 184.732 32.581 185.065 32.833 185.353C33.337 186.001 33.976 186.325 34.75 186.325C35.506 186.325 36.136 186.001 36.64 185.353C36.892 185.065 37.072 184.732 37.18 184.354C37.396 183.634 37.504 181.528 37.504 178.036C37.504 175.066 37.414 173.185 37.234 172.393C37.054 171.529 36.568 170.908 35.776 170.53C35.56 170.422 35.335 170.35 35.101 170.314ZM51.139 172.285C51.139 173.545 50.752 174.544 49.978 175.282C49.204 176.02 48.214 176.389 47.008 176.389C45.802 176.389 44.812 176.02 44.038 175.282C43.282 174.544 42.904 173.545 42.904 172.285C42.904 171.007 43.291 169.999 44.065 169.261C44.857 168.523 45.838 168.154 47.008 168.154C47.746 168.154 48.43 168.325 49.06 168.667C49.69 168.991 50.194 169.459 50.572 170.071C50.95 170.683 51.139 171.421 51.139 172.285ZM49.654 172.285C49.654 171.367 49.402 170.665 48.898 170.179C48.394 169.675 47.764 169.423 47.008 169.423C46.288 169.423 45.667 169.675 45.145 170.179C44.641 170.683 44.389 171.385 44.389 172.285C44.389 173.185 44.632 173.887 45.118 174.391C45.622 174.877 46.252 175.12 47.008 175.12C47.764 175.12 48.394 174.877 48.898 174.391C49.402 173.905 49.654 173.203 49.654 172.285Z" fill="white"/>
<path d="M113.35 115.825C113.383 115.808 113.583 115.8 113.95 115.8C114.617 115.817 115.2 115.942 115.7 116.175L116 116.35L116.4 116.075L116.775 115.8H117C117.15 115.8 117.25 115.825 117.3 115.875L117.375 115.95V117.55V119.15L117.3 119.225L117.225 119.3H116.75H116.275L116.2 119.225C116.15 119.175 116.125 119.067 116.125 118.9C116.042 117.85 115.5 117.2 114.5 116.95C114.133 116.883 113.675 116.875 113.125 116.925C113.075 116.942 113.033 116.95 113 116.95C112.167 117.133 111.725 117.567 111.675 118.25C111.642 118.75 111.875 119.15 112.375 119.45C112.625 119.6 113.15 119.758 113.95 119.925C114.65 120.058 115.033 120.142 115.1 120.175C116.183 120.442 116.992 121.033 117.525 121.95C117.558 122.017 117.592 122.075 117.625 122.125C117.858 122.608 117.983 123.067 118 123.5C118.033 124.483 117.792 125.292 117.275 125.925C116.908 126.425 116.367 126.792 115.65 127.025C114.667 127.358 113.692 127.392 112.725 127.125C112.242 126.975 111.85 126.775 111.55 126.525L111.425 126.45L110.975 126.8C110.542 127.117 110.283 127.275 110.2 127.275C110.05 127.275 109.95 127.25 109.9 127.2L109.825 127.125V125.225C109.825 123.875 109.867 123.175 109.95 123.125C109.983 123.108 110.158 123.1 110.475 123.1C110.825 123.1 111.017 123.142 111.05 123.225C111.067 123.258 111.092 123.35 111.125 123.5C111.608 125.45 112.717 126.3 114.45 126.05C115.317 125.95 115.858 125.558 116.075 124.875C116.108 124.775 116.125 124.608 116.125 124.375C116.125 124.142 116.108 123.975 116.075 123.875C115.975 123.542 115.733 123.242 115.35 122.975C115.083 122.792 114.542 122.617 113.725 122.45C112.792 122.283 112.125 122.092 111.725 121.875C111.342 121.692 111.008 121.458 110.725 121.175C110.475 120.925 110.267 120.633 110.1 120.3C109.933 119.95 109.842 119.583 109.825 119.2C109.808 118.7 109.917 118.183 110.15 117.65C110.3 117.35 110.475 117.1 110.675 116.9C111.192 116.333 111.975 115.983 113.025 115.85C113.108 115.833 113.217 115.825 113.35 115.825ZM121.689 110.325C122.272 110.192 122.781 110.333 123.214 110.75C123.531 111.1 123.689 111.483 123.689 111.9C123.689 112.167 123.631 112.417 123.514 112.65C123.214 113.217 122.722 113.517 122.039 113.55C121.406 113.55 120.931 113.267 120.614 112.7C120.481 112.45 120.414 112.183 120.414 111.9C120.414 111.65 120.472 111.408 120.589 111.175C120.806 110.708 121.172 110.425 121.689 110.325ZM121.514 116.1C122.914 116 123.581 115.95 123.514 115.95H123.589V120.675C123.589 123.825 123.606 125.417 123.639 125.45C123.689 125.5 123.731 125.525 123.764 125.525C123.864 125.575 124.231 125.6 124.864 125.6H125.339V126.3V127H125.139L123.714 126.95C122.881 126.933 122.022 126.933 121.139 126.95C120.122 126.983 119.606 127 119.589 127H119.364V126.3V125.6H119.889C120.756 125.6 121.222 125.542 121.289 125.425C121.306 125.408 121.314 124.258 121.314 121.975C121.314 119.575 121.281 118.292 121.214 118.125C121.164 117.975 121.064 117.867 120.914 117.8C120.681 117.683 120.289 117.625 119.739 117.625H119.464V116.925V116.225H119.514L121.514 116.1ZM128.347 116.1C129.747 116 130.414 115.95 130.347 115.95H130.447V116.8V117.65L130.722 117.35C131.405 116.65 132.214 116.217 133.147 116.05C133.93 115.883 134.697 115.908 135.447 116.125C135.847 116.208 136.205 116.383 136.522 116.65C137.072 117.1 137.397 117.808 137.497 118.775C137.514 118.892 137.522 120.042 137.522 122.225C137.522 124.342 137.53 125.408 137.547 125.425C137.614 125.542 138.08 125.6 138.947 125.6H139.472V126.3V127H139.272L137.697 126.95C136.78 126.933 135.88 126.933 134.997 126.95L133.472 127H133.247V126.3V125.6H133.772C134.655 125.6 135.122 125.533 135.172 125.4V122.025C135.155 119.725 135.105 118.45 135.022 118.2C134.872 117.65 134.522 117.308 133.972 117.175C133.622 117.108 133.247 117.117 132.847 117.2C132.164 117.35 131.614 117.75 131.197 118.4C130.947 118.75 130.772 119.167 130.672 119.65C130.639 119.8 130.614 120.783 130.597 122.6V125.4C130.647 125.533 131.122 125.6 132.022 125.6H132.547V126.3V127H132.347L130.772 126.95C129.872 126.933 128.972 126.933 128.072 126.95L126.497 127H126.297V126.3V125.6H126.822C127.689 125.6 128.155 125.542 128.222 125.425V118.475C128.155 118.075 127.947 117.825 127.597 117.725C127.414 117.675 127.13 117.642 126.747 117.625H126.297V116.925V116.225H126.347L128.347 116.1ZM146.863 108.35L146.988 108.25H147.438H147.863L147.938 108.325C147.988 108.375 148.013 108.425 148.013 108.475C148.013 108.542 147.947 108.65 147.813 108.8C147.33 109.3 146.88 109.867 146.463 110.5C145.58 111.867 144.938 113.442 144.538 115.225C143.888 117.958 143.763 120.9 144.163 124.05C144.247 124.833 144.372 125.567 144.538 126.25C145.122 128.833 146.213 130.983 147.813 132.7C147.947 132.85 148.013 132.958 148.013 133.025C148.013 133.075 147.988 133.125 147.938 133.175L147.863 133.25H147.438H146.988L146.863 133.15C146.447 132.783 146.122 132.475 145.888 132.225C143.555 129.758 142.238 126.433 141.938 122.25C141.872 121.55 141.863 120.642 141.913 119.525C141.93 119.408 141.938 119.317 141.938 119.25C142.238 115.067 143.555 111.742 145.888 109.275C146.122 109.025 146.447 108.717 146.863 108.35ZM158.905 112.475C159.139 112.342 159.364 112.417 159.58 112.7L159.63 112.8V116.525V120.25H163.355H167.08L167.18 120.3C167.23 120.333 167.297 120.392 167.38 120.475C167.43 120.575 167.455 120.667 167.455 120.75C167.455 120.833 167.43 120.925 167.38 121.025C167.297 121.108 167.23 121.167 167.18 121.2L167.08 121.25H163.355H159.63V124.975V128.7L159.58 128.8C159.53 128.883 159.472 128.942 159.405 128.975C159.339 129.025 159.247 129.05 159.13 129.05C159.014 129.05 158.922 129.025 158.855 128.975C158.789 128.942 158.73 128.883 158.68 128.8L158.63 128.7V124.975V121.25H154.905H151.155L151.055 121.2C150.972 121.133 150.914 121.075 150.88 121.025C150.83 120.958 150.805 120.867 150.805 120.75C150.805 120.633 150.83 120.542 150.88 120.475C150.914 120.425 150.972 120.367 151.055 120.3L151.155 120.25H154.905H158.63V116.5L158.655 112.75L158.73 112.65L158.905 112.475ZM170.363 108.275C170.397 108.258 170.555 108.25 170.838 108.25H171.263L171.388 108.35C171.805 108.717 172.13 109.025 172.363 109.275C174.697 111.742 176.013 115.067 176.313 119.25C176.38 119.95 176.388 120.858 176.338 121.975C176.322 122.092 176.313 122.183 176.313 122.25C176.013 126.433 174.697 129.758 172.363 132.225C172.13 132.475 171.805 132.783 171.388 133.15L171.263 133.25H170.838C170.488 133.25 170.297 133.2 170.263 133.1C170.247 133.067 170.238 133.025 170.238 132.975C170.255 132.942 170.355 132.817 170.538 132.6C172.088 130.9 173.147 128.783 173.713 126.25C174.363 123.533 174.488 120.6 174.088 117.45C174.005 116.65 173.88 115.908 173.713 115.225C173.147 112.708 172.088 110.6 170.538 108.9C170.355 108.683 170.255 108.558 170.238 108.525C170.238 108.408 170.28 108.325 170.363 108.275Z" fill="white"/>
<path d="M108.4 226.8V226.625H109.025H109.65V228.925V231.225H111.275H112.9V231.925V232.625H111.275H109.65V235.95C109.65 238.217 109.658 239.4 109.675 239.5C109.775 240.367 110.083 240.858 110.6 240.975C111.2 241.125 111.633 240.833 111.9 240.1C112 239.817 112.058 239.275 112.075 238.475V237.475H112.7H113.325V238.475C113.308 239.158 113.283 239.567 113.25 239.7C113.017 240.783 112.458 241.55 111.575 242C111.042 242.233 110.492 242.317 109.925 242.25C108.625 242.1 107.808 241.425 107.475 240.225C107.375 239.908 107.325 239.325 107.325 238.475C107.325 238.675 107.317 237.883 107.3 236.1V232.625H106.375H105.45V232.05V231.45H105.65C106.167 231.4 106.65 231.167 107.1 230.75C107.467 230.383 107.775 229.867 108.025 229.2C108.275 228.417 108.4 227.617 108.4 226.8ZM119.642 230.825C119.708 230.792 119.942 230.792 120.342 230.825C120.992 230.825 121.567 230.908 122.067 231.075C122.85 231.342 123.483 231.733 123.967 232.25C124.4 232.7 124.683 233.2 124.817 233.75C124.85 233.883 124.875 235.008 124.892 237.125C124.892 239.175 124.908 240.267 124.942 240.4C125.058 240.717 125.233 240.825 125.467 240.725C125.5 240.708 125.542 240.675 125.592 240.625C125.708 240.508 125.767 240.25 125.767 239.85C125.783 239.75 125.792 239.575 125.792 239.325V238.375H126.417H127.042V239.25C127.042 239.883 127.033 240.233 127.017 240.3C126.917 240.95 126.533 241.458 125.867 241.825C125.217 242.142 124.642 242.233 124.142 242.1C123.658 241.967 123.292 241.658 123.042 241.175C122.975 241.075 122.925 240.967 122.892 240.85L122.867 240.75L122.642 240.975C122.358 241.258 122.008 241.5 121.592 241.7C120.792 242.117 119.925 242.308 118.992 242.275C117.858 242.225 116.958 241.842 116.292 241.125C116.042 240.875 115.85 240.608 115.717 240.325C115.4 239.658 115.35 238.992 115.567 238.325C115.867 237.425 116.55 236.717 117.617 236.2C118.383 235.817 119.267 235.55 120.267 235.4C120.9 235.283 121.567 235.208 122.267 235.175H122.542V234.575C122.525 234.158 122.5 233.883 122.467 233.75C122.417 233.533 122.308 233.292 122.142 233.025C121.742 232.442 121.225 232.1 120.592 232C120.208 231.933 119.658 231.95 118.942 232.05C118.808 232.083 118.733 232.1 118.717 232.1C118.683 232.1 118.708 232.142 118.792 232.225C119.058 232.575 119.15 233 119.067 233.5C118.933 234.067 118.575 234.425 117.992 234.575C117.458 234.708 116.992 234.583 116.592 234.2C116.292 233.917 116.15 233.533 116.167 233.05C116.183 232.8 116.25 232.55 116.367 232.3C116.55 231.95 116.883 231.633 117.367 231.35C117.95 231.067 118.708 230.892 119.642 230.825ZM122.542 237.575V236.325H122.392C122.075 236.325 121.725 236.367 121.342 236.45C120.775 236.55 120.208 236.717 119.642 236.95C118.725 237.367 118.183 237.975 118.017 238.775C117.933 239.292 118.033 239.767 118.317 240.2C118.817 240.983 119.567 241.258 120.567 241.025C120.617 241.008 120.667 240.992 120.717 240.975C121.45 240.775 121.975 240.35 122.292 239.7C122.325 239.617 122.358 239.542 122.392 239.475C122.492 239.092 122.542 238.458 122.542 237.575ZM129.767 231.1C131.167 231 131.833 230.95 131.767 230.95H131.867V231.8V232.65L132.142 232.35C132.825 231.65 133.633 231.217 134.567 231.05C135.35 230.883 136.117 230.908 136.867 231.125C137.267 231.208 137.625 231.383 137.942 231.65C138.492 232.1 138.817 232.808 138.917 233.775C138.933 233.892 138.942 235.042 138.942 237.225C138.942 239.342 138.95 240.408 138.967 240.425C139.033 240.542 139.5 240.6 140.367 240.6H140.892V241.3V242H140.692L139.117 241.95C138.2 241.933 137.3 241.933 136.417 241.95L134.892 242H134.667V241.3V240.6H135.192C136.075 240.6 136.542 240.533 136.592 240.4V237.025C136.575 234.725 136.525 233.45 136.442 233.2C136.292 232.65 135.942 232.308 135.392 232.175C135.042 232.108 134.667 232.117 134.267 232.2C133.583 232.35 133.033 232.75 132.617 233.4C132.367 233.75 132.192 234.167 132.092 234.65C132.058 234.8 132.033 235.783 132.017 237.6V240.4C132.067 240.533 132.542 240.6 133.442 240.6H133.967V241.3V242H133.767L132.192 241.95C131.292 241.933 130.392 241.933 129.492 241.95L127.917 242H127.717V241.3V240.6H128.242C129.108 240.6 129.575 240.542 129.642 240.425V233.475C129.575 233.075 129.367 232.825 129.017 232.725C128.833 232.675 128.55 232.642 128.167 232.625H127.717V231.925V231.225H127.767L129.767 231.1ZM148.283 223.35L148.408 223.25H148.858H149.283L149.358 223.325C149.408 223.375 149.433 223.425 149.433 223.475C149.433 223.542 149.367 223.65 149.233 223.8C148.75 224.3 148.3 224.867 147.883 225.5C147 226.867 146.358 228.442 145.958 230.225C145.308 232.958 145.183 235.9 145.583 239.05C145.667 239.833 145.792 240.567 145.958 241.25C146.542 243.833 147.633 245.983 149.233 247.7C149.367 247.85 149.433 247.958 149.433 248.025C149.433 248.075 149.408 248.125 149.358 248.175L149.283 248.25H148.858H148.408L148.283 248.15C147.867 247.783 147.542 247.475 147.308 247.225C144.975 244.758 143.658 241.433 143.358 237.25C143.292 236.55 143.283 235.642 143.333 234.525C143.35 234.408 143.358 234.317 143.358 234.25C143.658 230.067 144.975 226.742 147.308 224.275C147.542 224.025 147.867 223.717 148.283 223.35ZM160.325 227.475C160.559 227.342 160.784 227.417 161 227.7L161.05 227.8V231.525V235.25H164.775H168.5L168.6 235.3C168.65 235.333 168.717 235.392 168.8 235.475C168.85 235.575 168.875 235.667 168.875 235.75C168.875 235.833 168.85 235.925 168.8 236.025C168.717 236.108 168.65 236.167 168.6 236.2L168.5 236.25H164.775H161.05V239.975V243.7L161 243.8C160.95 243.883 160.892 243.942 160.825 243.975C160.759 244.025 160.667 244.05 160.55 244.05C160.434 244.05 160.342 244.025 160.275 243.975C160.209 243.942 160.15 243.883 160.1 243.8L160.05 243.7V239.975V236.25H156.325H152.575L152.475 236.2C152.392 236.133 152.334 236.075 152.3 236.025C152.25 235.958 152.225 235.867 152.225 235.75C152.225 235.633 152.25 235.542 152.3 235.475C152.334 235.425 152.392 235.367 152.475 235.3L152.575 235.25H156.325H160.05V231.5L160.075 227.75L160.15 227.65L160.325 227.475ZM171.783 223.275C171.817 223.258 171.975 223.25 172.258 223.25H172.683L172.808 223.35C173.225 223.717 173.55 224.025 173.783 224.275C176.117 226.742 177.433 230.067 177.733 234.25C177.8 234.95 177.808 235.858 177.758 236.975C177.742 237.092 177.733 237.183 177.733 237.25C177.433 241.433 176.117 244.758 173.783 247.225C173.55 247.475 173.225 247.783 172.808 248.15L172.683 248.25H172.258C171.908 248.25 171.717 248.2 171.683 248.1C171.667 248.067 171.658 248.025 171.658 247.975C171.675 247.942 171.775 247.817 171.958 247.6C173.508 245.9 174.567 243.783 175.133 241.25C175.783 238.533 175.908 235.6 175.508 232.45C175.425 231.65 175.3 230.908 175.133 230.225C174.567 227.708 173.508 225.6 171.958 223.9C171.775 223.683 171.675 223.558 171.658 223.525C171.658 223.408 171.7 223.325 171.783 223.275Z" fill="white"/>
<path d="M228.675 230.825C229.042 230.792 229.567 230.8 230.25 230.85C231.367 231 232.175 231.367 232.675 231.95C232.842 232.15 232.958 232.383 233.025 232.65C233.092 232.883 233.108 233.167 233.075 233.5C232.942 234.083 232.567 234.442 231.95 234.575C231.317 234.708 230.817 234.525 230.45 234.025C230.333 233.875 230.25 233.7 230.2 233.5C230.117 233 230.2 232.592 230.45 232.275C230.5 232.225 230.525 232.183 230.525 232.15C230.525 232.1 230.158 232.075 229.425 232.075C229.042 232.075 228.808 232.083 228.725 232.1C228.292 232.217 227.908 232.442 227.575 232.775C227.025 233.325 226.692 234.167 226.575 235.3C226.508 235.883 226.5 236.6 226.55 237.45C226.567 237.533 226.575 237.6 226.575 237.65C226.692 238.45 226.908 239.092 227.225 239.575C227.808 240.458 228.65 240.942 229.75 241.025C230.467 241.042 231.05 240.783 231.5 240.25C231.783 239.883 231.983 239.492 232.1 239.075C232.15 238.908 232.217 238.817 232.3 238.8C232.367 238.783 232.517 238.775 232.75 238.775H233.225L233.3 238.85C233.383 238.933 233.375 239.1 233.275 239.35C233.192 239.65 233.017 240.025 232.75 240.475C231.883 241.725 230.65 242.325 229.05 242.275C228.25 242.225 227.517 242.033 226.85 241.7C225.2 240.85 224.208 239.433 223.875 237.45C223.808 237.05 223.8 236.55 223.85 235.95C223.867 235.9 223.875 235.858 223.875 235.825C224.075 234.258 224.758 232.983 225.925 232C226.742 231.35 227.658 230.958 228.675 230.825ZM239.733 230.85C241.233 230.667 242.592 231.083 243.808 232.1C243.925 232.2 244.033 232.3 244.133 232.4C244.383 232.65 244.533 232.817 244.583 232.9C245.667 234.283 246.075 235.833 245.808 237.55C245.792 237.633 245.775 237.717 245.758 237.8C245.458 239.35 244.633 240.55 243.283 241.4C242.783 241.717 242.242 241.95 241.658 242.1C241.275 242.2 240.842 242.25 240.358 242.25C239.858 242.25 239.417 242.2 239.033 242.1C237.467 241.7 236.292 240.8 235.508 239.4C235.042 238.55 234.808 237.633 234.808 236.65C234.808 235.433 235.133 234.342 235.783 233.375C236.75 231.892 238.067 231.05 239.733 230.85ZM240.758 232C239.825 231.867 239.042 232.1 238.408 232.7C237.908 233.15 237.625 233.908 237.558 234.975C237.542 235.042 237.533 235.117 237.533 235.2C237.467 236.05 237.475 237.05 237.558 238.2C237.625 238.817 237.742 239.283 237.908 239.6C238.258 240.367 238.9 240.825 239.833 240.975C240.15 241.042 240.475 241.05 240.808 241C241.742 240.85 242.4 240.383 242.783 239.6C242.95 239.283 243.067 238.817 243.133 238.2C243.217 237.433 243.225 236.475 243.158 235.325C243.158 235.275 243.158 235.233 243.158 235.2C243.092 234.05 242.825 233.242 242.358 232.775C242.342 232.758 242.317 232.733 242.283 232.7C241.867 232.3 241.358 232.067 240.758 232ZM250.958 230.825C250.992 230.808 251.192 230.8 251.558 230.8C252.225 230.817 252.808 230.942 253.308 231.175L253.608 231.35L254.008 231.075L254.383 230.8H254.608C254.758 230.8 254.858 230.825 254.908 230.875L254.983 230.95V232.55V234.15L254.908 234.225L254.833 234.3H254.358H253.883L253.808 234.225C253.758 234.175 253.733 234.067 253.733 233.9C253.65 232.85 253.108 232.2 252.108 231.95C251.742 231.883 251.283 231.875 250.733 231.925C250.683 231.942 250.642 231.95 250.608 231.95C249.775 232.133 249.333 232.567 249.283 233.25C249.25 233.75 249.483 234.15 249.983 234.45C250.233 234.6 250.758 234.758 251.558 234.925C252.258 235.058 252.642 235.142 252.708 235.175C253.792 235.442 254.6 236.033 255.133 236.95C255.167 237.017 255.2 237.075 255.233 237.125C255.467 237.608 255.592 238.067 255.608 238.5C255.642 239.483 255.4 240.292 254.883 240.925C254.517 241.425 253.975 241.792 253.258 242.025C252.275 242.358 251.3 242.392 250.333 242.125C249.85 241.975 249.458 241.775 249.158 241.525L249.033 241.45L248.583 241.8C248.15 242.117 247.892 242.275 247.808 242.275C247.658 242.275 247.558 242.25 247.508 242.2L247.433 242.125V240.225C247.433 238.875 247.475 238.175 247.558 238.125C247.592 238.108 247.767 238.1 248.083 238.1C248.433 238.1 248.625 238.142 248.658 238.225C248.675 238.258 248.7 238.35 248.733 238.5C249.217 240.45 250.325 241.3 252.058 241.05C252.925 240.95 253.467 240.558 253.683 239.875C253.717 239.775 253.733 239.608 253.733 239.375C253.733 239.142 253.717 238.975 253.683 238.875C253.583 238.542 253.342 238.242 252.958 237.975C252.692 237.792 252.15 237.617 251.333 237.45C250.4 237.283 249.733 237.092 249.333 236.875C248.95 236.692 248.617 236.458 248.333 236.175C248.083 235.925 247.875 235.633 247.708 235.3C247.542 234.95 247.45 234.583 247.433 234.2C247.417 233.7 247.525 233.183 247.758 232.65C247.908 232.35 248.083 232.1 248.283 231.9C248.8 231.333 249.583 230.983 250.633 230.85C250.717 230.833 250.825 230.825 250.958 230.825ZM263.622 223.35L263.747 223.25H264.197H264.622L264.697 223.325C264.747 223.375 264.772 223.425 264.772 223.475C264.772 223.542 264.706 223.65 264.572 223.8C264.089 224.3 263.639 224.867 263.222 225.5C262.339 226.867 261.697 228.442 261.297 230.225C260.647 232.958 260.522 235.9 260.922 239.05C261.006 239.833 261.131 240.567 261.297 241.25C261.881 243.833 262.972 245.983 264.572 247.7C264.706 247.85 264.772 247.958 264.772 248.025C264.772 248.075 264.747 248.125 264.697 248.175L264.622 248.25H264.197H263.747L263.622 248.15C263.206 247.783 262.881 247.475 262.647 247.225C260.314 244.758 258.997 241.433 258.697 237.25C258.631 236.55 258.622 235.642 258.672 234.525C258.689 234.408 258.697 234.317 258.697 234.25C258.997 230.067 260.314 226.742 262.647 224.275C262.881 224.025 263.206 223.717 263.622 223.35ZM275.664 227.475C275.897 227.342 276.122 227.417 276.339 227.7L276.389 227.8V231.525V235.25H280.114H283.839L283.939 235.3C283.989 235.333 284.056 235.392 284.139 235.475C284.189 235.575 284.214 235.667 284.214 235.75C284.214 235.833 284.189 235.925 284.139 236.025C284.056 236.108 283.989 236.167 283.939 236.2L283.839 236.25H280.114H276.389V239.975V243.7L276.339 243.8C276.289 243.883 276.231 243.942 276.164 243.975C276.097 244.025 276.006 244.05 275.889 244.05C275.772 244.05 275.681 244.025 275.614 243.975C275.547 243.942 275.489 243.883 275.439 243.8L275.389 243.7V239.975V236.25H271.664H267.914L267.814 236.2C267.731 236.133 267.672 236.075 267.639 236.025C267.589 235.958 267.564 235.867 267.564 235.75C267.564 235.633 267.589 235.542 267.639 235.475C267.672 235.425 267.731 235.367 267.814 235.3L267.914 235.25H271.664H275.389V231.5L275.414 227.75L275.489 227.65L275.664 227.475ZM287.122 223.275C287.155 223.258 287.314 223.25 287.597 223.25H288.022L288.147 223.35C288.564 223.717 288.889 224.025 289.122 224.275C291.455 226.742 292.772 230.067 293.072 234.25C293.139 234.95 293.147 235.858 293.097 236.975C293.08 237.092 293.072 237.183 293.072 237.25C292.772 241.433 291.455 244.758 289.122 247.225C288.889 247.475 288.564 247.783 288.147 248.15L288.022 248.25H287.597C287.247 248.25 287.055 248.2 287.022 248.1C287.005 248.067 286.997 248.025 286.997 247.975C287.014 247.942 287.114 247.817 287.297 247.6C288.847 245.9 289.905 243.783 290.472 241.25C291.122 238.533 291.247 235.6 290.847 232.45C290.764 231.65 290.639 230.908 290.472 230.225C289.905 227.708 288.847 225.6 287.297 223.9C287.114 223.683 287.014 223.558 286.997 223.525C286.997 223.408 287.039 223.325 287.122 223.275Z" fill="white"/>
<path d="M209.35 114.825C209.383 114.808 209.583 114.8 209.95 114.8C210.617 114.817 211.2 114.942 211.7 115.175L212 115.35L212.4 115.075L212.775 114.8H213C213.15 114.8 213.25 114.825 213.3 114.875L213.375 114.95V116.55V118.15L213.3 118.225L213.225 118.3H212.75H212.275L212.2 118.225C212.15 118.175 212.125 118.067 212.125 117.9C212.042 116.85 211.5 116.2 210.5 115.95C210.133 115.883 209.675 115.875 209.125 115.925C209.075 115.942 209.033 115.95 209 115.95C208.167 116.133 207.725 116.567 207.675 117.25C207.642 117.75 207.875 118.15 208.375 118.45C208.625 118.6 209.15 118.758 209.95 118.925C210.65 119.058 211.033 119.142 211.1 119.175C212.183 119.442 212.992 120.033 213.525 120.95C213.558 121.017 213.592 121.075 213.625 121.125C213.858 121.608 213.983 122.067 214 122.5C214.033 123.483 213.792 124.292 213.275 124.925C212.908 125.425 212.367 125.792 211.65 126.025C210.667 126.358 209.692 126.392 208.725 126.125C208.242 125.975 207.85 125.775 207.55 125.525L207.425 125.45L206.975 125.8C206.542 126.117 206.283 126.275 206.2 126.275C206.05 126.275 205.95 126.25 205.9 126.2L205.825 126.125V124.225C205.825 122.875 205.867 122.175 205.95 122.125C205.983 122.108 206.158 122.1 206.475 122.1C206.825 122.1 207.017 122.142 207.05 122.225C207.067 122.258 207.092 122.35 207.125 122.5C207.608 124.45 208.717 125.3 210.45 125.05C211.317 124.95 211.858 124.558 212.075 123.875C212.108 123.775 212.125 123.608 212.125 123.375C212.125 123.142 212.108 122.975 212.075 122.875C211.975 122.542 211.733 122.242 211.35 121.975C211.083 121.792 210.542 121.617 209.725 121.45C208.792 121.283 208.125 121.092 207.725 120.875C207.342 120.692 207.008 120.458 206.725 120.175C206.475 119.925 206.267 119.633 206.1 119.3C205.933 118.95 205.842 118.583 205.825 118.2C205.808 117.7 205.917 117.183 206.15 116.65C206.3 116.35 206.475 116.1 206.675 115.9C207.192 115.333 207.975 114.983 209.025 114.85C209.108 114.833 209.217 114.825 209.35 114.825ZM220.214 114.825C220.531 114.775 220.997 114.792 221.614 114.875C222.514 115.025 223.264 115.4 223.864 116C224.497 116.633 224.914 117.5 225.114 118.6C225.181 119.067 225.214 119.492 225.214 119.875C225.214 119.992 225.181 120.083 225.114 120.15L225.039 120.225H221.639H218.239V120.65C218.239 121.917 218.414 122.85 218.764 123.45C219.147 124.117 219.731 124.575 220.514 124.825C220.914 124.942 221.306 125 221.689 125C221.956 125 222.147 124.983 222.264 124.95C223.064 124.717 223.614 124.1 223.914 123.1C223.947 122.967 223.997 122.867 224.064 122.8L224.139 122.725H224.589H225.039L225.114 122.8C225.214 122.883 225.222 123.058 225.139 123.325C224.989 123.758 224.789 124.142 224.539 124.475C224.289 124.858 223.956 125.192 223.539 125.475C222.889 125.958 222.122 126.225 221.239 126.275C219.739 126.325 218.431 125.808 217.314 124.725C216.864 124.292 216.472 123.758 216.139 123.125C215.722 122.258 215.522 121.325 215.539 120.325C215.556 119.458 215.764 118.608 216.164 117.775C216.914 116.258 218.072 115.308 219.639 114.925C219.822 114.875 220.014 114.842 220.214 114.825ZM221.214 116.05C220.997 115.983 220.714 115.967 220.364 116C219.514 116.183 218.914 116.708 218.564 117.575C218.381 118.092 218.289 118.558 218.289 118.975V119.075H220.589H222.889V118.875C222.839 118.275 222.697 117.717 222.464 117.2C222.164 116.617 221.747 116.233 221.214 116.05ZM228.497 115.1C229.897 115 230.564 114.95 230.497 114.95H230.597V115.8V116.65L230.872 116.35C231.389 115.867 231.897 115.525 232.397 115.325C233.064 115.058 233.747 114.933 234.447 114.95C235.131 114.967 235.697 115.092 236.147 115.325C236.697 115.592 237.097 116.017 237.347 116.6L237.447 116.775L237.497 116.7C237.597 116.517 237.872 116.25 238.322 115.9C238.889 115.467 239.522 115.183 240.222 115.05C241.006 114.883 241.772 114.908 242.522 115.125C242.922 115.208 243.281 115.383 243.597 115.65C244.147 116.1 244.472 116.808 244.572 117.775C244.589 117.892 244.597 119.042 244.597 121.225C244.597 123.342 244.606 124.408 244.622 124.425C244.689 124.542 245.156 124.6 246.022 124.6H246.547V125.3V126H246.347L244.772 125.95C243.856 125.933 242.956 125.933 242.072 125.95L240.547 126H240.322V125.3V124.6H240.847C241.731 124.6 242.197 124.533 242.247 124.4V121.025C242.231 118.725 242.181 117.45 242.097 117.2C241.947 116.65 241.597 116.308 241.047 116.175C240.697 116.108 240.322 116.117 239.922 116.2C239.239 116.35 238.689 116.75 238.272 117.4C238.022 117.75 237.847 118.167 237.747 118.65C237.714 118.8 237.689 119.783 237.672 121.6V124.4C237.722 124.533 238.197 124.6 239.097 124.6H239.622V125.3V126H239.422L237.847 125.95C236.931 125.933 236.031 125.933 235.147 125.95L233.622 126H233.397V125.3V124.6H233.922C234.806 124.6 235.272 124.533 235.322 124.4V121.025C235.306 118.725 235.256 117.45 235.172 117.2C235.022 116.65 234.672 116.308 234.122 116.175C233.772 116.108 233.397 116.117 232.997 116.2C232.314 116.35 231.764 116.75 231.347 117.4C231.097 117.75 230.922 118.167 230.822 118.65C230.789 118.8 230.764 119.783 230.747 121.6V124.4C230.797 124.533 231.272 124.6 232.172 124.6H232.697V125.3V126H232.497L230.922 125.95C230.022 125.933 229.122 125.933 228.222 125.95L226.647 126H226.447V125.3V124.6H226.972C227.839 124.6 228.306 124.542 228.372 124.425V117.475C228.306 117.075 228.097 116.825 227.747 116.725C227.564 116.675 227.281 116.642 226.897 116.625H226.447V115.925V115.225H226.497L228.497 115.1ZM249.397 115.1L251.472 114.95H251.572V119.275C251.572 122.458 251.606 124.167 251.672 124.4C251.689 124.567 251.772 124.7 251.922 124.8C252.139 124.983 252.556 125.083 253.172 125.1C253.656 125.1 254.039 125.05 254.322 124.95C254.822 124.767 255.239 124.417 255.572 123.9C255.806 123.567 255.972 123.167 256.072 122.7C256.106 122.55 256.131 121.675 256.147 120.075C256.147 118.242 256.106 117.25 256.022 117.1C256.022 117.083 256.006 117.05 255.972 117C255.806 116.767 255.364 116.642 254.647 116.625H254.197V115.925V115.225L258.297 114.95H258.497V119.275C258.497 122.192 258.506 123.675 258.522 123.725C258.589 124.142 258.797 124.4 259.147 124.5C259.331 124.55 259.614 124.583 259.997 124.6H260.447V125.3V126C260.331 126 259.622 126.042 258.322 126.125C256.939 126.225 256.239 126.275 256.222 126.275V125.525V124.775L255.922 125.05C255.256 125.683 254.472 126.075 253.572 126.225C253.272 126.292 252.806 126.3 252.172 126.25C252.106 126.233 252.047 126.225 251.997 126.225C250.564 126.025 249.689 125.35 249.372 124.2C249.289 123.917 249.239 123.258 249.222 122.225V120.5C249.206 118.367 249.172 117.25 249.122 117.15C249.122 117.133 249.097 117.092 249.047 117.025C248.881 116.758 248.381 116.625 247.547 116.625H247.272V115.925V115.225H247.322L249.397 115.1ZM265.589 114.825C265.656 114.792 265.889 114.792 266.289 114.825C266.939 114.825 267.514 114.908 268.014 115.075C268.797 115.342 269.431 115.733 269.914 116.25C270.347 116.7 270.631 117.2 270.764 117.75C270.797 117.883 270.822 119.008 270.839 121.125C270.839 123.175 270.856 124.267 270.889 124.4C271.006 124.717 271.181 124.825 271.414 124.725C271.447 124.708 271.489 124.675 271.539 124.625C271.656 124.508 271.714 124.25 271.714 123.85C271.731 123.75 271.739 123.575 271.739 123.325V122.375H272.364H272.989V123.25C272.989 123.883 272.981 124.233 272.964 124.3C272.864 124.95 272.481 125.458 271.814 125.825C271.164 126.142 270.589 126.233 270.089 126.1C269.606 125.967 269.239 125.658 268.989 125.175C268.922 125.075 268.872 124.967 268.839 124.85L268.814 124.75L268.589 124.975C268.306 125.258 267.956 125.5 267.539 125.7C266.739 126.117 265.872 126.308 264.939 126.275C263.806 126.225 262.906 125.842 262.239 125.125C261.989 124.875 261.797 124.608 261.664 124.325C261.347 123.658 261.297 122.992 261.514 122.325C261.814 121.425 262.497 120.717 263.564 120.2C264.331 119.817 265.214 119.55 266.214 119.4C266.847 119.283 267.514 119.208 268.214 119.175H268.489V118.575C268.472 118.158 268.447 117.883 268.414 117.75C268.364 117.533 268.256 117.292 268.089 117.025C267.689 116.442 267.172 116.1 266.539 116C266.156 115.933 265.606 115.95 264.889 116.05C264.756 116.083 264.681 116.1 264.664 116.1C264.631 116.1 264.656 116.142 264.739 116.225C265.006 116.575 265.097 117 265.014 117.5C264.881 118.067 264.522 118.425 263.939 118.575C263.406 118.708 262.939 118.583 262.539 118.2C262.239 117.917 262.097 117.533 262.114 117.05C262.131 116.8 262.197 116.55 262.314 116.3C262.497 115.95 262.831 115.633 263.314 115.35C263.897 115.067 264.656 114.892 265.589 114.825ZM268.489 121.575V120.325H268.339C268.022 120.325 267.672 120.367 267.289 120.45C266.722 120.55 266.156 120.717 265.589 120.95C264.672 121.367 264.131 121.975 263.964 122.775C263.881 123.292 263.981 123.767 264.264 124.2C264.764 124.983 265.514 125.258 266.514 125.025C266.564 125.008 266.614 124.992 266.664 124.975C267.397 124.775 267.922 124.35 268.239 123.7C268.272 123.617 268.306 123.542 268.339 123.475C268.439 123.092 268.489 122.458 268.489 121.575ZM280.339 107.35L280.464 107.25H280.914H281.339L281.414 107.325C281.464 107.375 281.489 107.425 281.489 107.475C281.489 107.542 281.422 107.65 281.289 107.8C280.806 108.3 280.356 108.867 279.939 109.5C279.056 110.867 278.414 112.442 278.014 114.225C277.364 116.958 277.239 119.9 277.639 123.05C277.722 123.833 277.847 124.567 278.014 125.25C278.597 127.833 279.689 129.983 281.289 131.7C281.422 131.85 281.489 131.958 281.489 132.025C281.489 132.075 281.464 132.125 281.414 132.175L281.339 132.25H280.914H280.464L280.339 132.15C279.922 131.783 279.597 131.475 279.364 131.225C277.031 128.758 275.714 125.433 275.414 121.25C275.347 120.55 275.339 119.642 275.389 118.525C275.406 118.408 275.414 118.317 275.414 118.25C275.714 114.067 277.031 110.742 279.364 108.275C279.597 108.025 279.922 107.717 280.339 107.35ZM292.381 111.475C292.614 111.342 292.839 111.417 293.056 111.7L293.106 111.8V115.525V119.25H296.831H300.556L300.656 119.3C300.706 119.333 300.773 119.392 300.856 119.475C300.906 119.575 300.931 119.667 300.931 119.75C300.931 119.833 300.906 119.925 300.856 120.025C300.773 120.108 300.706 120.167 300.656 120.2L300.556 120.25H296.831H293.106V123.975V127.7L293.056 127.8C293.006 127.883 292.948 127.942 292.881 127.975C292.814 128.025 292.723 128.05 292.606 128.05C292.489 128.05 292.398 128.025 292.331 127.975C292.264 127.942 292.206 127.883 292.156 127.8L292.106 127.7V123.975V120.25H288.381H284.631L284.531 120.2C284.448 120.133 284.389 120.075 284.356 120.025C284.306 119.958 284.281 119.867 284.281 119.75C284.281 119.633 284.306 119.542 284.356 119.475C284.389 119.425 284.448 119.367 284.531 119.3L284.631 119.25H288.381H292.106V115.5L292.131 111.75L292.206 111.65L292.381 111.475ZM303.839 107.275C303.872 107.258 304.031 107.25 304.314 107.25H304.739L304.864 107.35C305.281 107.717 305.606 108.025 305.839 108.275C308.172 110.742 309.489 114.067 309.789 118.25C309.856 118.95 309.864 119.858 309.814 120.975C309.797 121.092 309.789 121.183 309.789 121.25C309.489 125.433 308.172 128.758 305.839 131.225C305.606 131.475 305.281 131.783 304.864 132.15L304.739 132.25H304.314C303.964 132.25 303.772 132.2 303.739 132.1C303.722 132.067 303.714 132.025 303.714 131.975C303.731 131.942 303.831 131.817 304.014 131.6C305.564 129.9 306.622 127.783 307.189 125.25C307.839 122.533 307.964 119.6 307.564 116.45C307.481 115.65 307.356 114.908 307.189 114.225C306.622 111.708 305.564 109.6 304.014 107.9C303.831 107.683 303.731 107.558 303.714 107.525C303.714 107.408 303.756 107.325 303.839 107.275Z" fill="white"/>
<path d="M129.432 143.315V142.559H129.729L131.943 142.613C133.221 142.631 134.499 142.631 135.777 142.613L137.991 142.559H138.288V143.315V144.071H137.505C136.479 144.071 135.858 144.098 135.642 144.152L135.453 144.233L135.399 144.287V151.766V159.272L135.453 159.326L135.642 159.407C135.858 159.461 136.479 159.488 137.505 159.488H138.288V160.244V161H137.991L135.777 160.946C134.499 160.928 133.221 160.928 131.943 160.946L129.729 161H129.432V160.244V159.488H130.215C131.241 159.488 131.862 159.461 132.078 159.407L132.267 159.326L132.321 159.272V151.766V144.287L132.267 144.233L132.078 144.152C131.862 144.098 131.241 144.071 130.215 144.071H129.432V143.315ZM139.188 143.315V142.559H139.485L141.699 142.613C142.977 142.631 144.255 142.631 145.533 142.613L147.747 142.559H148.044V143.315V144.071H147.261C146.235 144.071 145.614 144.098 145.398 144.152L145.209 144.233L145.155 144.287V151.766V159.272L145.209 159.326L145.398 159.407C145.614 159.461 146.235 159.488 147.261 159.488H148.044V160.244V161H147.747L145.533 160.946C144.255 160.928 142.977 160.928 141.699 160.946L139.485 161H139.188V160.244V159.488H139.971C140.997 159.488 141.618 159.461 141.834 159.407L142.023 159.326L142.077 159.272V151.766V144.287L142.023 144.233L141.834 144.152C141.618 144.098 140.997 144.071 139.971 144.071H139.188V143.315Z" fill="white"/>
<path d="M254.432 143.315V142.559H254.729L256.943 142.613C258.221 142.631 259.499 142.631 260.777 142.613L262.991 142.559H263.288V143.315V144.071H262.505C261.479 144.071 260.858 144.098 260.642 144.152L260.453 144.233L260.399 144.287V151.766V159.272L260.453 159.326L260.642 159.407C260.858 159.461 261.479 159.488 262.505 159.488H263.288V160.244V161H262.991L260.777 160.946C259.499 160.928 258.221 160.928 256.943 160.946L254.729 161H254.432V160.244V159.488H255.215C256.241 159.488 256.862 159.461 257.078 159.407L257.267 159.326L257.321 159.272V151.766V144.287L257.267 144.233L257.078 144.152C256.862 144.098 256.241 144.071 255.215 144.071H254.432V143.315Z" fill="white"/>
<path d="M124.432 194.315V193.559H124.729L126.943 193.613C128.221 193.631 129.499 193.631 130.777 193.613L132.991 193.559H133.288V194.315V195.071H132.505C131.479 195.071 130.858 195.098 130.642 195.152L130.453 195.233L130.399 195.287V202.766V210.272L130.453 210.326L130.642 210.407C130.858 210.461 131.479 210.488 132.505 210.488H133.288V211.244V212H132.991L130.777 211.946C129.499 211.928 128.221 211.928 126.943 211.946L124.729 212H124.432V211.244V210.488H125.215C126.241 210.488 126.862 210.461 127.078 210.407L127.267 210.326L127.321 210.272V202.766V195.287L127.267 195.233L127.078 195.152C126.862 195.098 126.241 195.071 125.215 195.071H124.432V194.315ZM134.188 194.315V193.559H134.485L136.699 193.613C137.977 193.631 139.255 193.631 140.533 193.613L142.747 193.559H143.044V194.315V195.071H142.261C141.235 195.071 140.614 195.098 140.398 195.152L140.209 195.233L140.155 195.287V202.766V210.272L140.209 210.326L140.398 210.407C140.614 210.461 141.235 210.488 142.261 210.488H143.044V211.244V212H142.747L140.533 211.946C139.255 211.928 137.977 211.928 136.699 211.946L134.485 212H134.188V211.244V210.488H134.971C135.997 210.488 136.618 210.461 136.834 210.407L137.023 210.326L137.077 210.272V202.766V195.287L137.023 195.233L136.834 195.152C136.618 195.098 135.997 195.071 134.971 195.071H134.188V194.315ZM143.944 194.315V193.559H144.241L146.455 193.613C147.733 193.631 149.011 193.631 150.289 193.613L152.503 193.559H152.8V194.315V195.071H152.017C150.991 195.071 150.37 195.098 150.154 195.152L149.965 195.233L149.911 195.287V202.766V210.272L149.965 210.326L150.154 210.407C150.37 210.461 150.991 210.488 152.017 210.488H152.8V211.244V212H152.503L150.289 211.946C149.011 211.928 147.733 211.928 146.455 211.946L144.241 212H143.944V211.244V210.488H144.727C145.753 210.488 146.374 210.461 146.59 210.407L146.779 210.326L146.833 210.272V202.766V195.287L146.779 195.233L146.59 195.152C146.374 195.098 145.753 195.071 144.727 195.071H143.944V194.315Z" fill="white"/>
<path d="M246.432 194.315V193.559H246.729L248.943 193.613C250.221 193.631 251.499 193.631 252.777 193.613L254.991 193.559H255.288V194.315V195.071H254.505C253.479 195.071 252.858 195.098 252.642 195.152L252.453 195.233L252.399 195.287V202.766V210.272L252.453 210.326L252.642 210.407C252.858 210.461 253.479 210.488 254.505 210.488H255.288V211.244V212H254.991L252.777 211.946C251.499 211.928 250.221 211.928 248.943 211.946L246.729 212H246.432V211.244V210.488H247.215C248.241 210.488 248.862 210.461 249.078 210.407L249.267 210.326L249.321 210.272V202.766V195.287L249.267 195.233L249.078 195.152C248.862 195.098 248.241 195.071 247.215 195.071H246.432V194.315ZM256.269 194.315V193.559H256.512C256.494 193.559 257.097 193.577 258.321 193.613C259.383 193.631 260.544 193.631 261.804 193.613L263.964 193.559H264.261V194.315V195.071H263.586C262.614 195.107 262.101 195.179 262.047 195.287L266.664 208.112L268.851 202.064C270.291 198.086 271.011 196.043 271.011 195.935C271.011 195.827 270.957 195.71 270.849 195.584C270.561 195.296 270.057 195.125 269.337 195.071H269.067V194.315V193.559H269.31L271.092 193.613C273 193.649 274.395 193.631 275.277 193.559H275.466V194.315V195.071H275.223C274.899 195.071 274.521 195.107 274.089 195.179C273.387 195.323 272.928 195.566 272.712 195.908C272.694 195.926 271.686 198.68 269.688 204.17C267.762 209.606 266.772 212.351 266.718 212.405C266.7 212.459 266.646 212.504 266.556 212.54C266.484 212.576 266.259 212.594 265.881 212.594C265.485 212.594 265.251 212.576 265.179 212.54C265.089 212.504 265.035 212.459 265.017 212.405C264.981 212.369 263.946 209.516 261.912 203.846C259.878 198.176 258.843 195.323 258.807 195.287C258.735 195.179 258.474 195.116 258.024 195.098C257.862 195.08 257.493 195.071 256.917 195.071H256.269V194.315Z" fill="white"/>
<line x1="61" y1="178.5" x2="338" y2="178.5" stroke="#61D55B" stroke-width="3"/>
<line x1="198" y1="318.5" x2="198" y2="41.5" stroke="#61D55B" stroke-width="3"/>
</svg>
